<svg width="15" height="17" viewBox="0 0 15 17" xmlns="http://www.w3.org/2000/svg"><title>icon-share</title><path d="M12.5 12.002c.427 0 .827.113 1.2.338.373.226.67.53.89.912a2.48 2.48 0 0 1 0 2.468c-.22.389-.517.7-.89.932a2.233 2.233 0 0 1-1.2.348c-.427 0-.827-.116-1.2-.348a2.565 2.565 0 0 1-.89-.932 2.48 2.48 0 0 1-.33-1.24c0-.272.013-.457.04-.552l-5.9-3.523c-.48.45-1.053.676-1.72.676-.44 0-.853-.116-1.24-.348a2.568 2.568 0 0 1-.92-.943A2.515 2.515 0 0 1 0 8.52c0-.45.113-.873.34-1.27.227-.395.533-.71.92-.942.387-.232.8-.348 1.24-.348.667 0 1.24.226 1.72.676l5.86-3.482A3.517 3.517 0 0 1 10 2.56c0-.45.113-.874.34-1.27.227-.396.533-.71.92-.942.387-.232.8-.348 1.24-.348.44 0 .853.116 1.24.348.387.232.693.546.92.942.227.396.34.82.34 1.27 0 .45-.113.874-.34 1.27-.227.396-.533.71-.92.942-.387.232-.8.348-1.24.348-.613 0-1.187-.238-1.72-.716L4.92 7.927c.053.245.08.436.08.573 0 .137-.027.341-.08.614l5.94 3.523c.48-.423 1.027-.635 1.64-.635z" fill="#FFF" fill-rule="evenodd"/></svg>