<svg width="20" height="20" viewBox="0 0 20 20" xmlns="http://www.w3.org/2000/svg" xmlns:xlink="http://www.w3.org/1999/xlink"><title>instagram - FontAwesome</title><defs><path d="M20 10c0 1.38.012 2.747-.066 4.127-.078 1.602-.443 3.02-1.614 4.193-1.172 1.171-2.591 1.536-4.193 1.614-1.38.078-2.747.065-4.127.065s-2.747.013-4.127-.065c-1.602-.078-3.02-.443-4.193-1.614C.51 17.148.144 15.729.066 14.127-.012 12.747 0 11.38 0 10s-.013-2.747.065-4.127C.144 4.27.509 2.853 1.68 1.68 2.852.51 4.271.144 5.873.066 7.253-.012 8.62 0 10 0s2.747-.013 4.127.065c1.602.078 3.02.443 4.193 1.614 1.171 1.172 1.536 2.591 1.614 4.193C20.012 7.253 20 8.62 20 10zm-3.464-5.338c0-.664-.534-1.198-1.198-1.198-.664 0-1.198.534-1.198 1.198 0 .664.534 1.198 1.198 1.198.664 0 1.198-.534 1.198-1.198zM15.13 10A5.123 5.123 0 0 1 10 15.13 5.123 5.123 0 0 1 4.87 10 5.123 5.123 0 0 1 10 4.87 5.123 5.123 0 0 1 15.13 10zm-1.797 0A3.34 3.34 0 0 0 10 6.667 3.34 3.34 0 0 0 6.667 10 3.34 3.34 0 0 0 10 13.333 3.34 3.34 0 0 0 13.333 10z" id="a"/></defs><use fill="#FFF" xlink:href="#a" fill-rule="evenodd"/></svg>