<svg width="18" height="18" viewBox="0 0 18 18" xmlns="http://www.w3.org/2000/svg"><title>link - FontAwesome</title><path d="M15.882 13.235c0-.286-.11-.551-.308-.75l-2.295-2.294a1.07 1.07 0 0 0-1.544.044c.364.364.794.673.794 1.236a1.06 1.06 0 0 1-1.058 1.058c-.563 0-.872-.43-1.236-.794-.231.22-.364.475-.364.805 0 .276.11.552.31.75l2.271 2.284c.199.198.474.297.75.297s.552-.099.75-.286l1.622-1.61c.198-.2.308-.464.308-.74zM8.13 5.46c0-.276-.11-.552-.31-.75L5.549 2.426a1.07 1.07 0 0 0-.75-.308c-.276 0-.552.11-.75.297l-1.622 1.61a1.05 1.05 0 0 0 0 1.489L4.721 7.81c.198.198.474.298.75.298.32 0 .573-.11.794-.342C5.9 7.4 5.47 7.092 5.47 6.529a1.06 1.06 0 0 1 1.058-1.058c.563 0 .872.43 1.236.794.231-.22.364-.475.364-.805zM18 13.235c0 .839-.342 1.655-.938 2.24l-1.62 1.61c-.596.595-1.402.915-2.24.915-.85 0-1.654-.33-2.25-.938L8.68 14.78a3.153 3.153 0 0 1-.915-2.239c0-.87.353-1.698.97-2.305l-.97-.97a3.204 3.204 0 0 1-2.294.97 3.19 3.19 0 0 1-2.25-.926L.926 7.015A3.143 3.143 0 0 1 0 4.765c0-.839.342-1.655.938-2.24l1.62-1.61A3.153 3.153 0 0 1 4.799 0c.85 0 1.654.33 2.25.938L9.32 3.22c.595.595.915 1.4.915 2.239a3.23 3.23 0 0 1-.97 2.305l.97.97a3.204 3.204 0 0 1 2.294-.97c.839 0 1.655.33 2.25.926l2.295 2.294c.606.607.926 1.401.926 2.25z" fill="#FFF" fill-rule="evenodd"/></svg>