<svg width="25" height="20" viewBox="0 0 25 20" xmlns="http://www.w3.org/2000/svg"><title></title><path d="M6.064.704H25v2.624H6.064V.704zm0 10.624V8.704H25v2.624H6.064zm0 8v-2.624H25v2.624H6.064zM2.01 16c.562 0 1.043.203 1.443.608.4.405.6.875.6 1.408 0 .533-.205.997-.616 1.392-.41.395-.886.592-1.427.592-.54 0-1.01-.197-1.41-.592-.4-.395-.6-.859-.6-1.392 0-.533.195-1.003.584-1.408.389-.405.864-.608 1.426-.608zm0-16a1.98 1.98 0 0 1 1.443.592c.4.395.6.87.6 1.424 0 .555-.2 1.024-.6 1.408-.4.384-.88.576-1.443.576a1.954 1.954 0 0 1-1.426-.576A1.903 1.903 0 0 1 0 2.016C0 1.461.195.986.584.592.973.197 1.448 0 2.01 0zm0 8a1.98 1.98 0 0 1 1.443.592c.4.395.6.87.6 1.424 0 .555-.2 1.024-.6 1.408-.4.384-.88.576-1.443.576a1.954 1.954 0 0 1-1.426-.576A1.903 1.903 0 0 1 0 10.016c0-.555.195-1.03.584-1.424C.973 8.197 1.448 8 2.01 8z" fill="#EE2E62" fill-rule="evenodd"/></svg>