<?xml version="1.0" encoding="utf-8"?>
<!-- Generator: Adobe Illustrator 16.0.0, SVG Export Plug-In . SVG Version: 6.00 Build 0)  -->
<!DOCTYPE svg PUBLIC "-//W3C//DTD SVG 1.1//EN" "http://www.w3.org/Graphics/SVG/1.1/DTD/svg11.dtd">
<svg version="1.1" id="Layer_1" xmlns="http://www.w3.org/2000/svg" xmlns:xlink="http://www.w3.org/1999/xlink" x="0px" y="0px"
	 width="739.25px" height="492.352px" viewBox="0 0 739.25 492.352" enable-background="new 0 0 739.25 492.352"
	 xml:space="preserve">
<g id="Layer_3">
</g>
<g id="logo">
	<path fill-rule="evenodd" clip-rule="evenodd" fill="#BB992F" d="M0,18.168c0,0,49.446,5.806,96.078,43.329
		c22.619,18.193,52.18,46.826,81.406,79.303c5.174,5.755,14.761-21.226,19.872-15.278c41.934,48.826,76.076,136.181,89.006,176.27
		c11.38,35.279,20.606,65.988,31.315,91.291c26.516,62.657,60.567,84.232,60.567,84.232s-68.335,29.896-147.29,4.412
		c-41.084-13.25-94.787-53.419-122.49-95.25C83.045,348.09,45.161,275.069,34.142,216.36c-1.419-7.535,17.238,0.955,17.212-6.708
		C50.659,57.806,0,18.168,0,18.168z"/>
	<path fill="#8A9F3B" d="M666.926,239.25C683.794,81.272,739.25,23.168,739.25,23.168s-108.87,26.605-220.606,121.426
		c-6.876,5.835-10.645-42.903-16.877-36.827c-6.955,6.761-36.556,68.955-71.793,113.548
		c-43.497,55.045-83.601,117.291-71.975,176.723c12.878,65.82,68.735,85.404,103.213,91.303
		c10.309,2.672,101.265,22.58,160.361-90.401c16.077-30.721,56.773-110.372,65.961-154.785
		C690.474,229.961,665.358,253.942,666.926,239.25z"/>
	<path fill="#BCBD32" d="M452,150.837c1.16-5.367-92.671-65.65-167.084-150.837c0,0,0.193,55.226,6.025,127.2
		c0.503,6.167-23.961-6.4-23.367-0.026c6.851,74.567,37.677,175.91,67.767,243.096c18.13-71.33,33.407-87.522,65.703-131.614
		C428.464,201.238,447.882,169.883,452,150.837z"/>
	<path fill="#DDCC82" d="M353.47,453.533c-5.201-6.284-10.853-14.025-16.606-23.251c-38.414-40.76-139.509-127.495-139.509-127.495
		C273.959,421.843,322.115,439.147,353.47,453.533z"/>
	<path fill="#CACC71" d="M408.385,470.58c7.896,4.723,16.064,8.426,24.025,11.289c73.51-74.761,105.29-179.082,105.29-179.082
		C498.837,385.522,430.23,451.108,408.385,470.58z"/>
</g>
</svg>
