<svg xmlns="http://www.w3.org/2000/svg" width="739.25" height="492.352"><path fill-rule="evenodd" clip-rule="evenodd" fill="#BB992F" d="M0 18.168s49.446 5.806 96.078 43.329c22.619 18.193 52.18 46.826 81.406 79.303 5.174 5.755 14.761-21.226 19.872-15.278 41.934 48.826 76.076 136.181 89.006 176.27 11.38 35.279 20.606 65.988 31.315 91.291 26.516 62.657 60.567 84.232 60.567 84.232s-68.335 29.896-147.29 4.412c-41.084-13.25-94.787-53.419-122.49-95.25C83.045 348.09 45.161 275.069 34.142 216.36c-1.419-7.535 17.238.955 17.212-6.708C50.659 57.806 0 18.168 0 18.168z"/><path fill="#8A9F3B" d="M666.926 239.25C683.794 81.272 739.25 23.168 739.25 23.168S630.38 49.773 518.644 144.594c-6.876 5.835-10.645-42.903-16.877-36.827-6.955 6.761-36.556 68.955-71.793 113.548-43.497 55.045-83.601 117.291-71.975 176.723 12.878 65.82 68.735 85.404 103.213 91.303 10.309 2.672 101.265 22.58 160.361-90.401 16.077-30.721 56.773-110.372 65.961-154.785 2.94-14.194-22.176 9.787-20.608-4.905z"/><path fill="#BCBD32" d="M452 150.837C453.16 145.47 359.329 85.187 284.916 0c0 0 .193 55.226 6.025 127.2.503 6.167-23.961-6.4-23.367-.026 6.851 74.567 37.677 175.91 67.767 243.096 18.13-71.33 33.407-87.522 65.703-131.614 27.42-37.418 46.838-68.773 50.956-87.819z"/><path fill="#DDCC82" d="M353.47 453.533c-5.201-6.284-10.853-14.025-16.606-23.251-38.414-40.76-139.509-127.495-139.509-127.495 76.604 119.056 124.76 136.36 156.115 150.746z"/><path fill="#CACC71" d="M408.385 470.58c7.896 4.723 16.064 8.426 24.025 11.289 73.51-74.761 105.29-179.082 105.29-179.082-38.863 82.735-107.47 148.321-129.315 167.793z"/></svg>