<svg xmlns="http://www.w3.org/2000/svg" width="310.375" height="65"><path clip-rule="evenodd" fill="none" d="M-.709 44.231h320.356v43.936H-.709z"/><path d="M12.088 59.902l-8.87-11.868v11.868H1.529V45.12h1.753l8.87 11.889V45.12h1.668v14.782h-1.732zm7.878-14.318c0 .655-.465 1.141-1.077 1.141s-1.077-.485-1.077-1.141c0-.654.465-1.14 1.077-1.14s1.077.486 1.077 1.14zm-1.88 14.318V48.773h1.626v11.129h-1.626zm12.545-1.711c-.888 1.204-2.302 1.796-4.076 1.796-2.302 0-3.78-1.479-3.78-3.4 0-1.943 1.542-3.168 4.16-3.189h3.654v-.654c0-1.626-1.014-2.598-2.979-2.598-1.225 0-2.365.465-3.526 1.268l-.697-1.204c1.437-.95 2.64-1.499 4.541-1.499 2.745 0 4.266 1.457 4.287 3.844l.021 7.349h-1.604v-1.713zm-.021-2.132v-1.33h-3.463c-1.858 0-2.83.57-2.83 1.795s.992 2.027 2.556 2.027c1.878 0 3.315-.95 3.737-2.492zm14.995 2.682c0 3.252-2.217 5.301-5.596 5.301-1.753-.021-3.21-.592-4.562-1.605l.76-1.268c1.099.908 2.26 1.395 3.738 1.415 2.429 0 4.013-1.478 4.013-3.801v-1.689c-.782 1.479-2.218 2.323-4.098 2.323-2.998 0-5.068-2.218-5.068-5.386 0-3.104 2.049-5.301 5.026-5.321 1.9 0 3.337.845 4.14 2.322v-2.259h1.646v9.968zm-1.647-4.646c0-2.323-1.584-3.949-3.802-3.949-2.238 0-3.802 1.647-3.822 3.949.021 2.281 1.584 3.928 3.822 3.928 2.219-.001 3.802-1.647 3.802-3.928zm12.292 4.096c-.887 1.204-2.302 1.796-4.076 1.796-2.302 0-3.78-1.479-3.78-3.4 0-1.943 1.542-3.168 4.16-3.189h3.653v-.654c0-1.626-1.014-2.598-2.978-2.598-1.225 0-2.365.465-3.526 1.268l-.697-1.204c1.437-.95 2.641-1.499 4.541-1.499 2.745 0 4.266 1.457 4.287 3.844l.021 7.349H56.25v-1.713zm-.022-2.132v-1.33h-3.463c-1.858 0-2.83.57-2.83 1.795s.992 2.027 2.555 2.027c1.88 0 3.316-.95 3.738-2.492zm6.949-4.815c.739-1.626 2.112-2.514 3.991-2.534v1.668c-2.344-.042-3.801 1.415-3.991 3.611v5.913H61.53V48.773h1.647v2.471zm12.587 6.947c-.888 1.204-2.302 1.796-4.076 1.796-2.302 0-3.78-1.479-3.78-3.4 0-1.943 1.542-3.168 4.16-3.189h3.654v-.654c0-1.626-1.014-2.598-2.979-2.598-1.225 0-2.365.465-3.526 1.268l-.697-1.204c1.437-.95 2.64-1.499 4.541-1.499 2.745 0 4.266 1.457 4.287 3.844l.021 7.349h-1.604v-1.713zm-.021-2.132v-1.33H72.28c-1.858 0-2.83.57-2.83 1.795s.992 2.027 2.556 2.027c1.878 0 3.315-.95 3.737-2.492zm15.818-9.313v13.156h-1.689V46.746h-4.814V45.12h11.341v1.626h-4.838zm7.647 4.498c.739-1.626 2.112-2.514 3.991-2.534v1.668c-2.344-.042-3.801 1.415-3.991 3.611v5.913H97.56V48.773h1.647v2.471zm15.796 3.737h-9.081c.296 2.176 1.88 3.548 4.034 3.548 1.372 0 2.576-.485 3.442-1.394l.908.972c-1.057 1.183-2.619 1.858-4.478 1.858-3.273 0-5.533-2.302-5.533-5.617 0-3.316 2.281-5.618 5.512-5.618 3.592-.02 5.365 2.472 5.196 6.251zm-1.478-1.351c-.105-2.133-1.541-3.484-3.717-3.484-2.111 0-3.632 1.373-3.886 3.484h7.603zm13.897 1.351h-9.081c.296 2.176 1.88 3.548 4.034 3.548 1.372 0 2.576-.485 3.442-1.394l.907.972c-1.056 1.183-2.618 1.858-4.477 1.858-3.273 0-5.533-2.302-5.533-5.617 0-3.316 2.281-5.618 5.512-5.618 3.592-.02 5.365 2.472 5.196 6.251zm-1.478-1.351c-.105-2.133-1.541-3.484-3.717-3.484-2.111 0-3.632 1.373-3.886 3.484h7.603zm18.29 4.098c-1.352 1.436-2.914 2.26-4.583 2.26-2.449 0-4.393-1.732-4.393-4.055 0-2.154 1.626-3.273 3.358-4.203-1.014-1.31-1.521-2.407-1.521-3.484 0-1.858 1.457-3.188 3.611-3.188 2.048 0 3.421 1.225 3.421 2.978 0 2.006-1.816 3.041-3.653 4.012.908 1.057 2.111 2.281 3.59 3.738.57-.803 1.077-1.773 1.521-2.872l1.119.866c-.485 1.119-1.035 2.111-1.668 2.956l2.555 2.514-.887.929-2.47-2.451zm-.95-.952c-1.626-1.626-2.957-2.978-3.949-4.139-1.457.803-2.682 1.689-2.682 3.168 0 1.668 1.352 2.83 3.062 2.83 1.267.001 2.492-.675 3.569-1.859zm-3.548-5.617c1.626-.845 3.041-1.646 3.041-3.125 0-1.099-.803-1.838-2.069-1.838-1.373 0-2.26.888-2.26 2.027 0 .867.443 1.796 1.288 2.936zm27.835 1.521v5.364c-1.457 1.161-3.506 1.943-5.492 1.943-4.287 0-7.707-3.316-7.707-7.477s3.441-7.434 7.793-7.434c2.047 0 4.033.781 5.447 2.027l-.971 1.268a6.793 6.793 0 00-4.477-1.711c-3.379 0-6.082 2.598-6.082 5.85 0 3.273 2.723 5.871 6.102 5.871 1.332 0 2.746-.465 3.887-1.246V52.68h1.5zm10.772 5.511c-.887 1.204-2.303 1.796-4.076 1.796-2.303 0-3.781-1.479-3.781-3.4 0-1.943 1.543-3.168 4.16-3.189h3.654v-.654c0-1.626-1.014-2.598-2.979-2.598-1.225 0-2.365.465-3.525 1.268l-.697-1.204c1.436-.95 2.641-1.499 4.541-1.499 2.744 0 4.266 1.457 4.287 3.844l.02 7.349h-1.604v-1.713zm-.022-2.132v-1.33h-3.463c-1.859 0-2.83.57-2.83 1.795s.992 2.027 2.555 2.027c1.879 0 3.316-.95 3.738-2.492zm6.949-4.815c.738-1.626 2.111-2.514 3.99-2.534v1.668c-2.344-.042-3.801 1.415-3.99 3.611v5.913h-1.648V48.773h1.648v2.471zm16.43 8.658h-1.646v-2.387c-.824 1.563-2.344 2.472-4.33 2.472-3.168 0-5.363-2.345-5.363-5.66 0-3.337 2.195-5.639 5.342-5.639 1.986 0 3.527.908 4.352 2.492v-6.948h1.646v15.67zm-1.646-5.533c0-2.429-1.668-4.181-4.014-4.181-2.365 0-4.033 1.752-4.033 4.181 0 2.407 1.668 4.14 4.033 4.14 2.346 0 4.014-1.733 4.014-4.14zm15.353.612h-9.082c.297 2.176 1.881 3.548 4.035 3.548 1.371 0 2.576-.485 3.441-1.394l.908.972c-1.057 1.183-2.619 1.858-4.477 1.858-3.273 0-5.533-2.302-5.533-5.617 0-3.316 2.281-5.618 5.512-5.618 3.591-.02 5.364 2.472 5.196 6.251zm-1.478-1.351c-.105-2.133-1.541-3.484-3.717-3.484-2.111 0-3.633 1.373-3.887 3.484h7.604zm14.488-.591v6.863h-1.646v-6.42c0-1.964-1.184-3.126-3.146-3.126-2.197.021-3.549 1.458-3.738 3.569v5.977h-1.648V48.773h1.648v2.449c.781-1.689 2.281-2.492 4.309-2.513 2.658.001 4.221 1.647 4.221 4.33zm18.775-6.61l-.719 1.584a7.635 7.635 0 00-4.076-1.246c-1.9 0-3.146.719-3.146 1.964 0 3.802 8.32 1.816 8.301 7.181 0 2.471-2.176 4.055-5.344 4.055-2.154 0-4.266-.93-5.66-2.26l.762-1.521c1.371 1.33 3.252 2.091 4.92 2.091 2.133 0 3.463-.866 3.463-2.281.021-3.886-8.299-1.815-8.299-7.116 0-2.323 2.049-3.822 5.109-3.822 1.711-.001 3.465.547 4.689 1.371zm13.178 8.552h-9.08c.295 2.176 1.879 3.548 4.033 3.548 1.373 0 2.576-.485 3.443-1.394l.908.972c-1.057 1.183-2.619 1.858-4.479 1.858-3.273 0-5.533-2.302-5.533-5.617 0-3.316 2.281-5.618 5.512-5.618 3.593-.02 5.366 2.472 5.196 6.251zm-1.478-1.351c-.105-2.133-1.541-3.484-3.717-3.484-2.111 0-3.631 1.373-3.885 3.484h7.602zm5.957-2.386c.74-1.626 2.113-2.514 3.992-2.534v1.668c-2.344-.042-3.801 1.415-3.992 3.611v5.913h-1.646V48.773h1.646v2.471zm9.293 8.658l-4.412-11.129h1.752l3.547 9.418 3.527-9.418h1.668l-4.371 11.129h-1.711zm9.906-14.318c0 .655-.465 1.141-1.078 1.141-.611 0-1.076-.485-1.076-1.141 0-.654.465-1.14 1.076-1.14.613 0 1.078.486 1.078 1.14zm-1.881 14.318V48.773h1.627v11.129h-1.627zm14.318-9.524l-.908 1.162c-.844-.803-1.963-1.289-3.314-1.289-2.303 0-3.949 1.669-3.949 4.098 0 2.428 1.646 4.117 3.949 4.117 1.457 0 2.66-.506 3.441-1.436l.951 1.014c-.992 1.204-2.535 1.922-4.457 1.922-3.23 0-5.512-2.302-5.512-5.617 0-3.316 2.303-5.618 5.512-5.618 1.797-.021 3.274.591 4.287 1.647zm12.229 4.603h-9.082c.297 2.176 1.881 3.548 4.035 3.548 1.371 0 2.576-.485 3.441-1.394l.908.972c-1.057 1.183-2.619 1.858-4.477 1.858-3.273 0-5.533-2.302-5.533-5.617 0-3.316 2.281-5.618 5.512-5.618 3.59-.02 5.364 2.472 5.196 6.251zm-1.479-1.351c-.105-2.133-1.541-3.484-3.717-3.484-2.111 0-3.633 1.373-3.887 3.484h7.604z" fill="#6A8203"/><path d="M206.59 13.657s-3.483-1.459-3.483-3.476 3.483-3.527 3.483-3.527 3.484 1.605 3.484 3.527-3.484 3.476-3.484 3.476zm-2.488 24.808V18.062c0-2.736 4.927-3.062 4.927-3.062v19.844s0 3.621-2.561 3.621h-2.366zm47.461 0c-2.797 0-2.766-3.465-2.766-3.465V24.31c0-.629-.141-1.233-.424-1.813a4.718 4.718 0 00-1.169-1.515 5.676 5.676 0 00-1.742-1.018 6.066 6.066 0 00-2.14-.373 6.862 6.862 0 00-3.484.918 7.87 7.87 0 00-2.588 2.359v11.568s.125 4.027-2.625 4.027h-2.353V3.7h1.54c3.938 0 3.438 3.237 3.438 3.237v9.376a12.464 12.464 0 012.887-1.241 11.558 11.558 0 013.234-.447c1.394 0 2.713.257 3.957.77a10.974 10.974 0 013.311 2.11 10.27 10.27 0 012.289 3.104 8.446 8.446 0 01.846 3.7v14.155l-2.211.001zM26.149 36.181c-1.13-1.408-19.817-23.434-19.817-23.434v23.285c0 1.422-.504 2.473-2.082 2.473-1.219 0-2.746.012-2.746.012V3.7h.913c3.917 0 6.599 3.814 6.599 3.814l19.066 23.053V3.7s4.877 0 4.877 2.987v31.777h-1.806c-2.809.001-3.874-.875-5.004-2.283zM53.43 18.475c-.68-1.341-1.509-2.359-2.488-3.054a8.02 8.02 0 00-3.136-1.366c-1.112-.215-2.099-.323-2.961-.323-1.162 0-2.413.076-3.633.571-4.915 1.994-4.87 5.476-4.979 5.932-.149.619-.003 2.036-.003 2.036 1.394-1.258 3.042-2.373 4.335-2.853 1.294-.48 2.654-.72 4.081-.72.963 0 1.759.116 2.39.348.63.231 1.128.571 1.493 1.018.365.446.614 1.009.747 1.688.132.679.199 1.448.199 2.309-2.588 0-4.77.215-6.545.646-1.775.43-3.218 1.009-4.33 1.737-1.112.729-1.908 1.59-2.389 2.583a7.092 7.092 0 00-.722 3.128c0 .961.215 1.846.647 2.658.431.811 1.012 1.531 1.742 2.16s1.584 1.117 2.563 1.465a9.366 9.366 0 003.16.521c.896 0 1.883-.15 2.961-.447a10.369 10.369 0 002.912-1.291s.229 1.242 1.401 1.242h3.576v-14.65c0-2.218-.34-3.998-1.021-5.338zm-3.956 14.724c-.664.396-1.402.721-2.215.969s-1.584.373-2.314.373c-1.294 0-2.397-.15-3.31-.447-.912-.299-1.368-.977-1.368-2.037 0-.729.24-1.324.721-1.788.482-.463 1.137-.819 1.966-1.067s1.809-.422 2.937-.521c1.128-.1 2.323-.149 3.583-.149v4.667zM64.942 19.84v9.784c0 1.291.332 2.351.995 3.179.664.826 1.494 1.242 2.489 1.242.863 0 1.792-.158 2.788-.473.995-.314 3.269-1.756 3.269-1.756s.081 1.309-.658 3.073c-.747 1.785-2.333 3.309-4.783 3.693-1.18.186-2.921.228-3.95-.169s-1.925-.951-2.688-1.664a7.716 7.716 0 01-1.792-2.508c-.431-.961-.646-2.002-.646-3.129V19.84h-2.215c-3.25 0-2.713-4.966-2.713-4.966h4.928v-4.718h3.452c1.85 0 1.525 4.718 1.525 4.718h6.683c2.667 0 2.321 4.966 2.321 4.966h-9.005zm156.312 0v9.784c0 1.291.332 2.351.994 3.179.664.826 1.494 1.242 2.489 1.242.862 0 1.792-.158 2.788-.473a8.963 8.963 0 002.637-1.316s.672 3.661-4.475 5.869c-1.098.471-3.256.686-4.285.289a8.23 8.23 0 01-2.688-1.664 7.73 7.73 0 01-1.792-2.508c-.431-.961-.646-2.002-.646-3.129V19.84h-2.215c-3.25 0-2.713-4.966-2.713-4.966h4.928v-4.718h3.452c1.85 0 1.525 4.718 1.525 4.718h6.683c2.667 0 2.321 4.966 2.321 4.966h-9.003zM95.344 38.465c-1.5 0-1.985-1.49-1.985-1.49-1.925 1.324-4.032 1.986-6.321 1.986-1.029 0-2.14-.166-3.334-.496a9.901 9.901 0 01-3.359-1.689c-1.046-.795-1.916-1.846-2.613-3.154-.697-1.307-1.045-2.922-1.045-4.842V14.874h1.814c1.592 0 3.162.313 3.162 2.095v10.917c0 .828.142 1.598.423 2.309a5.829 5.829 0 001.169 1.862c.498.531 1.07.943 1.717 1.242a4.891 4.891 0 002.065.447c1.195 0 2.331-.141 3.409-.422a9.143 9.143 0 002.912-1.316V17.344c0-2.53 2.36-2.47 3.485-2.47h1.492v23.591h-2.991zm189.5 0c-1.5 0-1.984-1.49-1.984-1.49-1.926 1.324-4.032 1.986-6.322 1.986-1.028 0-2.139-.166-3.334-.496a9.901 9.901 0 01-3.359-1.689c-1.046-.795-1.916-1.846-2.613-3.154-.697-1.307-1.045-2.922-1.045-4.842V14.874h1.814c1.592 0 3.162.313 3.162 2.095v10.917c0 .828.142 1.598.424 2.309a5.812 5.812 0 001.169 1.862c.498.531 1.07.943 1.718 1.242a4.887 4.887 0 002.064.447c1.195 0 2.332-.141 3.41-.422s2.049-.721 2.912-1.316V17.344c0-2.53 2.359-2.47 3.484-2.47h1.492v23.591h-2.992zM113.5 20.25c-2.063-1.281-4.127-.311-4.625-.063-.498.248-1.37 1.085-1.802 1.565-.431.48-.829 1.117-1.194 1.912v12.711c0 1.191-1.598 2.09-2.941 2.09h-1.986V14.874h2.956c1.551 0 2.021 1.987 2.021 1.987 1.858-1.49 3.614-2.061 5.533-1.912 1.604.125 2.664.697 3.726 2.113 1.287 1.716.792 5.075.792 5.075s-1.131-1.049-2.48-1.887zM139.563 26c1.246-1.454 1.408-3.197.828-4.918-.581-1.721-1.435-3.128-2.563-4.221a10.149 10.149 0 00-3.981-2.384 15.019 15.019 0 00-4.679-.745c-1.692 0-3.276.323-4.753.969a12.774 12.774 0 00-3.882 2.607 12.303 12.303 0 00-2.638 3.824 11.372 11.372 0 00-.971 4.668c0 1.788.34 3.484 1.021 5.091.681 1.605 1.601 3.004 2.762 4.195 1.162 1.193 2.53 2.137 4.106 2.832s5.5 1.271 7.588.773c4.129-.983 5.264-2.383 6.246-3.691 1.125-1.5.674-3.986.674-3.986-1.062.895-2.348 1.623-3.857 2.186-1.51.563-3.127.846-4.853.846-1.062 0-2.074-.176-3.036-.523s-1.817-.818-2.563-1.414a8.365 8.365 0 01-2.962-4.818h12.888c2.083 0 3.625-.124 4.625-1.291zm-17.542-2.875c.563-1.159 1.87-2.73 3.065-3.508a7.067 7.067 0 014.031-1.167c3.82.05 5.474 1.082 6.529 2.634.708 1.042.833 1.782-.833 2.042-1.065.165-12.792-.001-12.792-.001zm185.933 11.912c-.548 1.025-1.277 1.854-2.19 2.482-.912.629-1.99 1.076-3.234 1.342s-2.57.534-3.957.396c-2.988-.297-6.551-1.383-7.955-4.903-1.06-2.656-.755-5.128-.755-5.128a8.792 8.792 0 003.484 3.725c1.525.895 3.234 1.342 5.126 1.342.266 0 .697-.01 1.294-.025a6.75 6.75 0 001.792-.299 4.603 4.603 0 001.593-.844c.464-.381.696-.951.696-1.713 0-.695-.34-1.217-1.02-1.565-.681-.348-1.535-.638-2.563-.869l-3.335-.745a13.722 13.722 0 01-3.334-1.192 7.237 7.237 0 01-2.563-2.186c-.681-.927-1.021-2.201-1.021-3.823 0-.994.224-1.929.672-2.807a7.627 7.627 0 011.816-2.309 8.64 8.64 0 012.688-1.565 9.407 9.407 0 013.285-.57c1.493 0 2.91.155 4.194.802 1.587.799 2.501 1.491 3.376 2.875s.542 4.368.542 4.368c-.962-.927-2.14-1.672-3.533-2.235s-2.92-.844-4.579-.844c-.963 0-1.783.149-2.464.447-.68.298-1.021.91-1.021 1.838 0 .794.341 1.39 1.021 1.787.681.397 1.535.721 2.563.969 1.028.249 2.132.497 3.31.745s2.281.621 3.31 1.117a7.206 7.206 0 012.563 2.036c.681.861 1.021 2.037 1.021 3.526-.001 1.524-.274 2.8-.822 3.825z" fill="#7B7B7B"/><g fill="#6A8203"><path fill-rule="evenodd" clip-rule="evenodd" d="M152.25 1.72s1.158 2.095 4.687 4.935c4.499 3.621 12.629 12.692 14.401 18.187.861 2.67 1.56 4.994 2.37 6.909 2.007 4.742 4.584 6.375 4.584 6.375s-5.172 2.263-11.147.334c-3.109-1.003-7.174-4.043-9.271-7.209-5.687-8.591-5.624-29.531-5.624-29.531z"/><path d="M195.583 7.625c-2.803 2.328-7.067 5.208-9.608 8.232C178.293 7.25 177.125 8.75 171.229 2c0 0 .077 21.524 5.054 30.545 2.47 4.475 5.68 6.044 8.289 6.49.78.202 7.664 1.709 12.137-6.842 4.747-9.075 4.977-30.318 4.977-30.318s-2.153 2.468-6.103 5.75z"/></g></svg>