<svg xmlns="http://www.w3.org/2000/svg" width="310.375" height="65"><path clip-rule="evenodd" fill="none" d="M-.709 44.231h320.356v43.936H-.709z"/><path fill="#8B9E00" d="M12.04 59.146L3.19 47.304v11.842H1.504V44.398h1.749l8.85 11.861V44.398h1.664v14.748H12.04zM19.9 44.86c0 .654-.464 1.139-1.075 1.139s-1.075-.484-1.075-1.139c0-.652.464-1.137 1.075-1.137s1.075.485 1.075 1.137zm-1.876 14.286V48.043h1.622v11.104h-1.622zm12.517-1.706c-.885 1.2-2.296 1.791-4.066 1.791-2.297 0-3.772-1.476-3.772-3.393 0-1.938 1.539-3.16 4.151-3.183H30.5v-.652c0-1.622-1.012-2.592-2.972-2.592-1.222 0-2.36.464-3.519 1.265l-.696-1.202c1.434-.947 2.633-1.495 4.531-1.495 2.739 0 4.256 1.454 4.277 3.835l.021 7.332H30.54V57.44zm-.021-2.128v-1.327h-3.455c-1.854 0-2.824.569-2.824 1.791 0 1.223.99 2.023 2.55 2.023 1.875 0 3.308-.948 3.729-2.487zm14.961 2.676c0 3.245-2.211 5.289-5.583 5.289-1.749-.021-3.203-.59-4.551-1.602l.758-1.266c1.096.906 2.255 1.393 3.73 1.412 2.423 0 4.003-1.474 4.003-3.792v-1.686c-.78 1.475-2.212 2.318-4.088 2.318-2.991 0-5.057-2.213-5.057-5.374 0-3.098 2.044-5.289 5.015-5.31 1.896 0 3.329.843 4.13 2.316V48.04h1.643v9.948zm-1.643-4.636c0-2.317-1.58-3.939-3.793-3.939-2.233 0-3.793 1.644-3.813 3.939.021 2.277 1.58 3.92 3.813 3.92 2.213-.001 3.793-1.643 3.793-3.92zm12.264 4.088c-.885 1.2-2.296 1.791-4.067 1.791-2.297 0-3.772-1.476-3.772-3.393 0-1.938 1.539-3.16 4.15-3.183h3.646v-.652c0-1.622-1.011-2.592-2.971-2.592-1.222 0-2.36.464-3.519 1.265l-.695-1.202c1.433-.947 2.634-1.495 4.531-1.495 2.739 0 4.256 1.454 4.277 3.835l.02 7.332h-1.601V57.44zm-.021-2.128v-1.327h-3.456c-1.854 0-2.824.569-2.824 1.791 0 1.223.99 2.023 2.549 2.023 1.876 0 3.309-.948 3.731-2.487zm6.933-4.803c.738-1.623 2.108-2.509 3.982-2.529v1.664c-2.339-.042-3.792 1.412-3.982 3.604v5.899H61.37V48.043h1.644v2.466zm12.558 6.931c-.886 1.2-2.296 1.791-4.067 1.791-2.296 0-3.772-1.476-3.772-3.393 0-1.938 1.539-3.16 4.151-3.183h3.646v-.652c0-1.622-1.011-2.592-2.972-2.592-1.222 0-2.36.464-3.519 1.265l-.695-1.202c1.433-.947 2.634-1.495 4.53-1.495 2.739 0 4.256 1.454 4.278 3.835l.021 7.332h-1.601V57.44zm-.021-2.128v-1.327h-3.455c-1.854 0-2.824.569-2.824 1.791 0 1.223.99 2.023 2.55 2.023 1.875 0 3.308-.948 3.729-2.487zm15.782-9.292v13.127h-1.686V46.02h-4.803v-1.621H96.16v1.621h-4.827zm7.63 4.489c.738-1.623 2.107-2.509 3.982-2.529v1.664c-2.338-.042-3.792 1.412-3.982 3.604v5.899h-1.644V48.043h1.644v2.466zm15.762 3.728h-9.061c.295 2.171 1.876 3.54 4.025 3.54 1.369 0 2.57-.484 3.435-1.391l.906.969c-1.054 1.181-2.613 1.854-4.467 1.854-3.267 0-5.521-2.296-5.521-5.604 0-3.31 2.276-5.605 5.499-5.605 3.583-.021 5.352 2.467 5.184 6.237zm-1.476-1.348c-.105-2.128-1.537-3.477-3.708-3.477-2.106 0-3.624 1.37-3.877 3.477h7.585zm13.866 1.348h-9.061c.295 2.171 1.876 3.54 4.025 3.54 1.369 0 2.57-.484 3.435-1.391l.905.969c-1.053 1.181-2.612 1.854-4.466 1.854-3.266 0-5.521-2.296-5.521-5.604 0-3.31 2.276-5.605 5.5-5.605 3.583-.021 5.352 2.467 5.183 6.237zm-1.474-1.348c-.105-2.128-1.538-3.477-3.708-3.477-2.107 0-3.624 1.37-3.877 3.477h7.585zm18.248 4.088c-1.348 1.434-2.907 2.255-4.572 2.255-2.444 0-4.383-1.728-4.383-4.045 0-2.15 1.623-3.267 3.351-4.194-1.011-1.307-1.517-2.401-1.517-3.476 0-1.854 1.454-3.182 3.604-3.182 2.043 0 3.413 1.222 3.413 2.97 0 2.002-1.813 3.035-3.645 4.003.906 1.055 2.106 2.276 3.582 3.73.569-.801 1.075-1.77 1.518-2.865l1.116.863c-.484 1.117-1.033 2.106-1.664 2.95l2.549 2.508-.885.927-2.467-2.444zm-.948-.95c-1.622-1.621-2.95-2.97-3.94-4.128-1.454.8-2.676 1.685-2.676 3.16 0 1.664 1.349 2.823 3.055 2.823 1.265.001 2.487-.673 3.561-1.855zm-3.54-5.604c1.622-.843 3.034-1.642 3.034-3.118 0-1.096-.801-1.833-2.064-1.833-1.37 0-2.255.886-2.255 2.022 0 .864.443 1.792 1.285 2.929zm27.773 1.517v5.353c-1.454 1.158-3.498 1.938-5.479 1.938-4.277 0-7.689-3.309-7.689-7.459 0-4.151 3.434-7.418 7.775-7.418 2.042 0 4.024.779 5.435 2.023l-.968 1.265a6.781 6.781 0 00-4.467-1.707c-3.371 0-6.069 2.592-6.069 5.837 0 3.266 2.717 5.857 6.089 5.857 1.329 0 2.74-.464 3.878-1.243V51.94h1.495zm10.748 5.5c-.885 1.2-2.298 1.791-4.067 1.791-2.298 0-3.772-1.476-3.772-3.393 0-1.938 1.539-3.16 4.15-3.183h3.646v-.652c0-1.622-1.012-2.592-2.972-2.592-1.223 0-2.36.464-3.519 1.265l-.695-1.202c1.433-.947 2.636-1.495 4.53-1.495 2.738 0 4.257 1.454 4.279 3.835l.019 7.332h-1.6V57.44zm-.023-2.128v-1.327h-3.454c-1.855 0-2.824.569-2.824 1.791 0 1.223.989 2.023 2.549 2.023 1.875 0 3.309-.948 3.729-2.487zm6.935-4.803c.736-1.623 2.106-2.509 3.981-2.529v1.664c-2.339-.042-3.793 1.412-3.981 3.604v5.899h-1.646V48.043h1.646v2.466zm16.393 8.637h-1.644v-2.381c-.821 1.56-2.338 2.466-4.319 2.466-3.161 0-5.352-2.339-5.352-5.647 0-3.329 2.19-5.625 5.329-5.625 1.982 0 3.521.905 4.342 2.486v-6.933h1.644v15.634zm-1.644-5.519c0-2.424-1.664-4.172-4.004-4.172-2.359 0-4.024 1.748-4.024 4.172 0 2.4 1.665 4.129 4.024 4.129 2.34 0 4.004-1.729 4.004-4.129zm15.32.61h-9.062c.295 2.171 1.876 3.54 4.025 3.54 1.368 0 2.57-.484 3.435-1.391l.905.969c-1.055 1.181-2.613 1.854-4.466 1.854-3.268 0-5.521-2.296-5.521-5.604 0-3.31 2.276-5.605 5.499-5.605 3.584-.021 5.352 2.467 5.185 6.237zm-1.475-1.348c-.105-2.128-1.538-3.477-3.709-3.477-2.106 0-3.624 1.37-3.877 3.477h7.586zm14.455-.59v6.848h-1.643v-6.404c0-1.96-1.181-3.119-3.14-3.119-2.191.021-3.54 1.455-3.729 3.562v5.962h-1.645V48.043h1.645v2.443c.779-1.686 2.276-2.486 4.299-2.507 2.654 0 4.213 1.644 4.213 4.32zm18.733-6.596l-.717 1.581a7.619 7.619 0 00-4.067-1.243c-1.896 0-3.139.717-3.139 1.959 0 3.794 8.301 1.813 8.282 7.165 0 2.465-2.171 4.045-5.332 4.045-2.15 0-4.257-.927-5.648-2.254l.761-1.518c1.368 1.327 3.244 2.087 4.908 2.087 2.129 0 3.455-.865 3.455-2.277.022-3.877-8.279-1.811-8.279-7.1 0-2.318 2.045-3.813 5.098-3.813 1.707 0 3.457.547 4.678 1.368zm13.149 8.534h-9.06c.295 2.171 1.875 3.54 4.023 3.54 1.371 0 2.571-.484 3.437-1.391l.905.969c-1.054 1.181-2.613 1.854-4.468 1.854-3.267 0-5.521-2.296-5.521-5.604 0-3.31 2.275-5.605 5.499-5.605 3.585-.021 5.355 2.467 5.185 6.237zm-1.476-1.348c-.105-2.128-1.537-3.477-3.708-3.477-2.106 0-3.623 1.37-3.876 3.477h7.584zm5.943-2.38c.739-1.623 2.109-2.509 3.984-2.529v1.664c-2.339-.042-3.793 1.412-3.984 3.604v5.899h-1.643V48.043h1.643v2.466zm9.274 8.637l-4.403-11.104h1.749l3.538 9.397 3.521-9.397h1.664l-4.362 11.104h-1.707zm9.883-14.286c0 .654-.464 1.139-1.075 1.139-.61 0-1.073-.484-1.073-1.139 0-.652.463-1.137 1.073-1.137.611.001 1.075.485 1.075 1.137zm-1.876 14.286V48.043h1.623v11.104h-1.623zm14.286-9.502l-.906 1.159c-.842-.8-1.959-1.285-3.307-1.285-2.298 0-3.941 1.665-3.941 4.088 0 2.422 1.644 4.108 3.941 4.108 1.453 0 2.654-.505 3.434-1.433l.949 1.012c-.99 1.201-2.53 1.917-4.447 1.917-3.223 0-5.499-2.296-5.499-5.604 0-3.31 2.297-5.605 5.499-5.605 1.792-.022 3.265.59 4.277 1.643zm12.2 4.593h-9.062c.297 2.171 1.878 3.54 4.027 3.54 1.367 0 2.57-.484 3.433-1.391l.907.969c-1.055 1.181-2.613 1.854-4.467 1.854-3.267 0-5.521-2.296-5.521-5.604 0-3.31 2.277-5.605 5.5-5.605 3.581-.021 5.351 2.467 5.183 6.237zm-1.475-1.348c-.104-2.128-1.538-3.477-3.708-3.477-2.107 0-3.625 1.37-3.879 3.477h7.587z"/><path d="M206.59 13.657s-3.483-1.459-3.483-3.476 3.483-3.527 3.483-3.527 3.484 1.605 3.484 3.527-3.484 3.476-3.484 3.476zm-2.488 24.808V18.062c0-2.736 4.927-3.062 4.927-3.062v19.844s0 3.621-2.561 3.621h-2.366zm47.461 0c-2.797 0-2.766-3.465-2.766-3.465V24.31c0-.629-.141-1.233-.424-1.813a4.718 4.718 0 00-1.169-1.515 5.676 5.676 0 00-1.742-1.018 6.066 6.066 0 00-2.14-.373 6.862 6.862 0 00-3.484.918 7.87 7.87 0 00-2.588 2.359v11.568s.125 4.027-2.625 4.027h-2.353V3.7h1.54c3.938 0 3.438 3.237 3.438 3.237v9.376a12.464 12.464 0 012.887-1.241 11.558 11.558 0 013.234-.447c1.394 0 2.713.257 3.957.77a10.974 10.974 0 013.311 2.11 10.27 10.27 0 012.289 3.104 8.446 8.446 0 01.846 3.7v14.155l-2.211.001zM26.149 36.181c-1.13-1.408-19.817-23.434-19.817-23.434v23.285c0 1.422-.504 2.473-2.082 2.473-1.219 0-2.746.012-2.746.012V3.7h.913c3.917 0 6.599 3.814 6.599 3.814l19.066 23.053V3.7s4.877 0 4.877 2.987v31.777h-1.806c-2.809.001-3.874-.875-5.004-2.283zM53.43 18.475c-.68-1.341-1.509-2.359-2.488-3.054a8.02 8.02 0 00-3.136-1.366c-1.112-.215-2.099-.323-2.961-.323-1.162 0-2.413.076-3.633.571-4.915 1.994-4.87 5.476-4.979 5.932-.149.619-.003 2.036-.003 2.036 1.394-1.258 3.042-2.373 4.335-2.853 1.294-.48 2.654-.72 4.081-.72.963 0 1.759.116 2.39.348.63.231 1.128.571 1.493 1.018.365.446.614 1.009.747 1.688.132.679.199 1.448.199 2.309-2.588 0-4.77.215-6.545.646-1.775.43-3.218 1.009-4.33 1.737-1.112.729-1.908 1.59-2.389 2.583a7.092 7.092 0 00-.722 3.128c0 .961.215 1.846.647 2.658.431.811 1.012 1.531 1.742 2.16s1.584 1.117 2.563 1.465a9.366 9.366 0 003.16.521c.896 0 1.883-.15 2.961-.447a10.369 10.369 0 002.912-1.291s.229 1.242 1.401 1.242h3.576v-14.65c0-2.218-.34-3.998-1.021-5.338zm-3.956 14.724c-.664.396-1.402.721-2.215.969s-1.584.373-2.314.373c-1.294 0-2.397-.15-3.31-.447-.912-.299-1.368-.977-1.368-2.037 0-.729.24-1.324.721-1.788.482-.463 1.137-.819 1.966-1.067s1.809-.422 2.937-.521c1.128-.1 2.323-.149 3.583-.149v4.667zM64.942 19.84v9.784c0 1.291.332 2.351.995 3.179.664.826 1.494 1.242 2.489 1.242.863 0 1.792-.158 2.788-.473.995-.314 3.269-1.756 3.269-1.756s.081 1.309-.658 3.073c-.747 1.785-2.333 3.309-4.783 3.693-1.18.186-2.921.228-3.95-.169s-1.925-.951-2.688-1.664a7.716 7.716 0 01-1.792-2.508c-.431-.961-.646-2.002-.646-3.129V19.84h-2.215c-3.25 0-2.713-4.966-2.713-4.966h4.928v-4.718h3.452c1.85 0 1.525 4.718 1.525 4.718h6.683c2.667 0 2.321 4.966 2.321 4.966h-9.005zm156.312 0v9.784c0 1.291.332 2.351.994 3.179.664.826 1.494 1.242 2.489 1.242.862 0 1.792-.158 2.788-.473a8.963 8.963 0 002.637-1.316s.672 3.661-4.475 5.869c-1.098.471-3.256.686-4.285.289a8.23 8.23 0 01-2.688-1.664 7.73 7.73 0 01-1.792-2.508c-.431-.961-.646-2.002-.646-3.129V19.84h-2.215c-3.25 0-2.713-4.966-2.713-4.966h4.928v-4.718h3.452c1.85 0 1.525 4.718 1.525 4.718h6.683c2.667 0 2.321 4.966 2.321 4.966h-9.003zM95.344 38.465c-1.5 0-1.985-1.49-1.985-1.49-1.925 1.324-4.032 1.986-6.321 1.986-1.029 0-2.14-.166-3.334-.496a9.901 9.901 0 01-3.359-1.689c-1.046-.795-1.916-1.846-2.613-3.154-.697-1.307-1.045-2.922-1.045-4.842V14.874h1.814c1.592 0 3.162.313 3.162 2.095v10.917c0 .828.142 1.598.423 2.309a5.829 5.829 0 001.169 1.862c.498.531 1.07.943 1.717 1.242a4.891 4.891 0 002.065.447c1.195 0 2.331-.141 3.409-.422a9.143 9.143 0 002.912-1.316V17.344c0-2.53 2.36-2.47 3.485-2.47h1.492v23.591h-2.991zm189.5 0c-1.5 0-1.984-1.49-1.984-1.49-1.926 1.324-4.032 1.986-6.322 1.986-1.028 0-2.139-.166-3.334-.496a9.901 9.901 0 01-3.359-1.689c-1.046-.795-1.916-1.846-2.613-3.154-.697-1.307-1.045-2.922-1.045-4.842V14.874h1.814c1.592 0 3.162.313 3.162 2.095v10.917c0 .828.142 1.598.424 2.309a5.812 5.812 0 001.169 1.862c.498.531 1.07.943 1.718 1.242a4.887 4.887 0 002.064.447c1.195 0 2.332-.141 3.41-.422s2.049-.721 2.912-1.316V17.344c0-2.53 2.359-2.47 3.484-2.47h1.492v23.591h-2.992zM113.5 20.25c-2.063-1.281-4.127-.311-4.625-.063-.498.248-1.37 1.085-1.802 1.565-.431.48-.829 1.117-1.194 1.912v12.711c0 1.191-1.598 2.09-2.941 2.09h-1.986V14.874h2.956c1.551 0 2.021 1.987 2.021 1.987 1.858-1.49 3.614-2.061 5.533-1.912 1.604.125 2.664.697 3.726 2.113 1.287 1.716.792 5.075.792 5.075s-1.131-1.049-2.48-1.887zM139.563 26c1.246-1.454 1.408-3.197.828-4.918-.581-1.721-1.435-3.128-2.563-4.221a10.149 10.149 0 00-3.981-2.384 15.019 15.019 0 00-4.679-.745c-1.692 0-3.276.323-4.753.969a12.774 12.774 0 00-3.882 2.607 12.303 12.303 0 00-2.638 3.824 11.372 11.372 0 00-.971 4.668c0 1.788.34 3.484 1.021 5.091.681 1.605 1.601 3.004 2.762 4.195 1.162 1.193 2.53 2.137 4.106 2.832s5.5 1.271 7.588.773c4.129-.983 5.264-2.383 6.246-3.691 1.125-1.5.674-3.986.674-3.986-1.062.895-2.348 1.623-3.857 2.186-1.51.563-3.127.846-4.853.846-1.062 0-2.074-.176-3.036-.523s-1.817-.818-2.563-1.414a8.365 8.365 0 01-2.962-4.818h12.888c2.083 0 3.625-.124 4.625-1.291zm-17.542-2.875c.563-1.159 1.87-2.73 3.065-3.508a7.067 7.067 0 014.031-1.167c3.82.05 5.474 1.082 6.529 2.634.708 1.042.833 1.782-.833 2.042-1.065.165-12.792-.001-12.792-.001zm185.933 11.912c-.548 1.025-1.277 1.854-2.19 2.482-.912.629-1.99 1.076-3.234 1.342s-2.57.534-3.957.396c-2.988-.297-6.551-1.383-7.955-4.903-1.06-2.656-.755-5.128-.755-5.128a8.792 8.792 0 003.484 3.725c1.525.895 3.234 1.342 5.126 1.342.266 0 .697-.01 1.294-.025a6.75 6.75 0 001.792-.299 4.603 4.603 0 001.593-.844c.464-.381.696-.951.696-1.713 0-.695-.34-1.217-1.02-1.565-.681-.348-1.535-.638-2.563-.869l-3.335-.745a13.722 13.722 0 01-3.334-1.192 7.237 7.237 0 01-2.563-2.186c-.681-.927-1.021-2.201-1.021-3.823 0-.994.224-1.929.672-2.807a7.627 7.627 0 011.816-2.309 8.64 8.64 0 012.688-1.565 9.407 9.407 0 013.285-.57c1.493 0 2.91.155 4.194.802 1.587.799 2.501 1.491 3.376 2.875s.542 4.368.542 4.368c-.962-.927-2.14-1.672-3.533-2.235s-2.92-.844-4.579-.844c-.963 0-1.783.149-2.464.447-.68.298-1.021.91-1.021 1.838 0 .794.341 1.39 1.021 1.787.681.397 1.535.721 2.563.969 1.028.249 2.132.497 3.31.745s2.281.621 3.31 1.117a7.206 7.206 0 012.563 2.036c.681.861 1.021 2.037 1.021 3.526-.001 1.524-.274 2.8-.822 3.825z" fill="#645F68"/><path fill-rule="evenodd" clip-rule="evenodd" fill="#BC9906" d="M149.667 3.375s3.742.439 7.271 3.279c1.712 1.377 3.949 3.544 6.161 6.002.392.436 1.117-1.606 1.504-1.156 3.174 3.695 5.758 10.307 6.736 13.341.861 2.67 1.56 4.994 2.37 6.909 2.007 4.742 4.584 6.375 4.584 6.375s-5.172 2.263-11.147.334c-3.109-1.003-7.174-4.043-9.271-7.209-1.924-2.905-4.792-8.432-5.625-12.875-.107-.571 1.304.072 1.302-.508-.052-11.492-3.885-14.492-3.885-14.492z"/><path fill="#8B9E00" d="M200.142 20.108c-.017-12.858 3.96-16.733 3.96-16.733s-4.568.968-8.519 4.25c-1.883 1.564-4.427 3.378-6.664 5.318-.516.447-.806-3.247-1.277-2.787-.526.512-2.767 5.219-5.434 8.594-3.292 4.166-6.327 8.877-5.447 13.375.975 4.981 5.202 6.464 7.812 6.91.78.202 7.664 1.709 12.137-6.842 1.217-2.325 4.297-8.354 4.992-11.715.222-1.073-1.559.748-1.56-.37z"/><path fill="#BCBC1D" d="M183.875 13.417c.088-.407-7.014-4.969-12.646-11.417 0 0 .015 4.179.456 9.627.038.466-1.813-.485-1.769-.002.519 5.644 2.852 13.313 5.129 18.398 1.372-5.398 2.528-6.624 4.973-9.96 2.076-2.833 3.545-5.206 3.857-6.646z"/><path fill="#DDCC83" d="M176.418 36.325a16.374 16.374 0 01-1.257-1.76c-2.907-3.085-10.559-9.649-10.559-9.649 5.798 9.011 9.443 10.32 11.816 11.409z"/><path fill="#CACC71" d="M180.574 37.615c.598.357 1.216.638 1.818.854 5.563-5.658 7.969-13.553 7.969-13.553-2.941 6.262-8.133 11.226-9.787 12.699z"/></svg>