<?xml version="1.0" encoding="utf-8"?>
<!-- Generator: Adobe Illustrator 16.0.0, SVG Export Plug-In . SVG Version: 6.00 Build 0)  -->
<!DOCTYPE svg PUBLIC "-//W3C//DTD SVG 1.1//EN" "http://www.w3.org/Graphics/SVG/1.1/DTD/svg11.dtd">
<svg version="1.1" xmlns="http://www.w3.org/2000/svg" xmlns:xlink="http://www.w3.org/1999/xlink" x="0px" y="0px"
	 width="310.375px" height="65px" viewBox="0 0 310.375 65" enable-background="new 0 0 310.375 65" xml:space="preserve">
<g id="logo" display="none">
	
		<rect x="-0.709" y="44.231" display="inline" fill-rule="evenodd" clip-rule="evenodd" fill="none" width="320.356" height="43.936"/>
	
		<text transform="matrix(1 0 0 1 -0.7095 59.9023)" display="inline" fill="#8B9E00" font-family="'Montserrat-Light'" font-size="21.12">Niagara Tree &amp; Garden Service</text>
	<path id="text_original" fill="#9B9B9B" d="M208.402,12.242l-3.483-3.476l3.483-3.527l3.484,3.527L208.402,12.242L208.402,12.242z
		 M210.842,38.465h-4.928V14.923h4.928V38.465L210.842,38.465z M223.781,19.84v9.784c0,1.291,0.332,2.351,0.995,3.179
		c0.664,0.826,1.494,1.242,2.489,1.242c0.862,0,1.791-0.158,2.787-0.473c0.995-0.314,1.874-0.754,2.638-1.316v5.016
		c-0.764,0.529-1.643,0.951-2.638,1.266c-0.996,0.316-1.925,0.473-2.787,0.473c-1.195,0-2.307-0.199-3.335-0.596
		s-1.925-0.951-2.688-1.664c-0.763-0.711-1.36-1.547-1.792-2.508c-0.431-0.961-0.646-2.002-0.646-3.129V19.84h-4.928v-4.966h4.928
		v-4.718h4.977v4.718h10.004v4.966H223.781L223.781,19.84z M252.797,38.465V24.31c0-0.629-0.141-1.233-0.424-1.813
		c-0.281-0.579-0.672-1.084-1.169-1.515c-0.498-0.43-1.078-0.77-1.742-1.018c-0.664-0.248-1.377-0.373-2.14-0.373
		c-1.261,0-2.423,0.307-3.484,0.918c-1.063,0.613-1.925,1.399-2.588,2.359v15.595h-4.978V3.7h4.978v12.614
		c0.896-0.529,1.857-0.943,2.887-1.241c1.028-0.298,2.106-0.447,3.234-0.447c1.394,0,2.713,0.257,3.957,0.77
		c1.245,0.513,2.348,1.217,3.311,2.11c0.962,0.894,1.725,1.929,2.289,3.104c0.564,1.175,0.846,2.408,0.846,3.7v14.155H252.797
		L252.797,38.465z M26.232,38.465L4.582,11.497v26.968h-4.828V3.7h4.978l21.601,26.867V3.7h4.877v34.765H26.232L26.232,38.465z
		 M49.474,38.465v-1.242c-0.863,0.563-1.833,0.992-2.912,1.291c-1.078,0.297-2.065,0.447-2.961,0.447
		c-1.128,0-2.182-0.174-3.16-0.521c-0.979-0.348-1.833-0.836-2.563-1.465s-1.311-1.35-1.742-2.16
		c-0.432-0.813-0.647-1.697-0.647-2.658c0-1.092,0.24-2.135,0.722-3.128c0.481-0.993,1.277-1.854,2.389-2.583
		c1.112-0.728,2.555-1.308,4.33-1.737c1.775-0.431,3.957-0.646,6.545-0.646c0-0.861-0.066-1.63-0.199-2.309
		c-0.133-0.679-0.382-1.242-0.747-1.688c-0.365-0.447-0.863-0.787-1.493-1.018c-0.631-0.232-1.427-0.348-2.39-0.348
		c-1.426,0-2.787,0.24-4.081,0.72c-1.294,0.48-2.638,1.349-4.032,2.607h-0.498l1.892-6.257c0.929-0.596,2.024-1.084,3.285-1.464
		c1.261-0.381,2.472-0.571,3.633-0.571c0.862,0,1.85,0.107,2.961,0.323c1.111,0.215,2.157,0.67,3.136,1.366
		c0.979,0.695,1.808,1.713,2.488,3.054c0.681,1.341,1.021,3.121,1.021,5.339v14.651H49.474L49.474,38.465z M49.474,28.531
		c-1.261,0-2.456,0.05-3.583,0.149c-1.128,0.099-2.107,0.273-2.937,0.521s-1.484,0.604-1.966,1.067
		c-0.481,0.463-0.721,1.059-0.721,1.788c0,1.061,0.456,1.738,1.368,2.037c0.913,0.297,2.016,0.447,3.31,0.447
		c0.73,0,1.501-0.125,2.314-0.373s1.551-0.572,2.215-0.969V28.531L49.474,28.531z M66.942,19.84v9.784
		c0,1.291,0.332,2.351,0.995,3.179c0.664,0.826,1.494,1.242,2.489,1.242c0.863,0,1.792-0.158,2.788-0.473
		c0.995-0.314,1.875-0.754,2.638-1.316v5.016c-0.763,0.529-1.643,0.951-2.638,1.266c-0.996,0.316-1.925,0.473-2.788,0.473
		c-1.194,0-2.306-0.199-3.334-0.596s-1.925-0.951-2.688-1.664c-0.763-0.711-1.36-1.547-1.792-2.508
		c-0.431-0.961-0.646-2.002-0.646-3.129V19.84h-4.928v-4.966h4.928v-4.718h4.977v4.718h10.004v4.966H66.942L66.942,19.84z
		 M95.609,38.465v-1.49c-1.925,1.324-4.032,1.986-6.321,1.986c-1.029,0-2.14-0.166-3.334-0.496
		c-1.195-0.332-2.314-0.895-3.359-1.689c-1.046-0.795-1.916-1.846-2.613-3.154c-0.697-1.307-1.045-2.922-1.045-4.842V14.874h4.977
		v13.012c0,0.828,0.142,1.598,0.423,2.309c0.282,0.711,0.672,1.333,1.169,1.862c0.498,0.531,1.07,0.943,1.717,1.242
		c0.647,0.297,1.335,0.447,2.065,0.447c1.195,0,2.331-0.141,3.409-0.422c1.079-0.281,2.049-0.721,2.912-1.316V14.874h4.977v23.591
		H95.609L95.609,38.465z M117.507,20.337c-0.83-0.199-1.46-0.298-1.892-0.298c-0.531,0-1.054,0.042-1.568,0.124
		c-0.515,0.083-1.02,0.248-1.518,0.497c-0.498,0.248-0.962,0.613-1.394,1.093c-0.431,0.48-0.829,1.117-1.194,1.912v14.801h-4.927
		V14.874h4.977v1.987c1.858-1.49,3.75-2.235,5.674-2.235c0.863,0,1.667,0.107,2.414,0.323c0.746,0.215,1.451,0.504,2.115,0.869
		v6.307C119.231,21.132,118.336,20.536,117.507,20.337L117.507,20.337z M145.676,27.29h-18.814c0.2,0.959,0.556,1.854,1.07,2.682
		c0.514,0.827,1.145,1.54,1.892,2.136c0.746,0.596,1.601,1.066,2.563,1.414s1.974,0.523,3.036,0.523
		c1.726,0,3.343-0.283,4.853-0.846c1.509-0.563,2.795-1.291,3.857-2.186v5.166c-1.361,0.861-2.845,1.539-4.455,2.035
		c-1.609,0.498-3.276,0.746-5.002,0.746c-1.792,0-3.475-0.348-5.051-1.043s-2.945-1.639-4.106-2.832
		c-1.161-1.191-2.082-2.59-2.762-4.195c-0.68-1.606-1.021-3.303-1.021-5.091c0-1.655,0.324-3.211,0.971-4.668
		c0.647-1.457,1.526-2.732,2.638-3.824c1.111-1.093,2.406-1.962,3.882-2.607c1.477-0.646,3.061-0.969,4.753-0.969
		c1.593,0,3.153,0.248,4.679,0.745c1.526,0.497,2.854,1.291,3.981,2.384c1.128,1.092,1.983,2.5,2.563,4.221
		C145.783,22.803,145.941,24.873,145.676,27.29L145.676,27.29z M139.504,20.982c-0.332-0.497-0.771-0.927-1.319-1.291
		c-0.548-0.364-1.187-0.663-1.917-0.894c-0.729-0.232-1.51-0.348-2.339-0.348c-1.494,0-2.837,0.389-4.031,1.167
		c-1.195,0.778-2.074,1.746-2.638,2.905h12.741C140.001,21.992,139.835,21.479,139.504,20.982L139.504,20.982z M282.57,38.465v-1.49
		c-1.925,1.324-4.032,1.986-6.321,1.986c-1.028,0-2.141-0.166-3.335-0.496c-1.194-0.332-2.314-0.895-3.359-1.689
		s-1.916-1.846-2.613-3.154c-0.697-1.307-1.045-2.922-1.045-4.842V14.874h4.978v13.012c0,0.828,0.141,1.598,0.423,2.309
		c0.281,0.711,0.672,1.333,1.169,1.862c0.498,0.531,1.07,0.943,1.718,1.242c0.646,0.297,1.335,0.447,2.065,0.447
		c1.194,0,2.331-0.141,3.409-0.422s2.049-0.721,2.912-1.316V14.874h4.977v23.591H282.57L282.57,38.465z M309.37,35.037
		c-0.548,1.025-1.277,1.854-2.19,2.482c-0.912,0.629-1.99,1.076-3.234,1.342s-2.563,0.396-3.957,0.396
		c-1.692,0-3.276-0.289-4.753-0.869c-1.478-0.578-2.796-1.398-3.957-2.457v-6.705c0.796,1.59,1.958,2.83,3.484,3.725
		c1.525,0.895,3.234,1.342,5.126,1.342c0.266,0,0.697-0.01,1.294-0.025c0.598-0.018,1.194-0.115,1.792-0.299
		c0.597-0.182,1.128-0.463,1.593-0.844c0.464-0.381,0.696-0.951,0.696-1.713c0-0.695-0.34-1.217-1.02-1.565
		c-0.681-0.348-1.535-0.638-2.563-0.869l-3.335-0.745c-1.194-0.265-2.307-0.662-3.334-1.192c-1.029-0.53-1.884-1.258-2.563-2.186
		c-0.681-0.927-1.021-2.201-1.021-3.823c0-0.994,0.224-1.929,0.672-2.807c0.447-0.877,1.053-1.646,1.816-2.309
		c0.764-0.662,1.659-1.184,2.688-1.565c1.029-0.38,2.124-0.57,3.285-0.57c1.493,0,2.929,0.207,4.306,0.621s2.646,0.985,3.807,1.713
		v5.711c-0.962-0.927-2.14-1.672-3.533-2.235s-2.92-0.844-4.579-0.844c-0.963,0-1.783,0.149-2.464,0.447
		c-0.68,0.298-1.021,0.91-1.021,1.838c0,0.794,0.341,1.39,1.021,1.787c0.681,0.397,1.535,0.721,2.563,0.969
		c1.028,0.249,2.132,0.497,3.31,0.745c1.178,0.248,2.281,0.621,3.31,1.117c1.029,0.497,1.883,1.175,2.563,2.036
		c0.681,0.861,1.021,2.037,1.021,3.526C310.191,32.736,309.918,34.012,309.37,35.037L309.37,35.037z"/>
	<g id="text" display="inline">
		<path fill="#4C4C4C" d="M206.59,13.657c0,0-3.483-1.459-3.483-3.476s3.483-3.527,3.483-3.527s3.484,1.605,3.484,3.527
			S206.59,13.657,206.59,13.657L206.59,13.657z"/>
		<path fill="#4C4C4C" d="M204.102,38.465c0,0,0-17.667,0-20.403S209.029,15,209.029,15v19.844c0,0,0,3.621-2.561,3.621
			C204.283,38.465,204.102,38.465,204.102,38.465z"/>
		<path fill="#4C4C4C" d="M251.563,38.465c-2.797,0-2.766-3.465-2.766-3.465V24.31c0-0.629-0.141-1.233-0.424-1.813
			c-0.281-0.579-0.672-1.084-1.169-1.515c-0.498-0.43-1.078-0.77-1.742-1.018c-0.664-0.248-1.377-0.373-2.14-0.373
			c-1.261,0-2.423,0.307-3.484,0.918c-1.063,0.613-1.925,1.399-2.588,2.359v11.568c0,0,0.125,4.027-2.625,4.027
			c-1.813,0-2.353,0-2.353,0V3.7c0,0,0.77,0,1.54,0c3.938,0,3.438,3.237,3.438,3.237v9.376c0.896-0.529,1.857-0.943,2.887-1.241
			c1.028-0.298,2.106-0.447,3.234-0.447c1.394,0,2.713,0.257,3.957,0.77c1.245,0.513,2.348,1.217,3.311,2.11
			c0.962,0.894,1.725,1.929,2.289,3.104c0.564,1.175,0.846,2.408,0.846,3.7v14.155C253.773,38.465,253.438,38.465,251.563,38.465z"
			/>
		<path fill="#4C4C4C" d="M26.149,36.181c-1.13-1.408-19.817-23.434-19.817-23.434s0,21.66,0,23.285
			c0,1.422-0.504,2.473-2.082,2.473c-1.219,0-2.746,0.012-2.746,0.012V3.7c0,0,0.129,0,0.913,0c3.917,0,6.599,3.814,6.599,3.814
			l19.066,23.053V3.7c0,0,4.877,0,4.877,2.987c0,1.737,0,31.777,0,31.777c-1.806,0-0.136,0-1.806,0
			C28.344,38.465,27.279,37.589,26.149,36.181z"/>
		<path fill="#4C4C4C" d="M53.43,18.475c-0.68-1.341-1.509-2.359-2.488-3.054c-0.979-0.695-2.025-1.15-3.136-1.366
			c-1.112-0.215-2.099-0.323-2.961-0.323c-1.162,0-2.413,0.076-3.633,0.571c-4.915,1.994-4.87,5.476-4.979,5.932
			c-0.149,0.619-0.003,2.036-0.003,2.036c1.394-1.258,3.042-2.373,4.335-2.853c1.294-0.48,2.654-0.72,4.081-0.72
			c0.963,0,1.759,0.116,2.39,0.348c0.63,0.231,1.128,0.571,1.493,1.018c0.365,0.446,0.614,1.009,0.747,1.688
			c0.132,0.679,0.199,1.448,0.199,2.309c-2.588,0-4.77,0.215-6.545,0.646c-1.775,0.43-3.218,1.009-4.33,1.737
			c-1.112,0.729-1.908,1.59-2.389,2.583c-0.481,0.993-0.722,2.037-0.722,3.128c0,0.961,0.215,1.846,0.647,2.658
			c0.431,0.811,1.012,1.531,1.742,2.16s1.584,1.117,2.563,1.465c0.979,0.348,2.032,0.521,3.16,0.521c0.896,0,1.883-0.15,2.961-0.447
			c1.079-0.299,2.049-0.729,2.912-1.291c0,0,0.229,1.242,1.401,1.242c1.344,0,3.576,0,3.576,0V23.813
			C54.451,21.595,54.111,19.815,53.43,18.475z M49.474,33.199c-0.664,0.396-1.402,0.721-2.215,0.969s-1.584,0.373-2.314,0.373
			c-1.294,0-2.397-0.15-3.31-0.447c-0.912-0.299-1.368-0.977-1.368-2.037c0-0.729,0.24-1.324,0.721-1.788
			c0.482-0.463,1.137-0.819,1.966-1.067s1.809-0.422,2.937-0.521c1.128-0.1,2.323-0.149,3.583-0.149V33.199z"/>
		<path fill="#4C4C4C" d="M64.942,19.84v9.784c0,1.291,0.332,2.351,0.995,3.179c0.664,0.826,1.494,1.242,2.489,1.242
			c0.863,0,1.792-0.158,2.788-0.473c0.995-0.314,3.269-1.756,3.269-1.756s0.081,1.309-0.658,3.073
			c-0.747,1.785-2.333,3.309-4.783,3.693c-1.18,0.186-2.921,0.228-3.95-0.169s-1.925-0.951-2.688-1.664
			c-0.763-0.711-1.36-1.547-1.792-2.508c-0.431-0.961-0.646-2.002-0.646-3.129V19.84c-1.548,0,0.702,0-2.215,0
			c-3.25,0-2.713-4.966-2.713-4.966h4.928v-4.718c0,0,1.302,0,3.452,0c1.85,0,1.525,4.718,1.525,4.718s4.35,0,6.683,0
			c2.667,0,2.321,4.966,2.321,4.966H64.942L64.942,19.84z"/>
		<path fill="#4C4C4C" d="M221.254,19.84v9.784c0,1.291,0.332,2.351,0.994,3.179c0.664,0.826,1.494,1.242,2.489,1.242
			c0.862,0,1.792-0.158,2.788-0.473c0.994-0.314,1.874-0.754,2.637-1.316c0,0,0.672,3.661-4.475,5.869
			c-1.098,0.471-3.256,0.686-4.285,0.289c-1.028-0.396-1.924-0.951-2.688-1.664c-0.763-0.711-1.359-1.547-1.792-2.508
			c-0.431-0.961-0.646-2.002-0.646-3.129V19.84c-1.548,0,0.702,0-2.215,0c-3.25,0-2.713-4.966-2.713-4.966h4.928v-4.718
			c0,0,1.302,0,3.452,0c1.85,0,1.525,4.718,1.525,4.718s4.35,0,6.683,0c2.667,0,2.321,4.966,2.321,4.966H221.254L221.254,19.84z"/>
		<path fill="#4C4C4C" d="M95.344,38.465c-1.5,0-1.985-1.49-1.985-1.49c-1.925,1.324-4.032,1.986-6.321,1.986
			c-1.029,0-2.14-0.166-3.334-0.496c-1.195-0.332-2.314-0.895-3.359-1.689c-1.046-0.795-1.916-1.846-2.613-3.154
			c-0.697-1.307-1.045-2.922-1.045-4.842V14.874c0,0,0.75,0,1.814,0c1.592,0,3.162,0.313,3.162,2.095c0,1.157,0,10.917,0,10.917
			c0,0.828,0.142,1.598,0.423,2.309c0.282,0.711,0.672,1.333,1.169,1.862c0.498,0.531,1.07,0.943,1.717,1.242
			c0.647,0.297,1.335,0.447,2.065,0.447c1.195,0,2.331-0.141,3.409-0.422c1.079-0.281,2.049-0.721,2.912-1.316
			c0,0,0-12.134,0-14.664s2.36-2.47,3.485-2.47s1.492,0,1.492,0v23.591h-0.742C97.594,38.465,96.344,38.465,95.344,38.465z"/>
		<path fill="#4C4C4C" d="M284.844,38.465c-1.5,0-1.984-1.49-1.984-1.49c-1.926,1.324-4.032,1.986-6.322,1.986
			c-1.028,0-2.139-0.166-3.334-0.496c-1.195-0.332-2.314-0.895-3.359-1.689c-1.046-0.795-1.916-1.846-2.613-3.154
			c-0.697-1.307-1.045-2.922-1.045-4.842V14.874c0,0,0.75,0,1.814,0c1.592,0,3.162,0.313,3.162,2.095c0,1.157,0,10.917,0,10.917
			c0,0.828,0.142,1.598,0.424,2.309c0.281,0.711,0.672,1.333,1.169,1.862c0.498,0.531,1.07,0.943,1.718,1.242
			c0.646,0.297,1.335,0.447,2.064,0.447c1.195,0,2.332-0.141,3.41-0.422s2.049-0.721,2.912-1.316c0,0,0-12.134,0-14.664
			s2.359-2.47,3.484-2.47s1.492,0,1.492,0v23.591h-0.742C287.094,38.465,285.844,38.465,284.844,38.465z"/>
		<path fill="#4C4C4C" d="M113.5,20.25c-2.063-1.281-4.127-0.311-4.625-0.063c-0.498,0.248-1.37,1.085-1.802,1.565
			c-0.431,0.48-0.829,1.117-1.194,1.912c0,0,0,11.52,0,12.711s-1.598,2.09-2.941,2.09c-1.156,0-1.986,0-1.986,0V14.874
			c0,0,1.132,0,2.956,0c1.551,0,2.021,1.987,2.021,1.987c1.858-1.49,3.614-2.061,5.533-1.912c1.604,0.125,2.664,0.697,3.726,2.113
			c1.287,1.716,0.792,5.075,0.792,5.075S114.849,21.088,113.5,20.25z"/>
		<path fill="#4C4C4C" d="M139.563,26c1.246-1.454,1.408-3.197,0.828-4.918c-0.581-1.721-1.435-3.128-2.563-4.221
			c-1.128-1.093-2.455-1.888-3.981-2.384c-1.526-0.497-3.086-0.745-4.679-0.745c-1.692,0-3.276,0.323-4.753,0.969
			c-1.476,0.645-2.771,1.514-3.882,2.607c-1.112,1.092-1.991,2.367-2.638,3.824c-0.647,1.457-0.971,3.013-0.971,4.668
			c0,1.788,0.34,3.484,1.021,5.091c0.681,1.605,1.601,3.004,2.762,4.195c1.162,1.193,2.53,2.137,4.106,2.832s5.5,1.271,7.588,0.773
			c4.129-0.983,5.264-2.383,6.246-3.691c1.125-1.5,0.674-3.986,0.674-3.986c-1.062,0.895-2.348,1.623-3.857,2.186
			c-1.51,0.563-3.127,0.846-4.853,0.846c-1.062,0-2.074-0.176-3.036-0.523s-1.817-0.818-2.563-1.414
			c-0.747-0.596-1.377-1.309-1.892-2.136c-0.514-0.828-0.871-1.722-1.07-2.682c0,0,10.805,0,12.888,0S138.563,27.167,139.563,26z
			 M122.021,23.125c0.563-1.159,1.87-2.73,3.065-3.508c1.194-0.778,2.538-1.187,4.031-1.167c3.82,0.05,5.474,1.082,6.529,2.634
			c0.708,1.042,0.833,1.782-0.833,2.042C133.748,23.291,122.021,23.125,122.021,23.125z"/>
		<path fill="#4C4C4C" d="M307.954,35.037c-0.548,1.025-1.277,1.854-2.19,2.482c-0.912,0.629-1.99,1.076-3.234,1.342
			s-2.57,0.534-3.957,0.396c-2.988-0.297-6.551-1.383-7.955-4.903c-1.06-2.656-0.755-5.128-0.755-5.128
			c0.796,1.59,1.958,2.83,3.484,3.725c1.525,0.895,3.234,1.342,5.126,1.342c0.266,0,0.697-0.01,1.294-0.025
			c0.598-0.018,1.194-0.115,1.792-0.299c0.597-0.182,1.128-0.463,1.593-0.844c0.464-0.381,0.696-0.951,0.696-1.713
			c0-0.695-0.34-1.217-1.02-1.565c-0.681-0.348-1.535-0.638-2.563-0.869l-3.335-0.745c-1.194-0.265-2.307-0.662-3.334-1.192
			c-1.029-0.53-1.884-1.258-2.563-2.186c-0.681-0.927-1.021-2.201-1.021-3.823c0-0.994,0.224-1.929,0.672-2.807
			c0.447-0.877,1.053-1.646,1.816-2.309c0.764-0.662,1.659-1.184,2.688-1.565c1.029-0.38,2.124-0.57,3.285-0.57
			c1.493,0,2.91,0.155,4.194,0.802c1.587,0.799,2.501,1.491,3.376,2.875s0.542,4.368,0.542,4.368
			c-0.962-0.927-2.14-1.672-3.533-2.235s-2.92-0.844-4.579-0.844c-0.963,0-1.783,0.149-2.464,0.447
			c-0.68,0.298-1.021,0.91-1.021,1.838c0,0.794,0.341,1.39,1.021,1.787c0.681,0.397,1.535,0.721,2.563,0.969
			c1.028,0.249,2.132,0.497,3.31,0.745c1.178,0.248,2.281,0.621,3.31,1.117c1.029,0.497,1.883,1.175,2.563,2.036
			c0.681,0.861,1.021,2.037,1.021,3.526C308.775,32.736,308.502,34.012,307.954,35.037L307.954,35.037z"/>
	</g>
	<g id="flower" display="inline">
		<path fill-rule="evenodd" clip-rule="evenodd" fill="#8B9E00" d="M152.25,1.72c0,0,1.158,2.095,4.687,4.935
			c4.499,3.621,12.629,12.692,14.401,18.187c0.861,2.67,1.56,4.994,2.37,6.909c2.007,4.742,4.584,6.375,4.584,6.375
			s-5.172,2.263-11.147,0.334c-3.109-1.003-7.174-4.043-9.271-7.209C152.187,22.66,152.25,1.72,152.25,1.72z"/>
		<path fill="#8B9E00" d="M195.583,7.625c-2.803,2.328-7.067,5.208-9.608,8.232C178.293,7.25,177.125,8.75,171.229,2
			c0,0,0.077,21.524,5.054,30.545c2.47,4.475,5.68,6.044,8.289,6.49c0.78,0.202,7.664,1.709,12.137-6.842
			c4.747-9.075,4.977-30.318,4.977-30.318S199.533,4.343,195.583,7.625z"/>
	</g>
</g>
<g id="logo_web">
	<rect x="-0.709" y="44.231" fill-rule="evenodd" clip-rule="evenodd" fill="none" width="320.356" height="43.936"/>
	
		<text id="subtext_original" transform="matrix(1 0 0 1 -0.7095 59.9023)" display="none" fill="#8B9E00" font-family="'Montserrat-Light'" font-size="21.12">Niagara Tree &amp; Garden Service</text>
	<g>
		<path fill="#8B9E00" d="M12.088,59.902l-8.87-11.868v11.868H1.529V45.12h1.753l8.87,11.889V45.12h1.668v14.782H12.088z"/>
		<path fill="#8B9E00" d="M19.966,45.584c0,0.655-0.465,1.141-1.077,1.141s-1.077-0.485-1.077-1.141c0-0.654,0.465-1.14,1.077-1.14
			S19.966,44.93,19.966,45.584z M18.086,59.902V48.773h1.626v11.129H18.086z"/>
		<path fill="#8B9E00" d="M30.631,58.191c-0.888,1.204-2.302,1.796-4.076,1.796c-2.302,0-3.78-1.479-3.78-3.4
			c0-1.943,1.542-3.168,4.16-3.189h3.654v-0.654c0-1.626-1.014-2.598-2.979-2.598c-1.225,0-2.365,0.465-3.526,1.268l-0.697-1.204
			c1.437-0.95,2.64-1.499,4.541-1.499c2.745,0,4.266,1.457,4.287,3.844l0.021,7.349h-1.604V58.191z M30.61,56.059v-1.33h-3.463
			c-1.858,0-2.83,0.57-2.83,1.795s0.992,2.027,2.556,2.027C28.751,58.551,30.188,57.601,30.61,56.059z"/>
		<path fill="#8B9E00" d="M45.605,58.741c0,3.252-2.217,5.301-5.596,5.301c-1.753-0.021-3.21-0.592-4.562-1.605l0.76-1.268
			c1.099,0.908,2.26,1.395,3.738,1.415c2.429,0,4.013-1.478,4.013-3.801v-1.689c-0.782,1.479-2.218,2.323-4.098,2.323
			c-2.998,0-5.068-2.218-5.068-5.386c0-3.104,2.049-5.301,5.026-5.321c1.9,0,3.337,0.845,4.14,2.322v-2.259h1.646V58.741z
			 M43.958,54.095c0-2.323-1.584-3.949-3.802-3.949c-2.238,0-3.802,1.647-3.822,3.949c0.021,2.281,1.584,3.928,3.822,3.928
			C42.375,58.022,43.958,56.376,43.958,54.095z"/>
		<path fill="#8B9E00" d="M56.25,58.191c-0.887,1.204-2.302,1.796-4.076,1.796c-2.302,0-3.78-1.479-3.78-3.4
			c0-1.943,1.542-3.168,4.16-3.189h3.653v-0.654c0-1.626-1.014-2.598-2.978-2.598c-1.225,0-2.365,0.465-3.526,1.268l-0.697-1.204
			c1.437-0.95,2.641-1.499,4.541-1.499c2.745,0,4.266,1.457,4.287,3.844l0.021,7.349H56.25V58.191z M56.228,56.059v-1.33h-3.463
			c-1.858,0-2.83,0.57-2.83,1.795s0.992,2.027,2.555,2.027C54.37,58.551,55.806,57.601,56.228,56.059z"/>
		<path fill="#8B9E00" d="M63.177,51.244c0.739-1.626,2.112-2.514,3.991-2.534v1.668c-2.344-0.042-3.801,1.415-3.991,3.611v5.913
			H61.53V48.773h1.647V51.244z"/>
		<path fill="#8B9E00" d="M75.764,58.191c-0.888,1.204-2.302,1.796-4.076,1.796c-2.302,0-3.78-1.479-3.78-3.4
			c0-1.943,1.542-3.168,4.16-3.189h3.654v-0.654c0-1.626-1.014-2.598-2.979-2.598c-1.225,0-2.365,0.465-3.526,1.268l-0.697-1.204
			c1.437-0.95,2.64-1.499,4.541-1.499c2.745,0,4.266,1.457,4.287,3.844l0.021,7.349h-1.604V58.191z M75.743,56.059v-1.33H72.28
			c-1.858,0-2.83,0.57-2.83,1.795s0.992,2.027,2.556,2.027C73.884,58.551,75.321,57.601,75.743,56.059z"/>
		<path fill="#8B9E00" d="M91.561,46.746v13.156h-1.689V46.746h-4.814V45.12h11.341v1.626H91.561z"/>
		<path fill="#8B9E00" d="M99.208,51.244c0.739-1.626,2.112-2.514,3.991-2.534v1.668c-2.344-0.042-3.801,1.415-3.991,3.611v5.913
			H97.56V48.773h1.647V51.244z"/>
		<path fill="#8B9E00" d="M115.004,54.981h-9.081c0.296,2.176,1.88,3.548,4.034,3.548c1.372,0,2.576-0.485,3.442-1.394l0.908,0.972
			c-1.057,1.183-2.619,1.858-4.478,1.858c-3.273,0-5.533-2.302-5.533-5.617c0-3.316,2.281-5.618,5.512-5.618
			C113.4,48.71,115.173,51.202,115.004,54.981z M113.526,53.63c-0.105-2.133-1.541-3.484-3.717-3.484
			c-2.111,0-3.632,1.373-3.886,3.484H113.526z"/>
		<path fill="#8B9E00" d="M127.423,54.981h-9.081c0.296,2.176,1.88,3.548,4.034,3.548c1.372,0,2.576-0.485,3.442-1.394l0.907,0.972
			c-1.056,1.183-2.618,1.858-4.477,1.858c-3.273,0-5.533-2.302-5.533-5.617c0-3.316,2.281-5.618,5.512-5.618
			C125.819,48.71,127.592,51.202,127.423,54.981z M125.945,53.63c-0.105-2.133-1.541-3.484-3.717-3.484
			c-2.111,0-3.632,1.373-3.886,3.484H125.945z"/>
		<path fill="#8B9E00" d="M144.235,57.728c-1.352,1.436-2.914,2.26-4.583,2.26c-2.449,0-4.393-1.732-4.393-4.055
			c0-2.154,1.626-3.273,3.358-4.203c-1.014-1.31-1.521-2.407-1.521-3.484c0-1.858,1.457-3.188,3.611-3.188
			c2.048,0,3.421,1.225,3.421,2.978c0,2.006-1.816,3.041-3.653,4.012c0.908,1.057,2.111,2.281,3.59,3.738
			c0.57-0.803,1.077-1.773,1.521-2.872l1.119,0.866c-0.485,1.119-1.035,2.111-1.668,2.956l2.555,2.514l-0.887,0.929L144.235,57.728z
			 M143.285,56.776c-1.626-1.626-2.957-2.978-3.949-4.139c-1.457,0.803-2.682,1.689-2.682,3.168c0,1.668,1.352,2.83,3.062,2.83
			C140.983,58.636,142.208,57.96,143.285,56.776z M139.737,51.159c1.626-0.845,3.041-1.646,3.041-3.125
			c0-1.099-0.803-1.838-2.069-1.838c-1.373,0-2.26,0.888-2.26,2.027C138.449,49.09,138.892,50.019,139.737,51.159z"/>
		<path fill="#8B9E00" d="M167.572,52.68v5.364c-1.457,1.161-3.506,1.943-5.492,1.943c-4.287,0-7.707-3.316-7.707-7.477
			s3.441-7.434,7.793-7.434c2.047,0,4.033,0.781,5.447,2.027l-0.971,1.268c-1.203-1.077-2.83-1.711-4.477-1.711
			c-3.379,0-6.082,2.598-6.082,5.85c0,3.273,2.723,5.871,6.102,5.871c1.332,0,2.746-0.465,3.887-1.246V52.68H167.572z"/>
		<path fill="#8B9E00" d="M178.344,58.191c-0.887,1.204-2.303,1.796-4.076,1.796c-2.303,0-3.781-1.479-3.781-3.4
			c0-1.943,1.543-3.168,4.16-3.189h3.654v-0.654c0-1.626-1.014-2.598-2.979-2.598c-1.225,0-2.365,0.465-3.525,1.268l-0.697-1.204
			c1.436-0.95,2.641-1.499,4.541-1.499c2.744,0,4.266,1.457,4.287,3.844l0.02,7.349h-1.604V58.191z M178.322,56.059v-1.33h-3.463
			c-1.859,0-2.83,0.57-2.83,1.795s0.992,2.027,2.555,2.027C176.463,58.551,177.9,57.601,178.322,56.059z"/>
		<path fill="#8B9E00" d="M185.271,51.244c0.738-1.626,2.111-2.514,3.99-2.534v1.668c-2.344-0.042-3.801,1.415-3.99,3.611v5.913
			h-1.648V48.773h1.648V51.244z"/>
		<path fill="#8B9E00" d="M201.701,59.902h-1.646v-2.387c-0.824,1.563-2.344,2.472-4.33,2.472c-3.168,0-5.363-2.345-5.363-5.66
			c0-3.337,2.195-5.639,5.342-5.639c1.986,0,3.527,0.908,4.352,2.492v-6.948h1.646V59.902z M200.055,54.369
			c0-2.429-1.668-4.181-4.014-4.181c-2.365,0-4.033,1.752-4.033,4.181c0,2.407,1.668,4.14,4.033,4.14
			C198.387,58.509,200.055,56.776,200.055,54.369z"/>
		<path fill="#8B9E00" d="M215.408,54.981h-9.082c0.297,2.176,1.881,3.548,4.035,3.548c1.371,0,2.576-0.485,3.441-1.394l0.908,0.972
			c-1.057,1.183-2.619,1.858-4.477,1.858c-3.273,0-5.533-2.302-5.533-5.617c0-3.316,2.281-5.618,5.512-5.618
			C213.803,48.71,215.576,51.202,215.408,54.981z M213.93,53.63c-0.105-2.133-1.541-3.484-3.717-3.484
			c-2.111,0-3.633,1.373-3.887,3.484H213.93z"/>
		<path fill="#8B9E00" d="M228.418,53.039v6.863h-1.646v-6.42c0-1.964-1.184-3.126-3.146-3.126
			c-2.197,0.021-3.549,1.458-3.738,3.569v5.977h-1.648V48.773h1.648v2.449c0.781-1.689,2.281-2.492,4.309-2.513
			C226.855,48.71,228.418,50.356,228.418,53.039z"/>
		<path fill="#8B9E00" d="M247.193,46.429l-0.719,1.584c-1.33-0.887-2.893-1.246-4.076-1.246c-1.9,0-3.146,0.719-3.146,1.964
			c0,3.802,8.32,1.816,8.301,7.181c0,2.471-2.176,4.055-5.344,4.055c-2.154,0-4.266-0.93-5.66-2.26l0.762-1.521
			c1.371,1.33,3.252,2.091,4.92,2.091c2.133,0,3.463-0.866,3.463-2.281c0.021-3.886-8.299-1.815-8.299-7.116
			c0-2.323,2.049-3.822,5.109-3.822C244.215,45.057,245.969,45.605,247.193,46.429z"/>
		<path fill="#8B9E00" d="M260.371,54.981h-9.08c0.295,2.176,1.879,3.548,4.033,3.548c1.373,0,2.576-0.485,3.443-1.394l0.908,0.972
			c-1.057,1.183-2.619,1.858-4.479,1.858c-3.273,0-5.533-2.302-5.533-5.617c0-3.316,2.281-5.618,5.512-5.618
			C258.768,48.71,260.541,51.202,260.371,54.981z M258.893,53.63c-0.105-2.133-1.541-3.484-3.717-3.484
			c-2.111,0-3.631,1.373-3.885,3.484H258.893z"/>
		<path fill="#8B9E00" d="M264.85,51.244c0.74-1.626,2.113-2.514,3.992-2.534v1.668c-2.344-0.042-3.801,1.415-3.992,3.611v5.913
			h-1.646V48.773h1.646V51.244z"/>
		<path fill="#8B9E00" d="M274.143,59.902l-4.412-11.129h1.752l3.547,9.418l3.527-9.418h1.668l-4.371,11.129H274.143z"/>
		<path fill="#8B9E00" d="M284.049,45.584c0,0.655-0.465,1.141-1.078,1.141c-0.611,0-1.076-0.485-1.076-1.141
			c0-0.654,0.465-1.14,1.076-1.14C283.584,44.444,284.049,44.93,284.049,45.584z M282.168,59.902V48.773h1.627v11.129H282.168z"/>
		<path fill="#8B9E00" d="M296.486,50.378l-0.908,1.162c-0.844-0.803-1.963-1.289-3.314-1.289c-2.303,0-3.949,1.669-3.949,4.098
			c0,2.428,1.646,4.117,3.949,4.117c1.457,0,2.66-0.506,3.441-1.436l0.951,1.014c-0.992,1.204-2.535,1.922-4.457,1.922
			c-3.23,0-5.512-2.302-5.512-5.617c0-3.316,2.303-5.618,5.512-5.618C293.996,48.71,295.473,49.322,296.486,50.378z"/>
		<path fill="#8B9E00" d="M308.715,54.981h-9.082c0.297,2.176,1.881,3.548,4.035,3.548c1.371,0,2.576-0.485,3.441-1.394l0.908,0.972
			c-1.057,1.183-2.619,1.858-4.477,1.858c-3.273,0-5.533-2.302-5.533-5.617c0-3.316,2.281-5.618,5.512-5.618
			C307.109,48.71,308.883,51.202,308.715,54.981z M307.236,53.63c-0.105-2.133-1.541-3.484-3.717-3.484
			c-2.111,0-3.633,1.373-3.887,3.484H307.236z"/>
	</g>
	<path id="text_original_1_" display="none" fill="#9B9B9B" d="M208.402,12.242l-3.483-3.476l3.483-3.527l3.484,3.527
		L208.402,12.242L208.402,12.242z M210.842,38.465h-4.928V14.923h4.928V38.465L210.842,38.465z M223.781,19.84v9.784
		c0,1.291,0.332,2.351,0.995,3.179c0.664,0.826,1.494,1.242,2.489,1.242c0.862,0,1.791-0.158,2.787-0.473
		c0.995-0.314,1.874-0.754,2.638-1.316v5.016c-0.764,0.529-1.643,0.951-2.638,1.266c-0.996,0.316-1.925,0.473-2.787,0.473
		c-1.195,0-2.307-0.199-3.335-0.596s-1.925-0.951-2.688-1.664c-0.763-0.711-1.36-1.547-1.792-2.508
		c-0.431-0.961-0.646-2.002-0.646-3.129V19.84h-4.928v-4.966h4.928v-4.718h4.977v4.718h10.004v4.966H223.781L223.781,19.84z
		 M252.797,38.465V24.31c0-0.629-0.141-1.233-0.424-1.813c-0.281-0.579-0.672-1.084-1.169-1.515c-0.498-0.43-1.078-0.77-1.742-1.018
		c-0.664-0.248-1.377-0.373-2.14-0.373c-1.261,0-2.423,0.307-3.484,0.918c-1.063,0.613-1.925,1.399-2.588,2.359v15.595h-4.978V3.7
		h4.978v12.614c0.896-0.529,1.857-0.943,2.887-1.241c1.028-0.298,2.106-0.447,3.234-0.447c1.394,0,2.713,0.257,3.957,0.77
		c1.245,0.513,2.348,1.217,3.311,2.11c0.962,0.894,1.725,1.929,2.289,3.104c0.564,1.175,0.846,2.408,0.846,3.7v14.155H252.797
		L252.797,38.465z M26.232,38.465L4.582,11.497v26.968h-4.828V3.7h4.978l21.601,26.867V3.7h4.877v34.765H26.232L26.232,38.465z
		 M49.474,38.465v-1.242c-0.863,0.563-1.833,0.992-2.912,1.291c-1.078,0.297-2.065,0.447-2.961,0.447
		c-1.128,0-2.182-0.174-3.16-0.521c-0.979-0.348-1.833-0.836-2.563-1.465s-1.311-1.35-1.742-2.16
		c-0.432-0.813-0.647-1.697-0.647-2.658c0-1.092,0.24-2.135,0.722-3.128c0.481-0.993,1.277-1.854,2.389-2.583
		c1.112-0.728,2.555-1.308,4.33-1.737c1.775-0.431,3.957-0.646,6.545-0.646c0-0.861-0.066-1.63-0.199-2.309
		c-0.133-0.679-0.382-1.242-0.747-1.688c-0.365-0.447-0.863-0.787-1.493-1.018c-0.631-0.232-1.427-0.348-2.39-0.348
		c-1.426,0-2.787,0.24-4.081,0.72c-1.294,0.48-2.638,1.349-4.032,2.607h-0.498l1.892-6.257c0.929-0.596,2.024-1.084,3.285-1.464
		c1.261-0.381,2.472-0.571,3.633-0.571c0.862,0,1.85,0.107,2.961,0.323c1.111,0.215,2.157,0.67,3.136,1.366
		c0.979,0.695,1.808,1.713,2.488,3.054c0.681,1.341,1.021,3.121,1.021,5.339v14.651H49.474L49.474,38.465z M49.474,28.531
		c-1.261,0-2.456,0.05-3.583,0.149c-1.128,0.099-2.107,0.273-2.937,0.521s-1.484,0.604-1.966,1.067
		c-0.481,0.463-0.721,1.059-0.721,1.788c0,1.061,0.456,1.738,1.368,2.037c0.913,0.297,2.016,0.447,3.31,0.447
		c0.73,0,1.501-0.125,2.314-0.373s1.551-0.572,2.215-0.969V28.531L49.474,28.531z M66.942,19.84v9.784
		c0,1.291,0.332,2.351,0.995,3.179c0.664,0.826,1.494,1.242,2.489,1.242c0.863,0,1.792-0.158,2.788-0.473
		c0.995-0.314,1.875-0.754,2.638-1.316v5.016c-0.763,0.529-1.643,0.951-2.638,1.266c-0.996,0.316-1.925,0.473-2.788,0.473
		c-1.194,0-2.306-0.199-3.334-0.596s-1.925-0.951-2.688-1.664c-0.763-0.711-1.36-1.547-1.792-2.508
		c-0.431-0.961-0.646-2.002-0.646-3.129V19.84h-4.928v-4.966h4.928v-4.718h4.977v4.718h10.004v4.966H66.942L66.942,19.84z
		 M95.609,38.465v-1.49c-1.925,1.324-4.032,1.986-6.321,1.986c-1.029,0-2.14-0.166-3.334-0.496
		c-1.195-0.332-2.314-0.895-3.359-1.689c-1.046-0.795-1.916-1.846-2.613-3.154c-0.697-1.307-1.045-2.922-1.045-4.842V14.874h4.977
		v13.012c0,0.828,0.142,1.598,0.423,2.309c0.282,0.711,0.672,1.333,1.169,1.862c0.498,0.531,1.07,0.943,1.717,1.242
		c0.647,0.297,1.335,0.447,2.065,0.447c1.195,0,2.331-0.141,3.409-0.422c1.079-0.281,2.049-0.721,2.912-1.316V14.874h4.977v23.591
		H95.609L95.609,38.465z M117.507,20.337c-0.83-0.199-1.46-0.298-1.892-0.298c-0.531,0-1.054,0.042-1.568,0.124
		c-0.515,0.083-1.02,0.248-1.518,0.497c-0.498,0.248-0.962,0.613-1.394,1.093c-0.431,0.48-0.829,1.117-1.194,1.912v14.801h-4.927
		V14.874h4.977v1.987c1.858-1.49,3.75-2.235,5.674-2.235c0.863,0,1.667,0.107,2.414,0.323c0.746,0.215,1.451,0.504,2.115,0.869
		v6.307C119.231,21.132,118.336,20.536,117.507,20.337L117.507,20.337z M145.676,27.29h-18.814c0.2,0.959,0.556,1.854,1.07,2.682
		c0.514,0.827,1.145,1.54,1.892,2.136c0.746,0.596,1.601,1.066,2.563,1.414s1.974,0.523,3.036,0.523
		c1.726,0,3.343-0.283,4.853-0.846c1.509-0.563,2.795-1.291,3.857-2.186v5.166c-1.361,0.861-2.845,1.539-4.455,2.035
		c-1.609,0.498-3.276,0.746-5.002,0.746c-1.792,0-3.475-0.348-5.051-1.043s-2.945-1.639-4.106-2.832
		c-1.161-1.191-2.082-2.59-2.762-4.195c-0.68-1.606-1.021-3.303-1.021-5.091c0-1.655,0.324-3.211,0.971-4.668
		c0.647-1.457,1.526-2.732,2.638-3.824c1.111-1.093,2.406-1.962,3.882-2.607c1.477-0.646,3.061-0.969,4.753-0.969
		c1.593,0,3.153,0.248,4.679,0.745c1.526,0.497,2.854,1.291,3.981,2.384c1.128,1.092,1.983,2.5,2.563,4.221
		C145.783,22.803,145.941,24.873,145.676,27.29L145.676,27.29z M139.504,20.982c-0.332-0.497-0.771-0.927-1.319-1.291
		c-0.548-0.364-1.187-0.663-1.917-0.894c-0.729-0.232-1.51-0.348-2.339-0.348c-1.494,0-2.837,0.389-4.031,1.167
		c-1.195,0.778-2.074,1.746-2.638,2.905h12.741C140.001,21.992,139.835,21.479,139.504,20.982L139.504,20.982z M282.57,38.465v-1.49
		c-1.925,1.324-4.032,1.986-6.321,1.986c-1.028,0-2.141-0.166-3.335-0.496c-1.194-0.332-2.314-0.895-3.359-1.689
		s-1.916-1.846-2.613-3.154c-0.697-1.307-1.045-2.922-1.045-4.842V14.874h4.978v13.012c0,0.828,0.141,1.598,0.423,2.309
		c0.281,0.711,0.672,1.333,1.169,1.862c0.498,0.531,1.07,0.943,1.718,1.242c0.646,0.297,1.335,0.447,2.065,0.447
		c1.194,0,2.331-0.141,3.409-0.422s2.049-0.721,2.912-1.316V14.874h4.977v23.591H282.57L282.57,38.465z M309.37,35.037
		c-0.548,1.025-1.277,1.854-2.19,2.482c-0.912,0.629-1.99,1.076-3.234,1.342s-2.563,0.396-3.957,0.396
		c-1.692,0-3.276-0.289-4.753-0.869c-1.478-0.578-2.796-1.398-3.957-2.457v-6.705c0.796,1.59,1.958,2.83,3.484,3.725
		c1.525,0.895,3.234,1.342,5.126,1.342c0.266,0,0.697-0.01,1.294-0.025c0.598-0.018,1.194-0.115,1.792-0.299
		c0.597-0.182,1.128-0.463,1.593-0.844c0.464-0.381,0.696-0.951,0.696-1.713c0-0.695-0.34-1.217-1.02-1.565
		c-0.681-0.348-1.535-0.638-2.563-0.869l-3.335-0.745c-1.194-0.265-2.307-0.662-3.334-1.192c-1.029-0.53-1.884-1.258-2.563-2.186
		c-0.681-0.927-1.021-2.201-1.021-3.823c0-0.994,0.224-1.929,0.672-2.807c0.447-0.877,1.053-1.646,1.816-2.309
		c0.764-0.662,1.659-1.184,2.688-1.565c1.029-0.38,2.124-0.57,3.285-0.57c1.493,0,2.929,0.207,4.306,0.621s2.646,0.985,3.807,1.713
		v5.711c-0.962-0.927-2.14-1.672-3.533-2.235s-2.92-0.844-4.579-0.844c-0.963,0-1.783,0.149-2.464,0.447
		c-0.68,0.298-1.021,0.91-1.021,1.838c0,0.794,0.341,1.39,1.021,1.787c0.681,0.397,1.535,0.721,2.563,0.969
		c1.028,0.249,2.132,0.497,3.31,0.745c1.178,0.248,2.281,0.621,3.31,1.117c1.029,0.497,1.883,1.175,2.563,2.036
		c0.681,0.861,1.021,2.037,1.021,3.526C310.191,32.736,309.918,34.012,309.37,35.037L309.37,35.037z"/>
	<g id="text_copy">
		<path fill="#808080" d="M206.59,13.657c0,0-3.483-1.459-3.483-3.476s3.483-3.527,3.483-3.527s3.484,1.605,3.484,3.527
			S206.59,13.657,206.59,13.657L206.59,13.657z"/>
		<path fill="#808080" d="M204.102,38.465c0,0,0-17.667,0-20.403S209.029,15,209.029,15v19.844c0,0,0,3.621-2.561,3.621
			C204.283,38.465,204.102,38.465,204.102,38.465z"/>
		<path fill="#808080" d="M251.563,38.465c-2.797,0-2.766-3.465-2.766-3.465V24.31c0-0.629-0.141-1.233-0.424-1.813
			c-0.281-0.579-0.672-1.084-1.169-1.515c-0.498-0.43-1.078-0.77-1.742-1.018c-0.664-0.248-1.377-0.373-2.14-0.373
			c-1.261,0-2.423,0.307-3.484,0.918c-1.063,0.613-1.925,1.399-2.588,2.359v11.568c0,0,0.125,4.027-2.625,4.027
			c-1.813,0-2.353,0-2.353,0V3.7c0,0,0.77,0,1.54,0c3.938,0,3.438,3.237,3.438,3.237v9.376c0.896-0.529,1.857-0.943,2.887-1.241
			c1.028-0.298,2.106-0.447,3.234-0.447c1.394,0,2.713,0.257,3.957,0.77c1.245,0.513,2.348,1.217,3.311,2.11
			c0.962,0.894,1.725,1.929,2.289,3.104c0.564,1.175,0.846,2.408,0.846,3.7v14.155C253.773,38.465,253.438,38.465,251.563,38.465z"
			/>
		<path fill="#808080" d="M26.149,36.181c-1.13-1.408-19.817-23.434-19.817-23.434s0,21.66,0,23.285
			c0,1.422-0.504,2.473-2.082,2.473c-1.219,0-2.746,0.012-2.746,0.012V3.7c0,0,0.129,0,0.913,0c3.917,0,6.599,3.814,6.599,3.814
			l19.066,23.053V3.7c0,0,4.877,0,4.877,2.987c0,1.737,0,31.777,0,31.777c-1.806,0-0.136,0-1.806,0
			C28.344,38.465,27.279,37.589,26.149,36.181z"/>
		<path fill="#808080" d="M53.43,18.475c-0.68-1.341-1.509-2.359-2.488-3.054c-0.979-0.695-2.025-1.15-3.136-1.366
			c-1.112-0.215-2.099-0.323-2.961-0.323c-1.162,0-2.413,0.076-3.633,0.571c-4.915,1.994-4.87,5.476-4.979,5.932
			c-0.149,0.619-0.003,2.036-0.003,2.036c1.394-1.258,3.042-2.373,4.335-2.853c1.294-0.48,2.654-0.72,4.081-0.72
			c0.963,0,1.759,0.116,2.39,0.348c0.63,0.231,1.128,0.571,1.493,1.018c0.365,0.446,0.614,1.009,0.747,1.688
			c0.132,0.679,0.199,1.448,0.199,2.309c-2.588,0-4.77,0.215-6.545,0.646c-1.775,0.43-3.218,1.009-4.33,1.737
			c-1.112,0.729-1.908,1.59-2.389,2.583c-0.481,0.993-0.722,2.037-0.722,3.128c0,0.961,0.215,1.846,0.647,2.658
			c0.431,0.811,1.012,1.531,1.742,2.16s1.584,1.117,2.563,1.465c0.979,0.348,2.032,0.521,3.16,0.521c0.896,0,1.883-0.15,2.961-0.447
			c1.079-0.299,2.049-0.729,2.912-1.291c0,0,0.229,1.242,1.401,1.242c1.344,0,3.576,0,3.576,0V23.813
			C54.451,21.595,54.111,19.815,53.43,18.475z M49.474,33.199c-0.664,0.396-1.402,0.721-2.215,0.969s-1.584,0.373-2.314,0.373
			c-1.294,0-2.397-0.15-3.31-0.447c-0.912-0.299-1.368-0.977-1.368-2.037c0-0.729,0.24-1.324,0.721-1.788
			c0.482-0.463,1.137-0.819,1.966-1.067s1.809-0.422,2.937-0.521c1.128-0.1,2.323-0.149,3.583-0.149V33.199z"/>
		<path fill="#808080" d="M64.942,19.84v9.784c0,1.291,0.332,2.351,0.995,3.179c0.664,0.826,1.494,1.242,2.489,1.242
			c0.863,0,1.792-0.158,2.788-0.473c0.995-0.314,3.269-1.756,3.269-1.756s0.081,1.309-0.658,3.073
			c-0.747,1.785-2.333,3.309-4.783,3.693c-1.18,0.186-2.921,0.228-3.95-0.169s-1.925-0.951-2.688-1.664
			c-0.763-0.711-1.36-1.547-1.792-2.508c-0.431-0.961-0.646-2.002-0.646-3.129V19.84c-1.548,0,0.702,0-2.215,0
			c-3.25,0-2.713-4.966-2.713-4.966h4.928v-4.718c0,0,1.302,0,3.452,0c1.85,0,1.525,4.718,1.525,4.718s4.35,0,6.683,0
			c2.667,0,2.321,4.966,2.321,4.966H64.942L64.942,19.84z"/>
		<path fill="#808080" d="M221.254,19.84v9.784c0,1.291,0.332,2.351,0.994,3.179c0.664,0.826,1.494,1.242,2.489,1.242
			c0.862,0,1.792-0.158,2.788-0.473c0.994-0.314,1.874-0.754,2.637-1.316c0,0,0.256,5.432-5.961,5.949
			c-3.118,0.26-4.723-0.742-5.486-1.455c-0.763-0.711-1.359-1.547-1.792-2.508c-0.431-0.961-0.646-2.002-0.646-3.129V19.84
			c-1.548,0,0.702,0-2.215,0c-3.25,0-2.713-4.966-2.713-4.966h4.928v-4.718c0,0,1.302,0,3.452,0c1.85,0,1.525,4.718,1.525,4.718
			s4.35,0,6.683,0c2.667,0,2.321,4.966,2.321,4.966H221.254L221.254,19.84z"/>
		<path fill="#808080" d="M95.344,38.465c-1.5,0-1.985-1.49-1.985-1.49c-1.925,1.324-4.032,1.986-6.321,1.986
			c-1.029,0-2.14-0.166-3.334-0.496c-1.195-0.332-2.314-0.895-3.359-1.689c-1.046-0.795-1.916-1.846-2.613-3.154
			c-0.697-1.307-1.045-2.922-1.045-4.842V14.874c0,0,0.75,0,1.814,0c1.592,0,3.162,0.313,3.162,2.095c0,1.157,0,10.917,0,10.917
			c0,0.828,0.142,1.598,0.423,2.309c0.282,0.711,0.672,1.333,1.169,1.862c0.498,0.531,1.07,0.943,1.717,1.242
			c0.647,0.297,1.335,0.447,2.065,0.447c1.195,0,2.331-0.141,3.409-0.422c1.079-0.281,2.049-0.721,2.912-1.316
			c0,0,0-12.134,0-14.664s2.36-2.47,3.485-2.47s1.492,0,1.492,0v23.591h-0.742C97.594,38.465,96.344,38.465,95.344,38.465z"/>
		<path fill="#808080" d="M284.844,38.465c-1.5,0-1.984-1.49-1.984-1.49c-1.926,1.324-4.032,1.986-6.322,1.986
			c-1.028,0-2.139-0.166-3.334-0.496c-1.195-0.332-2.314-0.895-3.359-1.689c-1.046-0.795-1.916-1.846-2.613-3.154
			c-0.697-1.307-1.045-2.922-1.045-4.842V14.874c0,0,0.75,0,1.814,0c1.592,0,3.162,0.313,3.162,2.095c0,1.157,0,10.917,0,10.917
			c0,0.828,0.142,1.598,0.424,2.309c0.281,0.711,0.672,1.333,1.169,1.862c0.498,0.531,1.07,0.943,1.718,1.242
			c0.646,0.297,1.335,0.447,2.064,0.447c1.195,0,2.332-0.141,3.41-0.422s2.049-0.721,2.912-1.316c0,0,0-12.134,0-14.664
			s2.359-2.47,3.484-2.47s1.492,0,1.492,0v23.591h-0.742C287.094,38.465,285.844,38.465,284.844,38.465z"/>
		<path fill="#808080" d="M113.5,20.25c-2.063-1.281-4.127-0.311-4.625-0.063c-0.498,0.248-1.37,1.085-1.802,1.565
			c-0.431,0.48-0.829,1.117-1.194,1.912c0,0,0,11.52,0,12.711s-1.598,2.09-2.941,2.09c-1.156,0-1.986,0-1.986,0V14.874
			c0,0,1.132,0,2.956,0c1.551,0,2.021,1.987,2.021,1.987c1.858-1.49,3.614-2.061,5.533-1.912c1.604,0.125,2.664,0.697,3.726,2.113
			c1.287,1.716,0.792,5.075,0.792,5.075S114.849,21.088,113.5,20.25z"/>
		<path fill="#808080" d="M139.563,26c1.246-1.454,1.408-3.197,0.828-4.918c-0.581-1.721-1.435-3.128-2.563-4.221
			c-1.128-1.093-2.455-1.888-3.981-2.384c-1.526-0.497-3.086-0.745-4.679-0.745c-1.692,0-3.276,0.323-4.753,0.969
			c-1.476,0.645-2.771,1.514-3.882,2.607c-1.112,1.092-1.991,2.367-2.638,3.824c-0.647,1.457-0.971,3.013-0.971,4.668
			c0,1.788,0.34,3.484,1.021,5.091c0.681,1.605,1.601,3.004,2.762,4.195c1.162,1.193,2.53,2.137,4.106,2.832s5.5,1.271,7.588,0.773
			c4.129-0.983,5.264-2.383,6.246-3.691c1.125-1.5,0.674-3.986,0.674-3.986c-1.062,0.895-2.348,1.623-3.857,2.186
			c-1.51,0.563-3.127,0.846-4.853,0.846c-1.062,0-2.074-0.176-3.036-0.523s-1.817-0.818-2.563-1.414
			c-0.747-0.596-1.377-1.309-1.892-2.136c-0.514-0.828-0.871-1.722-1.07-2.682c0,0,10.805,0,12.888,0S138.563,27.167,139.563,26z
			 M122.021,23.125c0.563-1.159,1.87-2.73,3.065-3.508c1.194-0.778,2.538-1.187,4.031-1.167c3.82,0.05,5.474,1.082,6.529,2.634
			c0.708,1.042,0.833,1.782-0.833,2.042C133.748,23.291,122.021,23.125,122.021,23.125z"/>
		<path fill="#808080" d="M307.954,35.037c-0.548,1.025-1.277,1.854-2.19,2.482c-0.912,0.629-1.99,1.076-3.234,1.342
			s-2.57,0.534-3.957,0.396c-2.988-0.297-6.551-1.383-7.955-4.903c-1.06-2.656-0.755-5.128-0.755-5.128
			c0.796,1.59,1.958,2.83,3.484,3.725c1.525,0.895,3.234,1.342,5.126,1.342c0.266,0,0.697-0.01,1.294-0.025
			c0.598-0.018,1.194-0.115,1.792-0.299c0.597-0.182,1.128-0.463,1.593-0.844c0.464-0.381,0.696-0.951,0.696-1.713
			c0-0.695-0.34-1.217-1.02-1.565c-0.681-0.348-1.535-0.638-2.563-0.869l-3.335-0.745c-1.194-0.265-2.307-0.662-3.334-1.192
			c-1.029-0.53-1.884-1.258-2.563-2.186c-0.681-0.927-1.021-2.201-1.021-3.823c0-0.994,0.224-1.929,0.672-2.807
			c0.447-0.877,1.053-1.646,1.816-2.309c0.764-0.662,1.659-1.184,2.688-1.565c1.029-0.38,2.124-0.57,3.285-0.57
			c1.493,0,2.91,0.155,4.194,0.802c1.587,0.799,2.501,1.491,3.376,2.875s0.542,4.368,0.542,4.368
			c-0.962-0.927-2.14-1.672-3.533-2.235s-2.92-0.844-4.579-0.844c-0.963,0-1.783,0.149-2.464,0.447
			c-0.68,0.298-1.021,0.91-1.021,1.838c0,0.794,0.341,1.39,1.021,1.787c0.681,0.397,1.535,0.721,2.563,0.969
			c1.028,0.249,2.132,0.497,3.31,0.745c1.178,0.248,2.281,0.621,3.31,1.117c1.029,0.497,1.883,1.175,2.563,2.036
			c0.681,0.861,1.021,2.037,1.021,3.526C308.775,32.736,308.502,34.012,307.954,35.037L307.954,35.037z"/>
	</g>
	<g id="flower_copy">
		<path fill-rule="evenodd" clip-rule="evenodd" fill="#8B9E00" d="M152.25,1.72c0,0,1.158,2.095,4.687,4.935
			c4.499,3.621,12.629,12.692,14.401,18.187c0.861,2.67,1.56,4.994,2.37,6.909c2.007,4.742,4.584,6.375,4.584,6.375
			s-5.172,2.263-11.147,0.334c-3.109-1.003-7.174-4.043-9.271-7.209C152.187,22.66,152.25,1.72,152.25,1.72z"/>
		<path fill="#8B9E00" d="M195.583,7.625c-2.803,2.328-7.067,5.208-9.608,8.232C178.293,7.25,177.125,8.75,171.229,2
			c0,0,0.077,21.524,5.054,30.545c2.47,4.475,5.68,6.044,8.289,6.49c0.78,0.202,7.664,1.709,12.137-6.842
			c4.747-9.075,4.977-30.318,4.977-30.318S199.533,4.343,195.583,7.625z"/>
	</g>
</g>
</svg>
