<?xml version="1.0" encoding="utf-8"?>
<!-- Generator: Adobe Illustrator 16.0.0, SVG Export Plug-In . SVG Version: 6.00 Build 0)  -->
<!DOCTYPE svg PUBLIC "-//W3C//DTD SVG 1.1//EN" "http://www.w3.org/Graphics/SVG/1.1/DTD/svg11.dtd">
<svg version="1.1" id="logo" xmlns="http://www.w3.org/2000/svg" xmlns:xlink="http://www.w3.org/1999/xlink" x="0px" y="0px"
	 width="310.375px" height="65px" viewBox="0 0 310.375 65" enable-background="new 0 0 310.375 65" xml:space="preserve">
<rect x="-0.709" y="44.231" fill-rule="evenodd" clip-rule="evenodd" fill="none" width="320.356" height="43.936"/>
<text id="subtext_original" transform="matrix(1 0 0 1 -0.7095 59.9023)" display="none" fill="#8B9E00" font-family="'Montserrat-Light'" font-size="21.12">Prince George Tree &amp; Service</text>
<path fill="#8B9E00" d="M12.04,59.146l-8.85-11.842v11.842H1.504V44.398h1.749l8.85,11.861V44.398h1.664v14.748H12.04z"/>
<path fill="#8B9E00" d="M19.9,44.86c0,0.654-0.464,1.139-1.075,1.139s-1.075-0.484-1.075-1.139c0-0.652,0.464-1.137,1.075-1.137
	S19.9,44.208,19.9,44.86z M18.024,59.146V48.043h1.622v11.104H18.024z"/>
<path fill="#8B9E00" d="M30.541,57.44c-0.885,1.2-2.296,1.791-4.066,1.791c-2.297,0-3.772-1.476-3.772-3.393
	c0-1.938,1.539-3.16,4.151-3.183h3.646v-0.652c0-1.622-1.012-2.592-2.972-2.592c-1.222,0-2.36,0.464-3.519,1.265l-0.696-1.202
	c1.434-0.947,2.633-1.495,4.531-1.495c2.739,0,4.256,1.454,4.277,3.835l0.021,7.332h-1.602V57.44z M30.52,55.312v-1.327h-3.455
	c-1.854,0-2.824,0.569-2.824,1.791c0,1.223,0.99,2.023,2.55,2.023C28.666,57.799,30.099,56.851,30.52,55.312z"/>
<path fill="#8B9E00" d="M45.481,57.988c0,3.245-2.211,5.289-5.583,5.289c-1.749-0.021-3.203-0.59-4.551-1.602l0.758-1.266
	c1.096,0.906,2.255,1.393,3.73,1.412c2.423,0,4.003-1.474,4.003-3.792v-1.686c-0.78,1.475-2.212,2.318-4.088,2.318
	c-2.991,0-5.057-2.213-5.057-5.374c0-3.098,2.044-5.289,5.015-5.31c1.896,0,3.329,0.843,4.13,2.316v-2.253h1.643V57.988z
	 M43.838,53.352c0-2.317-1.58-3.939-3.793-3.939c-2.233,0-3.793,1.644-3.813,3.939c0.021,2.277,1.58,3.92,3.813,3.92
	C42.258,57.271,43.838,55.629,43.838,53.352z"/>
<path fill="#8B9E00" d="M56.102,57.44c-0.885,1.2-2.296,1.791-4.067,1.791c-2.297,0-3.772-1.476-3.772-3.393
	c0-1.938,1.539-3.16,4.15-3.183h3.646v-0.652c0-1.622-1.011-2.592-2.971-2.592c-1.222,0-2.36,0.464-3.519,1.265l-0.695-1.202
	c1.433-0.947,2.634-1.495,4.531-1.495c2.739,0,4.256,1.454,4.277,3.835l0.02,7.332h-1.601V57.44z M56.081,55.312v-1.327h-3.456
	c-1.854,0-2.824,0.569-2.824,1.791c0,1.223,0.99,2.023,2.549,2.023C54.226,57.799,55.659,56.851,56.081,55.312z"/>
<path fill="#8B9E00" d="M63.014,50.509c0.738-1.623,2.108-2.509,3.982-2.529v1.664c-2.339-0.042-3.792,1.412-3.982,3.604v5.899
	H61.37V48.043h1.644V50.509z"/>
<path fill="#8B9E00" d="M75.572,57.44c-0.886,1.2-2.296,1.791-4.067,1.791c-2.296,0-3.772-1.476-3.772-3.393
	c0-1.938,1.539-3.16,4.151-3.183h3.646v-0.652c0-1.622-1.011-2.592-2.972-2.592c-1.222,0-2.36,0.464-3.519,1.265l-0.695-1.202
	c1.433-0.947,2.634-1.495,4.53-1.495c2.739,0,4.256,1.454,4.278,3.835l0.021,7.332h-1.601V57.44z M75.551,55.312v-1.327h-3.455
	c-1.854,0-2.824,0.569-2.824,1.791c0,1.223,0.99,2.023,2.55,2.023C73.697,57.799,75.13,56.851,75.551,55.312z"/>
<path fill="#8B9E00" d="M91.333,46.02v13.127h-1.686V46.02h-4.803v-1.621H96.16v1.621H91.333z"/>
<path fill="#8B9E00" d="M98.963,50.509c0.738-1.623,2.107-2.509,3.982-2.529v1.664c-2.338-0.042-3.792,1.412-3.982,3.604v5.899
	h-1.644V48.043h1.644V50.509z"/>
<path fill="#8B9E00" d="M114.725,54.237h-9.061c0.295,2.171,1.876,3.54,4.025,3.54c1.369,0,2.57-0.484,3.435-1.391l0.906,0.969
	c-1.054,1.181-2.613,1.854-4.467,1.854c-3.267,0-5.521-2.296-5.521-5.604c0-3.31,2.276-5.605,5.499-5.605
	C113.124,47.979,114.893,50.467,114.725,54.237z M113.249,52.889c-0.105-2.128-1.537-3.477-3.708-3.477
	c-2.106,0-3.624,1.37-3.877,3.477H113.249z"/>
<path fill="#8B9E00" d="M127.115,54.237h-9.061c0.295,2.171,1.876,3.54,4.025,3.54c1.369,0,2.57-0.484,3.435-1.391l0.905,0.969
	c-1.053,1.181-2.612,1.854-4.466,1.854c-3.266,0-5.521-2.296-5.521-5.604c0-3.31,2.276-5.605,5.5-5.605
	C125.515,47.979,127.284,50.467,127.115,54.237z M125.641,52.889c-0.105-2.128-1.538-3.477-3.708-3.477
	c-2.107,0-3.624,1.37-3.877,3.477H125.641z"/>
<path fill="#8B9E00" d="M143.889,56.977c-1.348,1.434-2.907,2.255-4.572,2.255c-2.444,0-4.383-1.728-4.383-4.045
	c0-2.15,1.623-3.267,3.351-4.194c-1.011-1.307-1.517-2.401-1.517-3.476c0-1.854,1.454-3.182,3.604-3.182
	c2.043,0,3.413,1.222,3.413,2.97c0,2.002-1.813,3.035-3.645,4.003c0.906,1.055,2.106,2.276,3.582,3.73
	c0.569-0.801,1.075-1.77,1.518-2.865l1.116,0.863c-0.484,1.117-1.033,2.106-1.664,2.95l2.549,2.508l-0.885,0.927L143.889,56.977z
	 M142.941,56.027c-1.622-1.621-2.95-2.97-3.94-4.128c-1.454,0.8-2.676,1.685-2.676,3.16c0,1.664,1.349,2.823,3.055,2.823
	C140.645,57.883,141.867,57.209,142.941,56.027z M139.401,50.423c1.622-0.843,3.034-1.642,3.034-3.118
	c0-1.096-0.801-1.833-2.064-1.833c-1.37,0-2.255,0.886-2.255,2.022C138.116,48.358,138.559,49.286,139.401,50.423z"/>
<path fill="#8B9E00" d="M167.174,51.94v5.353c-1.454,1.158-3.498,1.938-5.479,1.938c-4.277,0-7.689-3.309-7.689-7.459
	c0-4.151,3.434-7.418,7.775-7.418c2.042,0,4.024,0.779,5.435,2.023l-0.968,1.265c-1.2-1.074-2.824-1.707-4.467-1.707
	c-3.371,0-6.069,2.592-6.069,5.837c0,3.266,2.717,5.857,6.089,5.857c1.329,0,2.74-0.464,3.878-1.243V51.94H167.174z"/>
<path fill="#8B9E00" d="M177.922,57.44c-0.885,1.2-2.298,1.791-4.067,1.791c-2.298,0-3.772-1.476-3.772-3.393
	c0-1.938,1.539-3.16,4.15-3.183h3.646v-0.652c0-1.622-1.012-2.592-2.972-2.592c-1.223,0-2.36,0.464-3.519,1.265l-0.695-1.202
	c1.433-0.947,2.636-1.495,4.53-1.495c2.738,0,4.257,1.454,4.279,3.835l0.019,7.332h-1.6V57.44z M177.899,55.312v-1.327h-3.454
	c-1.855,0-2.824,0.569-2.824,1.791c0,1.223,0.989,2.023,2.549,2.023C176.045,57.799,177.479,56.851,177.899,55.312z"/>
<path fill="#8B9E00" d="M184.834,50.509c0.736-1.623,2.106-2.509,3.981-2.529v1.664c-2.339-0.042-3.793,1.412-3.981,3.604v5.899
	h-1.646V48.043h1.646V50.509z"/>
<path fill="#8B9E00" d="M201.227,59.146h-1.644v-2.381c-0.821,1.56-2.338,2.466-4.319,2.466c-3.161,0-5.352-2.339-5.352-5.647
	c0-3.329,2.19-5.625,5.329-5.625c1.982,0,3.521,0.905,4.342,2.486v-6.933h1.644V59.146z M199.583,53.627
	c0-2.424-1.664-4.172-4.004-4.172c-2.359,0-4.024,1.748-4.024,4.172c0,2.4,1.665,4.129,4.024,4.129
	C197.919,57.756,199.583,56.027,199.583,53.627z"/>
<path fill="#8B9E00" d="M214.903,54.237h-9.062c0.295,2.171,1.876,3.54,4.025,3.54c1.368,0,2.57-0.484,3.435-1.391l0.905,0.969
	c-1.055,1.181-2.613,1.854-4.466,1.854c-3.268,0-5.521-2.296-5.521-5.604c0-3.31,2.276-5.605,5.499-5.605
	C213.302,47.979,215.07,50.467,214.903,54.237z M213.428,52.889c-0.105-2.128-1.538-3.477-3.709-3.477
	c-2.106,0-3.624,1.37-3.877,3.477H213.428z"/>
<path fill="#8B9E00" d="M227.883,52.299v6.848h-1.643v-6.404c0-1.96-1.181-3.119-3.14-3.119c-2.191,0.021-3.54,1.455-3.729,3.562
	v5.962h-1.645V48.043h1.645v2.443c0.779-1.686,2.276-2.486,4.299-2.507C226.324,47.979,227.883,49.623,227.883,52.299z"/>
<path fill="#8B9E00" d="M246.616,45.703l-0.717,1.581c-1.327-0.885-2.887-1.243-4.067-1.243c-1.896,0-3.139,0.717-3.139,1.959
	c0,3.794,8.301,1.813,8.282,7.165c0,2.465-2.171,4.045-5.332,4.045c-2.15,0-4.257-0.927-5.648-2.254l0.761-1.518
	c1.368,1.327,3.244,2.087,4.908,2.087c2.129,0,3.455-0.865,3.455-2.277c0.022-3.877-8.279-1.811-8.279-7.1
	c0-2.318,2.045-3.813,5.098-3.813C243.645,44.335,245.395,44.882,246.616,45.703z"/>
<path fill="#8B9E00" d="M259.765,54.237h-9.06c0.295,2.171,1.875,3.54,4.023,3.54c1.371,0,2.571-0.484,3.437-1.391l0.905,0.969
	c-1.054,1.181-2.613,1.854-4.468,1.854c-3.267,0-5.521-2.296-5.521-5.604c0-3.31,2.275-5.605,5.499-5.605
	C258.165,47.979,259.935,50.467,259.765,54.237z M258.289,52.889c-0.105-2.128-1.537-3.477-3.708-3.477
	c-2.106,0-3.623,1.37-3.876,3.477H258.289z"/>
<path fill="#8B9E00" d="M264.232,50.509c0.739-1.623,2.109-2.509,3.984-2.529v1.664c-2.339-0.042-3.793,1.412-3.984,3.604v5.899
	h-1.643V48.043h1.643V50.509z"/>
<path fill="#8B9E00" d="M273.506,59.146l-4.403-11.104h1.749l3.538,9.397l3.521-9.397h1.664l-4.362,11.104H273.506z"/>
<path fill="#8B9E00" d="M283.389,44.86c0,0.654-0.464,1.139-1.075,1.139c-0.61,0-1.073-0.484-1.073-1.139
	c0-0.652,0.463-1.137,1.073-1.137C282.925,43.724,283.389,44.208,283.389,44.86z M281.513,59.146V48.043h1.623v11.104H281.513z"/>
<path fill="#8B9E00" d="M295.799,49.644l-0.906,1.159c-0.842-0.8-1.959-1.285-3.307-1.285c-2.298,0-3.941,1.665-3.941,4.088
	c0,2.422,1.644,4.108,3.941,4.108c1.453,0,2.654-0.505,3.434-1.433l0.949,1.012c-0.99,1.201-2.53,1.917-4.447,1.917
	c-3.223,0-5.499-2.296-5.499-5.604c0-3.31,2.297-5.605,5.499-5.605C293.314,47.979,294.787,48.591,295.799,49.644z"/>
<path fill="#8B9E00" d="M307.999,54.237h-9.062c0.297,2.171,1.878,3.54,4.027,3.54c1.367,0,2.57-0.484,3.433-1.391l0.907,0.969
	c-1.055,1.181-2.613,1.854-4.467,1.854c-3.267,0-5.521-2.296-5.521-5.604c0-3.31,2.277-5.605,5.5-5.605
	C306.397,47.979,308.167,50.467,307.999,54.237z M306.524,52.889c-0.104-2.128-1.538-3.477-3.708-3.477
	c-2.107,0-3.625,1.37-3.879,3.477H306.524z"/>
<path id="text_original_1_" display="none" fill="#9B9B9B" d="M208.402,12.242l-3.483-3.476l3.483-3.527l3.484,3.527L208.402,12.242
	L208.402,12.242z M210.842,38.465h-4.928V14.923h4.928V38.465L210.842,38.465z M223.781,19.84v9.784
	c0,1.291,0.332,2.351,0.995,3.179c0.664,0.826,1.494,1.242,2.489,1.242c0.862,0,1.791-0.158,2.787-0.473
	c0.995-0.314,1.874-0.754,2.638-1.316v5.016c-0.764,0.529-1.643,0.951-2.638,1.266c-0.996,0.316-1.925,0.473-2.787,0.473
	c-1.195,0-2.307-0.199-3.335-0.596s-1.925-0.951-2.688-1.664c-0.763-0.711-1.36-1.547-1.792-2.508
	c-0.431-0.961-0.646-2.002-0.646-3.129V19.84h-4.928v-4.966h4.928v-4.718h4.977v4.718h10.004v4.966H223.781L223.781,19.84z
	 M252.797,38.465V24.31c0-0.629-0.141-1.233-0.424-1.813c-0.281-0.579-0.672-1.084-1.169-1.515c-0.498-0.43-1.078-0.77-1.742-1.018
	c-0.664-0.248-1.377-0.373-2.14-0.373c-1.261,0-2.423,0.307-3.484,0.918c-1.063,0.613-1.925,1.399-2.588,2.359v15.595h-4.978V3.7
	h4.978v12.614c0.896-0.529,1.857-0.943,2.887-1.241c1.028-0.298,2.106-0.447,3.234-0.447c1.394,0,2.713,0.257,3.957,0.77
	c1.245,0.513,2.348,1.217,3.311,2.11c0.962,0.894,1.725,1.929,2.289,3.104c0.564,1.175,0.846,2.408,0.846,3.7v14.155H252.797
	L252.797,38.465z M26.232,38.465L4.582,11.497v26.968h-4.828V3.7h4.978l21.601,26.867V3.7h4.877v34.765H26.232L26.232,38.465z
	 M49.474,38.465v-1.242c-0.863,0.563-1.833,0.992-2.912,1.291c-1.078,0.297-2.065,0.447-2.961,0.447
	c-1.128,0-2.182-0.174-3.16-0.521c-0.979-0.348-1.833-0.836-2.563-1.465s-1.311-1.35-1.742-2.16
	c-0.432-0.813-0.647-1.697-0.647-2.658c0-1.092,0.24-2.135,0.722-3.128c0.481-0.993,1.277-1.854,2.389-2.583
	c1.112-0.728,2.555-1.308,4.33-1.737c1.775-0.431,3.957-0.646,6.545-0.646c0-0.861-0.066-1.63-0.199-2.309
	c-0.133-0.679-0.382-1.242-0.747-1.688c-0.365-0.447-0.863-0.787-1.493-1.018c-0.631-0.232-1.427-0.348-2.39-0.348
	c-1.426,0-2.787,0.24-4.081,0.72c-1.294,0.48-2.638,1.349-4.032,2.607h-0.498l1.892-6.257c0.929-0.596,2.024-1.084,3.285-1.464
	c1.261-0.381,2.472-0.571,3.633-0.571c0.862,0,1.85,0.107,2.961,0.323c1.111,0.215,2.157,0.67,3.136,1.366
	c0.979,0.695,1.808,1.713,2.488,3.054c0.681,1.341,1.021,3.121,1.021,5.339v14.651H49.474L49.474,38.465z M49.474,28.531
	c-1.261,0-2.456,0.05-3.583,0.149c-1.128,0.099-2.107,0.273-2.937,0.521s-1.484,0.604-1.966,1.067
	c-0.481,0.463-0.721,1.059-0.721,1.788c0,1.061,0.456,1.738,1.368,2.037c0.913,0.297,2.016,0.447,3.31,0.447
	c0.73,0,1.501-0.125,2.314-0.373s1.551-0.572,2.215-0.969V28.531L49.474,28.531z M66.942,19.84v9.784
	c0,1.291,0.332,2.351,0.995,3.179c0.664,0.826,1.494,1.242,2.489,1.242c0.863,0,1.792-0.158,2.788-0.473
	c0.995-0.314,1.875-0.754,2.638-1.316v5.016c-0.763,0.529-1.643,0.951-2.638,1.266c-0.996,0.316-1.925,0.473-2.788,0.473
	c-1.194,0-2.306-0.199-3.334-0.596s-1.925-0.951-2.688-1.664c-0.763-0.711-1.36-1.547-1.792-2.508
	c-0.431-0.961-0.646-2.002-0.646-3.129V19.84h-4.928v-4.966h4.928v-4.718h4.977v4.718h10.004v4.966H66.942L66.942,19.84z
	 M95.609,38.465v-1.49c-1.925,1.324-4.032,1.986-6.321,1.986c-1.029,0-2.14-0.166-3.334-0.496c-1.195-0.332-2.314-0.895-3.359-1.689
	c-1.046-0.795-1.916-1.846-2.613-3.154c-0.697-1.307-1.045-2.922-1.045-4.842V14.874h4.977v13.012c0,0.828,0.142,1.598,0.423,2.309
	c0.282,0.711,0.672,1.333,1.169,1.862c0.498,0.531,1.07,0.943,1.717,1.242c0.647,0.297,1.335,0.447,2.065,0.447
	c1.195,0,2.331-0.141,3.409-0.422c1.079-0.281,2.049-0.721,2.912-1.316V14.874h4.977v23.591H95.609L95.609,38.465z M117.507,20.337
	c-0.83-0.199-1.46-0.298-1.892-0.298c-0.531,0-1.054,0.042-1.568,0.124c-0.515,0.083-1.02,0.248-1.518,0.497
	c-0.498,0.248-0.962,0.613-1.394,1.093c-0.431,0.48-0.829,1.117-1.194,1.912v14.801h-4.927V14.874h4.977v1.987
	c1.858-1.49,3.75-2.235,5.674-2.235c0.863,0,1.667,0.107,2.414,0.323c0.746,0.215,1.451,0.504,2.115,0.869v6.307
	C119.231,21.132,118.336,20.536,117.507,20.337L117.507,20.337z M145.676,27.29h-18.814c0.2,0.959,0.556,1.854,1.07,2.682
	c0.514,0.827,1.145,1.54,1.892,2.136c0.746,0.596,1.601,1.066,2.563,1.414s1.974,0.523,3.036,0.523c1.726,0,3.343-0.283,4.853-0.846
	c1.509-0.563,2.795-1.291,3.857-2.186v5.166c-1.361,0.861-2.845,1.539-4.455,2.035c-1.609,0.498-3.276,0.746-5.002,0.746
	c-1.792,0-3.475-0.348-5.051-1.043s-2.945-1.639-4.106-2.832c-1.161-1.191-2.082-2.59-2.762-4.195
	c-0.68-1.606-1.021-3.303-1.021-5.091c0-1.655,0.324-3.211,0.971-4.668c0.647-1.457,1.526-2.732,2.638-3.824
	c1.111-1.093,2.406-1.962,3.882-2.607c1.477-0.646,3.061-0.969,4.753-0.969c1.593,0,3.153,0.248,4.679,0.745
	c1.526,0.497,2.854,1.291,3.981,2.384c1.128,1.092,1.983,2.5,2.563,4.221C145.783,22.803,145.941,24.873,145.676,27.29
	L145.676,27.29z M139.504,20.982c-0.332-0.497-0.771-0.927-1.319-1.291c-0.548-0.364-1.187-0.663-1.917-0.894
	c-0.729-0.232-1.51-0.348-2.339-0.348c-1.494,0-2.837,0.389-4.031,1.167c-1.195,0.778-2.074,1.746-2.638,2.905h12.741
	C140.001,21.992,139.835,21.479,139.504,20.982L139.504,20.982z M282.57,38.465v-1.49c-1.925,1.324-4.032,1.986-6.321,1.986
	c-1.028,0-2.141-0.166-3.335-0.496c-1.194-0.332-2.314-0.895-3.359-1.689s-1.916-1.846-2.613-3.154
	c-0.697-1.307-1.045-2.922-1.045-4.842V14.874h4.978v13.012c0,0.828,0.141,1.598,0.423,2.309c0.281,0.711,0.672,1.333,1.169,1.862
	c0.498,0.531,1.07,0.943,1.718,1.242c0.646,0.297,1.335,0.447,2.065,0.447c1.194,0,2.331-0.141,3.409-0.422s2.049-0.721,2.912-1.316
	V14.874h4.977v23.591H282.57L282.57,38.465z M309.37,35.037c-0.548,1.025-1.277,1.854-2.19,2.482
	c-0.912,0.629-1.99,1.076-3.234,1.342s-2.563,0.396-3.957,0.396c-1.692,0-3.276-0.289-4.753-0.869
	c-1.478-0.578-2.796-1.398-3.957-2.457v-6.705c0.796,1.59,1.958,2.83,3.484,3.725c1.525,0.895,3.234,1.342,5.126,1.342
	c0.266,0,0.697-0.01,1.294-0.025c0.598-0.018,1.194-0.115,1.792-0.299c0.597-0.182,1.128-0.463,1.593-0.844
	c0.464-0.381,0.696-0.951,0.696-1.713c0-0.695-0.34-1.217-1.02-1.565c-0.681-0.348-1.535-0.638-2.563-0.869l-3.335-0.745
	c-1.194-0.265-2.307-0.662-3.334-1.192c-1.029-0.53-1.884-1.258-2.563-2.186c-0.681-0.927-1.021-2.201-1.021-3.823
	c0-0.994,0.224-1.929,0.672-2.807c0.447-0.877,1.053-1.646,1.816-2.309c0.764-0.662,1.659-1.184,2.688-1.565
	c1.029-0.38,2.124-0.57,3.285-0.57c1.493,0,2.929,0.207,4.306,0.621s2.646,0.985,3.807,1.713v5.711
	c-0.962-0.927-2.14-1.672-3.533-2.235s-2.92-0.844-4.579-0.844c-0.963,0-1.783,0.149-2.464,0.447
	c-0.68,0.298-1.021,0.91-1.021,1.838c0,0.794,0.341,1.39,1.021,1.787c0.681,0.397,1.535,0.721,2.563,0.969
	c1.028,0.249,2.132,0.497,3.31,0.745c1.178,0.248,2.281,0.621,3.31,1.117c1.029,0.497,1.883,1.175,2.563,2.036
	c0.681,0.861,1.021,2.037,1.021,3.526C310.191,32.736,309.918,34.012,309.37,35.037L309.37,35.037z"/>
<g id="text_copy">
	<path fill="#645F68" d="M206.59,13.657c0,0-3.483-1.459-3.483-3.476s3.483-3.527,3.483-3.527s3.484,1.605,3.484,3.527
		S206.59,13.657,206.59,13.657L206.59,13.657z"/>
	<path fill="#645F68" d="M204.102,38.465c0,0,0-17.667,0-20.403S209.029,15,209.029,15v19.844c0,0,0,3.621-2.561,3.621
		C204.283,38.465,204.102,38.465,204.102,38.465z"/>
	<path fill="#645F68" d="M251.563,38.465c-2.797,0-2.766-3.465-2.766-3.465V24.31c0-0.629-0.141-1.233-0.424-1.813
		c-0.281-0.579-0.672-1.084-1.169-1.515c-0.498-0.43-1.078-0.77-1.742-1.018c-0.664-0.248-1.377-0.373-2.14-0.373
		c-1.261,0-2.423,0.307-3.484,0.918c-1.063,0.613-1.925,1.399-2.588,2.359v11.568c0,0,0.125,4.027-2.625,4.027
		c-1.813,0-2.353,0-2.353,0V3.7c0,0,0.77,0,1.54,0c3.938,0,3.438,3.237,3.438,3.237v9.376c0.896-0.529,1.857-0.943,2.887-1.241
		c1.028-0.298,2.106-0.447,3.234-0.447c1.394,0,2.713,0.257,3.957,0.77c1.245,0.513,2.348,1.217,3.311,2.11
		c0.962,0.894,1.725,1.929,2.289,3.104c0.564,1.175,0.846,2.408,0.846,3.7v14.155C253.773,38.465,253.438,38.465,251.563,38.465z"/>
	<path fill="#645F68" d="M26.149,36.181c-1.13-1.408-19.817-23.434-19.817-23.434s0,21.66,0,23.285c0,1.422-0.504,2.473-2.082,2.473
		c-1.219,0-2.746,0.012-2.746,0.012V3.7c0,0,0.129,0,0.913,0c3.917,0,6.599,3.814,6.599,3.814l19.066,23.053V3.7
		c0,0,4.877,0,4.877,2.987c0,1.737,0,31.777,0,31.777c-1.806,0-0.136,0-1.806,0C28.344,38.465,27.279,37.589,26.149,36.181z"/>
	<path fill="#645F68" d="M53.43,18.475c-0.68-1.341-1.509-2.359-2.488-3.054c-0.979-0.695-2.025-1.15-3.136-1.366
		c-1.112-0.215-2.099-0.323-2.961-0.323c-1.162,0-2.413,0.076-3.633,0.571c-4.915,1.994-4.87,5.476-4.979,5.932
		c-0.149,0.619-0.003,2.036-0.003,2.036c1.394-1.258,3.042-2.373,4.335-2.853c1.294-0.48,2.654-0.72,4.081-0.72
		c0.963,0,1.759,0.116,2.39,0.348c0.63,0.231,1.128,0.571,1.493,1.018c0.365,0.446,0.614,1.009,0.747,1.688
		c0.132,0.679,0.199,1.448,0.199,2.309c-2.588,0-4.77,0.215-6.545,0.646c-1.775,0.43-3.218,1.009-4.33,1.737
		c-1.112,0.729-1.908,1.59-2.389,2.583c-0.481,0.993-0.722,2.037-0.722,3.128c0,0.961,0.215,1.846,0.647,2.658
		c0.431,0.811,1.012,1.531,1.742,2.16s1.584,1.117,2.563,1.465c0.979,0.348,2.032,0.521,3.16,0.521c0.896,0,1.883-0.15,2.961-0.447
		c1.079-0.299,2.049-0.729,2.912-1.291c0,0,0.229,1.242,1.401,1.242c1.344,0,3.576,0,3.576,0V23.813
		C54.451,21.595,54.111,19.815,53.43,18.475z M49.474,33.199c-0.664,0.396-1.402,0.721-2.215,0.969s-1.584,0.373-2.314,0.373
		c-1.294,0-2.397-0.15-3.31-0.447c-0.912-0.299-1.368-0.977-1.368-2.037c0-0.729,0.24-1.324,0.721-1.788
		c0.482-0.463,1.137-0.819,1.966-1.067s1.809-0.422,2.937-0.521c1.128-0.1,2.323-0.149,3.583-0.149V33.199z"/>
	<path fill="#645F68" d="M64.942,19.84v9.784c0,1.291,0.332,2.351,0.995,3.179c0.664,0.826,1.494,1.242,2.489,1.242
		c0.863,0,1.792-0.158,2.788-0.473c0.995-0.314,3.269-1.756,3.269-1.756s0.081,1.309-0.658,3.073
		c-0.747,1.785-2.333,3.309-4.783,3.693c-1.18,0.186-2.921,0.228-3.95-0.169s-1.925-0.951-2.688-1.664
		c-0.763-0.711-1.36-1.547-1.792-2.508c-0.431-0.961-0.646-2.002-0.646-3.129V19.84c-1.548,0,0.702,0-2.215,0
		c-3.25,0-2.713-4.966-2.713-4.966h4.928v-4.718c0,0,1.302,0,3.452,0c1.85,0,1.525,4.718,1.525,4.718s4.35,0,6.683,0
		c2.667,0,2.321,4.966,2.321,4.966H64.942L64.942,19.84z"/>
	<path fill="#645F68" d="M221.254,19.84v9.784c0,1.291,0.332,2.351,0.994,3.179c0.664,0.826,1.494,1.242,2.489,1.242
		c0.862,0,1.792-0.158,2.788-0.473c0.994-0.314,1.874-0.754,2.637-1.316c0,0,0.672,3.661-4.475,5.869
		c-1.098,0.471-3.256,0.686-4.285,0.289c-1.028-0.396-1.924-0.951-2.688-1.664c-0.763-0.711-1.359-1.547-1.792-2.508
		c-0.431-0.961-0.646-2.002-0.646-3.129V19.84c-1.548,0,0.702,0-2.215,0c-3.25,0-2.713-4.966-2.713-4.966h4.928v-4.718
		c0,0,1.302,0,3.452,0c1.85,0,1.525,4.718,1.525,4.718s4.35,0,6.683,0c2.667,0,2.321,4.966,2.321,4.966H221.254L221.254,19.84z"/>
	<path fill="#645F68" d="M95.344,38.465c-1.5,0-1.985-1.49-1.985-1.49c-1.925,1.324-4.032,1.986-6.321,1.986
		c-1.029,0-2.14-0.166-3.334-0.496c-1.195-0.332-2.314-0.895-3.359-1.689c-1.046-0.795-1.916-1.846-2.613-3.154
		c-0.697-1.307-1.045-2.922-1.045-4.842V14.874c0,0,0.75,0,1.814,0c1.592,0,3.162,0.313,3.162,2.095c0,1.157,0,10.917,0,10.917
		c0,0.828,0.142,1.598,0.423,2.309c0.282,0.711,0.672,1.333,1.169,1.862c0.498,0.531,1.07,0.943,1.717,1.242
		c0.647,0.297,1.335,0.447,2.065,0.447c1.195,0,2.331-0.141,3.409-0.422c1.079-0.281,2.049-0.721,2.912-1.316c0,0,0-12.134,0-14.664
		s2.36-2.47,3.485-2.47s1.492,0,1.492,0v23.591h-0.742C97.594,38.465,96.344,38.465,95.344,38.465z"/>
	<path fill="#645F68" d="M284.844,38.465c-1.5,0-1.984-1.49-1.984-1.49c-1.926,1.324-4.032,1.986-6.322,1.986
		c-1.028,0-2.139-0.166-3.334-0.496c-1.195-0.332-2.314-0.895-3.359-1.689c-1.046-0.795-1.916-1.846-2.613-3.154
		c-0.697-1.307-1.045-2.922-1.045-4.842V14.874c0,0,0.75,0,1.814,0c1.592,0,3.162,0.313,3.162,2.095c0,1.157,0,10.917,0,10.917
		c0,0.828,0.142,1.598,0.424,2.309c0.281,0.711,0.672,1.333,1.169,1.862c0.498,0.531,1.07,0.943,1.718,1.242
		c0.646,0.297,1.335,0.447,2.064,0.447c1.195,0,2.332-0.141,3.41-0.422s2.049-0.721,2.912-1.316c0,0,0-12.134,0-14.664
		s2.359-2.47,3.484-2.47s1.492,0,1.492,0v23.591h-0.742C287.094,38.465,285.844,38.465,284.844,38.465z"/>
	<path fill="#645F68" d="M113.5,20.25c-2.063-1.281-4.127-0.311-4.625-0.063c-0.498,0.248-1.37,1.085-1.802,1.565
		c-0.431,0.48-0.829,1.117-1.194,1.912c0,0,0,11.52,0,12.711s-1.598,2.09-2.941,2.09c-1.156,0-1.986,0-1.986,0V14.874
		c0,0,1.132,0,2.956,0c1.551,0,2.021,1.987,2.021,1.987c1.858-1.49,3.614-2.061,5.533-1.912c1.604,0.125,2.664,0.697,3.726,2.113
		c1.287,1.716,0.792,5.075,0.792,5.075S114.849,21.088,113.5,20.25z"/>
	<path fill="#645F68" d="M139.563,26c1.246-1.454,1.408-3.197,0.828-4.918c-0.581-1.721-1.435-3.128-2.563-4.221
		c-1.128-1.093-2.455-1.888-3.981-2.384c-1.526-0.497-3.086-0.745-4.679-0.745c-1.692,0-3.276,0.323-4.753,0.969
		c-1.476,0.645-2.771,1.514-3.882,2.607c-1.112,1.092-1.991,2.367-2.638,3.824c-0.647,1.457-0.971,3.013-0.971,4.668
		c0,1.788,0.34,3.484,1.021,5.091c0.681,1.605,1.601,3.004,2.762,4.195c1.162,1.193,2.53,2.137,4.106,2.832s5.5,1.271,7.588,0.773
		c4.129-0.983,5.264-2.383,6.246-3.691c1.125-1.5,0.674-3.986,0.674-3.986c-1.062,0.895-2.348,1.623-3.857,2.186
		c-1.51,0.563-3.127,0.846-4.853,0.846c-1.062,0-2.074-0.176-3.036-0.523s-1.817-0.818-2.563-1.414
		c-0.747-0.596-1.377-1.309-1.892-2.136c-0.514-0.828-0.871-1.722-1.07-2.682c0,0,10.805,0,12.888,0S138.563,27.167,139.563,26z
		 M122.021,23.125c0.563-1.159,1.87-2.73,3.065-3.508c1.194-0.778,2.538-1.187,4.031-1.167c3.82,0.05,5.474,1.082,6.529,2.634
		c0.708,1.042,0.833,1.782-0.833,2.042C133.748,23.291,122.021,23.125,122.021,23.125z"/>
	<path fill="#645F68" d="M307.954,35.037c-0.548,1.025-1.277,1.854-2.19,2.482c-0.912,0.629-1.99,1.076-3.234,1.342
		s-2.57,0.534-3.957,0.396c-2.988-0.297-6.551-1.383-7.955-4.903c-1.06-2.656-0.755-5.128-0.755-5.128
		c0.796,1.59,1.958,2.83,3.484,3.725c1.525,0.895,3.234,1.342,5.126,1.342c0.266,0,0.697-0.01,1.294-0.025
		c0.598-0.018,1.194-0.115,1.792-0.299c0.597-0.182,1.128-0.463,1.593-0.844c0.464-0.381,0.696-0.951,0.696-1.713
		c0-0.695-0.34-1.217-1.02-1.565c-0.681-0.348-1.535-0.638-2.563-0.869l-3.335-0.745c-1.194-0.265-2.307-0.662-3.334-1.192
		c-1.029-0.53-1.884-1.258-2.563-2.186c-0.681-0.927-1.021-2.201-1.021-3.823c0-0.994,0.224-1.929,0.672-2.807
		c0.447-0.877,1.053-1.646,1.816-2.309c0.764-0.662,1.659-1.184,2.688-1.565c1.029-0.38,2.124-0.57,3.285-0.57
		c1.493,0,2.91,0.155,4.194,0.802c1.587,0.799,2.501,1.491,3.376,2.875s0.542,4.368,0.542,4.368
		c-0.962-0.927-2.14-1.672-3.533-2.235s-2.92-0.844-4.579-0.844c-0.963,0-1.783,0.149-2.464,0.447
		c-0.68,0.298-1.021,0.91-1.021,1.838c0,0.794,0.341,1.39,1.021,1.787c0.681,0.397,1.535,0.721,2.563,0.969
		c1.028,0.249,2.132,0.497,3.31,0.745c1.178,0.248,2.281,0.621,3.31,1.117c1.029,0.497,1.883,1.175,2.563,2.036
		c0.681,0.861,1.021,2.037,1.021,3.526C308.775,32.736,308.502,34.012,307.954,35.037L307.954,35.037z"/>
</g>
<g id="flower_copy">
	<path fill-rule="evenodd" clip-rule="evenodd" fill="#BC9906" d="M149.667,3.375c0,0,3.742,0.439,7.271,3.279
		c1.712,1.377,3.949,3.544,6.161,6.002c0.392,0.436,1.117-1.606,1.504-1.156c3.174,3.695,5.758,10.307,6.736,13.341
		c0.861,2.67,1.56,4.994,2.37,6.909c2.007,4.742,4.584,6.375,4.584,6.375s-5.172,2.263-11.147,0.334
		c-3.109-1.003-7.174-4.043-9.271-7.209c-1.924-2.905-4.792-8.432-5.625-12.875c-0.107-0.571,1.304,0.072,1.302-0.508
		C153.5,6.375,149.667,3.375,149.667,3.375z"/>
	<g id="paths">
		<path fill="#8B9E00" d="M200.142,20.108c-0.017-12.858,3.96-16.733,3.96-16.733s-4.568,0.968-8.519,4.25
			c-1.883,1.564-4.427,3.378-6.664,5.318c-0.516,0.447-0.806-3.247-1.277-2.787c-0.526,0.512-2.767,5.219-5.434,8.594
			c-3.292,4.166-6.327,8.877-5.447,13.375c0.975,4.981,5.202,6.464,7.812,6.91c0.78,0.202,7.664,1.709,12.137-6.842
			c1.217-2.325,4.297-8.354,4.992-11.715C201.924,19.405,200.143,21.226,200.142,20.108z"/>
		<path fill="#BCBC1D" d="M183.875,13.417c0.088-0.407-7.014-4.969-12.646-11.417c0,0,0.015,4.179,0.456,9.627
			c0.038,0.466-1.813-0.485-1.769-0.002c0.519,5.644,2.852,13.313,5.129,18.398c1.372-5.398,2.528-6.624,4.973-9.96
			C182.094,17.23,183.563,14.857,183.875,13.417z"/>
		<path fill="#DDCC83" d="M176.418,36.325c-0.394-0.476-0.821-1.062-1.257-1.76c-2.907-3.085-10.559-9.649-10.559-9.649
			C170.4,33.927,174.045,35.236,176.418,36.325z"/>
		<path fill="#CACC71" d="M180.574,37.615c0.598,0.357,1.216,0.638,1.818,0.854c5.563-5.658,7.969-13.553,7.969-13.553
			C187.42,31.178,182.228,36.142,180.574,37.615z"/>
	</g>
</g>
</svg>
