<?xml version="1.0" encoding="UTF-8"?>
<svg width="9px" height="27px" viewBox="0 0 9 27" version="1.1" xmlns="http://www.w3.org/2000/svg" xmlns:xlink="http://www.w3.org/1999/xlink">
    <!-- Generator: Sketch 46.2 (44496) - http://www.bohemiancoding.com/sketch -->
    <title>icon-art-sculpture</title>
    <desc>Created with Sketch.</desc>
    <defs>
        <path d="M17.2365001,23.409217 L15.2324296,23.409217 L16.6777186,21.9491889 C16.7583496,21.8676909 16.8034336,21.7571484 16.8030001,21.6422709 C16.8025666,21.5269599 16.7561821,21.4172844 16.6742506,21.3362199 L13.947969,18.6376824 L16.6777186,15.8801889 C16.7583496,15.7986909 16.8034336,15.6881484 16.8030001,15.5732709 C16.8025666,15.4579599 16.7561821,15.3482844 16.6742506,15.2672199 L13.947969,12.5686824 L16.6777186,9.81118884 C16.7583496,9.72969084 16.8034336,9.61914833 16.8030001,9.50427083 C16.8025666,9.38895983 16.7561821,9.27928433 16.6742506,9.19821983 L13.947969,6.49968231 L16.6777186,3.74218878 C16.7583496,3.66069078 16.8034336,3.55014828 16.8030001,3.43527078 C16.8025666,3.31995978 16.7561821,3.21028428 16.6742506,3.12921978 L13.6397505,0.125498251 C13.471119,-0.0418327504 13.198881,-0.0418327504 13.0302495,0.125498251 L9.99574951,3.12921978 C9.91381801,3.21028428 9.86743351,3.31995978 9.86700001,3.43527078 C9.86656651,3.55014828 9.91165051,3.66069078 9.99228151,3.74218878 L12.722031,6.49968231 L9.99574951,9.19821983 C9.91381801,9.27928433 9.86743351,9.38895983 9.86700001,9.50427083 C9.86656651,9.61914833 9.91165051,9.72969084 9.99228151,9.81118884 L12.722031,12.5686824 L9.99574951,15.2672199 C9.91381801,15.3482844 9.86743351,15.4579599 9.86700001,15.5732709 C9.86656651,15.6881484 9.91165051,15.7986909 9.99228151,15.8801889 L12.722031,18.6376824 L9.99574951,21.3362199 C9.91381801,21.4172844 9.86743351,21.5269599 9.86700001,21.6422709 C9.86656651,21.7571484 9.91165051,21.8676909 9.99228151,21.9491889 L11.4375705,23.409217 L9.4335,23.409217 C9.1937745,23.409217 9,23.603425 9,23.842717 L9,25.576717 C9,25.816009 9.1937745,26.010217 9.4335,26.010217 L17.2365001,26.010217 C17.4762256,26.010217 17.6700001,25.816009 17.6700001,25.576717 L17.6700001,23.842717 C17.6700001,23.603425 17.4762256,23.409217 17.2365001,23.409217" id="path-1"></path>
    </defs>
    <g id="Symbols" stroke="none" stroke-width="1" fill="none" fill-rule="evenodd">
        <g id="_Settings/Elements/Icon/Category/Sculpture" transform="translate(-9.000000, 0.000000)">
            <mask id="mask-2" fill="white">
                <use xlink:href="#path-1"></use>
            </mask>
            <use id="icon-art-sculpture" fill="#FFFFFF" fill-rule="nonzero" xlink:href="#path-1"></use>
        </g>
    </g>
</svg>