<?xml version="1.0" encoding="UTF-8"?>
<svg width="22px" height="26px" viewBox="0 0 22 26" version="1.1" xmlns="http://www.w3.org/2000/svg" xmlns:xlink="http://www.w3.org/1999/xlink">
    <!-- Generator: Sketch 46.2 (44496) - http://www.bohemiancoding.com/sketch -->
    <title>icon-art-totem</title>
    <desc>Created with Sketch.</desc>
    <defs>
        <path d="M12.9907366,25.9500924 C13.1017215,25.9527338 16.1720808,26.0242426 16.1720808,25.8510277 C16.1720808,25.673276 15.9732901,24.1714218 15.9732901,24.1714218 C15.8621615,23.4207644 15.1697657,23.498986 15.1697657,23.498986 L15.2196657,22.4052326 C15.2196657,21.6100698 14.6729238,21.2623884 14.6729238,21.2623884 L15.1201355,21.2623884 L15.1703052,20.4669559 C15.1703052,20.0197443 14.6729238,19.6221629 14.6729238,19.6221629 L15.1201355,19.1247816 L15.1697657,16.2424515 L14.6723844,15.7456097 C15.0203355,15.5470887 15.1697657,14.5525958 15.1697657,14.5525958 L15.2196657,10.7254031 L14.6729238,10.7254031 L15.070775,10.3744849 L15.617247,9.83044037 C15.6668773,10.2282915 16.3131493,10.3744849 16.3131493,10.3744849 L16.5615702,9.68154965 C16.6117399,10.4270822 17.5061632,10.373406 17.5061632,10.373406 L17.7545841,9.88007061 C18.052905,10.5263426 18.5497468,10.3520973 18.5497468,10.3520973 L18.5999165,9.73117989 C19.2459189,10.6757728 20.8864141,10.2617379 20.8864141,10.2617379 L20.8365141,9.88007061 C20.8365141,9.88007061 20.3391328,9.68127992 21.5321466,10.1781218 C22.7254302,10.6752334 23.6195837,8.78658696 23.6195837,8.78658696 L23.2719023,8.28947538 C23.2719023,8.28947538 23.2719023,8.28947538 23.6694837,8.09068469 C24.0670651,7.891894 23.9675348,6.64924991 23.9675348,5.72974183 C23.9675348,4.81023375 23.8685441,5.00902444 23.5203232,5.00902444 C23.1721024,5.00902444 21.3829862,5.35697557 20.6374537,5.6053965 C19.8919212,5.85381743 19.7427607,5.85381743 19.7427607,5.85381743 C19.7427607,5.85381743 17.3076422,6.10223835 16.0150981,6.09279782 C14.7228238,6.08362701 15.070775,6.45018949 15.070775,6.45018949 C14.8719843,6.00297787 14.6729238,6.10223835 14.6729238,6.10223835 C15.5042304,5.30896371 15.1344311,3.28383415 15.1344311,3.28383415 C15.1344311,3.28383415 15.1012544,1.19585761 15.1012544,0.699015755 C15.1012544,0.201904171 14.7034033,-0.0300632531 14.0738545,0.00311348313 C13.4443057,0.0360204898 13.3447755,0.56630881 13.2452453,1.26221108 C13.1826793,1.7008533 13.0643874,2.21836894 12.985478,2.54105189 C12.9067681,2.21677451 12.7942907,1.71921361 12.733838,1.29538782 C12.6343078,0.599485546 12.5350473,0.069197226 11.9054985,0.0360204898 C11.27568,0.00284375357 10.8780986,0.234811177 10.8780986,0.731922761 C10.8780986,1.22903435 10.8449219,3.31674116 10.8449219,3.31674116 C10.8449219,3.31674116 10.4743135,5.34187072 11.3058897,6.13541509 C11.3058897,6.13541509 11.1068293,6.03615461 10.9080386,6.48336622 C10.9080386,6.48336622 11.2559897,6.11653402 9.96371541,6.12597455 C8.67144108,6.13541509 6.23605286,5.88699416 6.23605286,5.88699416 C6.23605286,5.88699416 6.08689241,5.88699416 5.3413599,5.63830351 C4.59582739,5.38988258 2.8067112,5.04193144 2.45849033,5.04193144 C2.11026947,5.04193144 2.01100899,4.84341048 2.01100899,5.76264883 C2.01100899,6.68215691 1.91174851,7.92480101 2.30932989,8.12359169 C2.70691126,8.32238238 2.70691126,8.32238238 2.70691126,8.32238238 L2.35896013,8.81949397 C2.35896013,8.81949397 3.25338335,10.7081404 4.44666694,10.2112985 C5.63941107,9.71418693 5.14256921,9.91324734 5.14256921,9.91324734 L5.09293897,10.2949147 C5.09293897,10.2949147 6.73316444,10.7086798 7.37916674,9.76408689 L7.42879698,10.3850043 C7.42879698,10.3850043 7.9261783,10.5592496 8.22422946,9.91324734 L8.47265039,10.406313 C8.47265039,10.406313 9.36734335,10.4599892 9.41697359,9.71445666 L9.66539452,10.4073919 C9.66539452,10.4073919 10.3116665,10.2611985 10.3612968,9.8636171 L10.9077689,10.4073919 L11.30562,10.7583101 L10.7588782,10.7583101 L10.8085084,14.5855028 C10.8085084,14.5855028 10.9576689,15.579726 11.30562,15.778247 L10.8085084,16.2756283 L10.8584084,19.1582281 L11.3058897,19.65507 C11.3058897,19.65507 10.8087781,20.0529211 10.8087781,20.5001327 L10.8584084,21.2952954 L11.3058897,21.2952954 C11.3058897,21.2952954 10.7591479,21.6435163 10.7591479,22.4384093 L10.8087781,23.531893 C10.8087781,23.531893 10.1158429,23.4536714 10.0052538,24.2045985 C10.0052538,24.2045985 9.80646308,25.7064527 9.80646308,25.883665 C9.80646308,26.0608773 12.9906206,25.9829255 12.9906206,25.9829255 L12.9907371,25.9500924 Z" id="path-1"></path>
    </defs>
    <g id="Symbols" stroke="none" stroke-width="1" fill="none" fill-rule="evenodd">
        <g id="_Settings/Elements/Icon/Category/Totem" transform="translate(-2.000000, 0.000000)">
            <mask id="mask-2" fill="white">
                <use xlink:href="#path-1"></use>
            </mask>
            <use id="icon-art-totem" fill="#FFFFFF" fill-rule="nonzero" xlink:href="#path-1"></use>
        </g>
    </g>
</svg>