<?xml version="1.0" encoding="UTF-8"?>
<svg width="26px" height="26px" viewBox="0 0 26 26" version="1.1" xmlns="http://www.w3.org/2000/svg" xmlns:xlink="http://www.w3.org/1999/xlink">
    <!-- Generator: Sketch 46.2 (44496) - http://www.bohemiancoding.com/sketch -->
    <title>icon-art-mural</title>
    <desc>Created with Sketch.</desc>
    <defs>
        <path d="M24.3111357,0.286128149 C24.9606989,-0.362614908 26,0.156379538 26,1.19436843 C25.8700874,3.65959204 25.0906115,7.55205038 22.3624461,9.75777678 C20.5436691,11.1850115 18.2052416,11.3147601 16.6462899,9.62802817 C15.3471636,8.07104483 15.4770762,5.73556983 16.7762026,4.3083351 C19.3744554,1.19436843 20.6735818,3.27034621 24.3111357,0.286128149 Z M13.1386487,9.23878233 C13.2685613,9.10903372 13.5283866,9.10903372 13.5283866,9.36853094 C13.7882119,10.1470226 14.1779498,10.7957657 14.6976004,11.3147601 C15.2172509,11.9635032 15.8668141,12.352749 16.5163773,12.7419948 C16.7762026,12.8717435 16.7762026,13.0014921 16.6462899,13.1312407 C11.8395223,17.9319393 2.35589959,27.7928338 0.277297359,25.716856 C-1.80130487,23.6408782 8.33188101,13.9097323 13.1386487,9.23878233 Z" id="path-1"></path>
    </defs>
    <g id="Symbols" stroke="none" stroke-width="1" fill="none" fill-rule="evenodd">
        <g id="_Settings/Elements/Icon/Category/Mural">
            <mask id="mask-2" fill="white">
                <use xlink:href="#path-1"></use>
            </mask>
            <use id="icon-art-mural" fill="#FFFFFF" fill-rule="nonzero" xlink:href="#path-1"></use>
        </g>
    </g>
</svg>