<?xml version="1.0" encoding="UTF-8"?>
<svg width="26px" height="26px" viewBox="0 0 26 26" version="1.1" xmlns="http://www.w3.org/2000/svg" xmlns:xlink="http://www.w3.org/1999/xlink">
    <!-- Generator: Sketch 46.2 (44496) - http://www.bohemiancoding.com/sketch -->
    <title>icon-art-installation</title>
    <desc>Created with Sketch.</desc>
    <defs>
        <path d="M25.5229733,21.9041648 L17.1871991,14.1141345 C17.0609441,14.0340668 16.9275413,13.9803814 16.7948028,13.9527291 C16.1395859,13.8163092 15.5385145,13.4918794 15.0696756,13.012616 L10.4203779,8.24792002 C10.3824571,8.20912432 10.3808758,8.1462956 10.4193975,8.10810311 C10.5759828,7.95269808 10.5765205,7.69928788 10.4210105,7.5431844 L9.31346403,6.43144317 C9.11857836,6.23584554 8.98074783,5.98599108 8.93862065,5.71261157 C8.50159856,2.8790969 11.4912686,1.17361003 12.2498426,1.08957385 C12.3953901,1.07344602 12.5021629,0.94750286 12.4968496,0.800606216 C12.4915362,0.653709572 12.3742949,0.535766837 12.2279251,0.530179241 L11.9467609,0.509225754 C9.08170126,0.295754166 5.17668211,3.83594106 3.30667161,6.03710489 C3.0894889,6.29273743 2.96430917,6.61323054 2.95352436,6.94902605 L2.93641415,7.48111763 C2.93641415,7.83862857 2.78172642,8.0694979 2.55246219,8.22604585 C2.28764919,8.40684904 1.9459193,8.42224668 1.64432408,8.31408224 C1.46446125,8.24960264 1.26252276,8.20718771 1.17431501,8.29573206 L0.132299757,9.34172379 C-0.044115732,9.51881251 -0.044084105,9.80590703 0.132299757,9.982964 L2.40795835,12.2673068 C2.58437384,12.4443638 2.87034531,12.4443638 3.04672917,12.2673068 L4.08874443,11.2213151 C4.26389484,11.0454963 4.26515992,10.7563699 4.08962999,10.5809638 C3.95451938,10.4459091 3.8912021,10.2508194 3.93348742,10.0642381 C3.98124421,9.85368733 4.06508742,9.6526291 4.21952214,9.49760504 C4.76233659,8.95271913 5.27788856,8.67530766 5.74163548,8.56038096 C6.19640033,8.44774009 6.67611889,8.59076351 7.00731699,8.92325726 L8.02681381,9.94661287 C8.18175455,10.1021449 8.43299956,10.1021449 8.58794031,9.94661287 L8.64768374,9.88664145 C8.68642683,9.84775051 8.74907995,9.84736954 8.78832907,9.88572077 L13.5522114,14.5271087 C14.0352192,14.9994193 14.3556957,15.6083086 14.498808,16.2697721 C14.5268928,16.3996837 14.5796783,16.530008 14.6574175,16.6535384 L22.4178014,25.021123 C22.924561,25.5298165 23.6237394,25.6527119 23.9794801,25.2956137 L25.7963888,23.4717713 C26.1521295,23.1146731 26.0297013,22.4128266 25.5229733,21.9041648 Z" id="path-1"></path>
    </defs>
    <g id="Symbols" stroke="none" stroke-width="1" fill="none" fill-rule="evenodd">
        <g id="_Settings/Elements/Icon/Category/Installation">
            <mask id="mask-2" fill="white">
                <use xlink:href="#path-1"></use>
            </mask>
            <use id="icon-art-installation" fill="#FFFFFF" fill-rule="nonzero" xlink:href="#path-1"></use>
        </g>
    </g>
</svg>