<?xml version="1.0" encoding="UTF-8"?>
<svg width="17px" height="26px" viewBox="0 0 17 26" version="1.1" xmlns="http://www.w3.org/2000/svg" xmlns:xlink="http://www.w3.org/1999/xlink">
    <!-- Generator: Sketch 46.2 (44496) - http://www.bohemiancoding.com/sketch -->
    <title>icon-art-statue</title>
    <desc>Created with Sketch.</desc>
    <defs>
        <path d="M15.2096665,10.9813682 L14.9333051,9.46355843 C15.3438983,8.98314017 15.4729831,8.5905434 15.5597119,7.96423745 L15.6144576,7.57019625 L15.781,7.26513209 L15.8982712,7.38588666 L16.0962203,7.38588666 L16.2682373,7.29604295 L16.4111525,7.04037839 L16.5696271,6.75871404 L16.7344407,6.19567424 L16.7344407,5.35905891 L16.6557797,5.09414998 L16.5776949,4.94104013 L16.3172203,4.92977355 L16.3172203,4.26764567 C16.3172203,2.91825679 16.5347627,2.48348259 15.7668814,1.36722512 L15.3467797,1.13524925 L14.9563559,1.12022715 L14.8362034,0.852429359 L14.4477966,0.457810387 C12.0294746,-0.541159162 10.5565254,0.121257604 8.93605085,2.1856406 L8.72283051,3.3954973 L8.72283051,5.00546182 L8.38455932,5.00546182 L8.26584746,5.12563861 L8.36871186,6.34762854 L8.97494915,7.36075353 C8.97494915,7.36075353 9.26711864,7.42575299 9.36277966,7.42575299 C9.45613559,7.42575299 9.52644068,7.37866449 9.52644068,7.37866449 L9.77971186,8.51081072 L10.192322,9.35204824 L10.2196949,10.0546202 L9.80060618,10.9824306 L9.79930508,10.9813682 L9.34866102,10.9813682 L8.21283051,12.2429355 C6.72345763,12.5875771 5.45335593,12.4356228 4.58289831,13.8670555 L4.1570339,15.0361792 L4,15.973327 C4.81081356,16.5366557 6.87444068,18.3745517 7.98577966,19.6600967 C9.09740678,20.9450639 9.45872881,20.4863121 9.85981356,21.1949507 L12.5,21.1949507 L15.1401864,21.1949507 C15.5421356,20.4863121 15.9025932,20.9450639 17.0150847,19.6600967 C18.127,18.3745517 20.190339,16.5366557 21,15.973327 L20.8438305,15.0361792 L20.417678,13.8670555 C19.548661,12.435334 18.2776949,12.5875771 16.7877458,12.2429355 L15.6524915,10.9813682 L15.2096665,10.9813682 Z M15.7965593,23.8960396 C15.9587797,23.8960396 16.0924746,24.0321051 16.0921864,24.1982148 L16.0921864,25.6969581 C16.0921864,25.8639345 15.9587797,26 15.7965593,26 L9.20459322,26 C9.0409322,26 8.90810169,25.8639345 8.90810169,25.6969581 L8.90810169,24.1982148 C8.90810169,24.032394 9.0409322,23.8960396 9.20459322,23.8960396 L15.7965593,23.8960396 Z M12.5,23.3243332 L9.58550847,23.3243332 C9.83589831,22.8439149 9.95835593,22.3542523 9.91657627,21.8550564 L12.5,21.8550564 L15.1485424,21.8550564 C15.105322,22.3542523 15.164678,22.8439149 15.4142034,23.3243332 L12.5,23.3243332 Z" id="path-1"></path>
    </defs>
    <g id="Symbols" stroke="none" stroke-width="1" fill="none" fill-rule="evenodd">
        <g id="_Settings/Elements/Icon/Category/Statue" transform="translate(-4.000000, 0.000000)">
            <mask id="mask-2" fill="white">
                <use xlink:href="#path-1"></use>
            </mask>
            <use id="icon-art-statue" fill="#FFFFFF" fill-rule="nonzero" xlink:href="#path-1"></use>
        </g>
    </g>
</svg>