<?xml version="1.0" encoding="UTF-8"?>
<svg width="26px" height="26px" viewBox="0 0 26 26" version="1.1" xmlns="http://www.w3.org/2000/svg" xmlns:xlink="http://www.w3.org/1999/xlink">
    <!-- Generator: Sketch 46.2 (44496) - http://www.bohemiancoding.com/sketch -->
    <title>icon-art-monument</title>
    <desc>Created with Sketch.</desc>
    <defs>
        <path d="M1.625,5.6875 C0.728,5.6875 0,4.9595 0,4.0625 C0,3.1655 0.728,2.4375 1.625,2.4375 L1.625,0.8653125 C1.625,0.388375 2.013375,0 2.4903125,0 L23.5096875,0 C23.986625,0 24.375,0.388375 24.375,0.8653125 L24.375,2.4375 C25.272,2.4375 26,3.1655 26,4.0625 C26,4.9595 25.272,5.6875 24.375,5.6875 L1.625,5.6875 Z M25.1875,14.625 C25.6368125,14.625 26,14.9881875 26,15.4375 C26,15.8868125 25.6368125,16.25 25.1875,16.25 L17.0625,16.25 C16.6131875,16.25 16.25,15.8868125 16.25,15.4375 C16.25,14.9881875 16.6131875,14.625 17.0625,14.625 L17.875,14.625 C17.875,11.9331875 15.6918125,9.75 13,9.75 C10.3081875,9.75 8.125,11.9331875 8.125,14.625 L8.9375,14.625 C9.3868125,14.625 9.75,14.9881875 9.75,15.4375 C9.75,15.8868125 9.3868125,16.25 8.9375,16.25 L0.8125,16.25 C0.3631875,16.25 0,15.8868125 0,15.4375 C0,14.9881875 0.3631875,14.625 0.8125,14.625 L1.625,14.625 L1.625,6.5 L24.375,6.5 L24.375,14.625 L25.1875,14.625 Z M8.125,23.573875 C8.57675,23.6023125 8.9375,23.9695625 8.9366875,24.4278125 L8.9366875,25.133875 C8.9366875,25.5929375 8.5759375,25.9601875 8.1241875,25.988625 C8.1063125,25.99025 8.0900625,26 8.071375,26 L1.6778125,26 C1.659125,26 1.642875,25.99025 1.625,25.9894375 C1.17325,25.961 0.8125,25.5929375 0.8125,25.1346875 L0.8125,24.428625 C0.8125,23.9695625 1.17325,23.6023125 1.625,23.573875 L1.625,17.0625 L8.125,17.0625 L8.125,23.573875 Z M24.375,23.573875 C24.82675,23.6023125 25.1875,23.9695625 25.1866875,24.4278125 L25.1866875,25.133875 C25.1866875,25.5929375 24.8259375,25.9601875 24.3741875,25.988625 C24.3563125,25.99025 24.3400625,26 24.321375,26 L17.9278125,26 C17.909125,26 17.892875,25.99025 17.875,25.9894375 C17.42325,25.961 17.0625,25.5929375 17.0625,25.1346875 L17.0625,24.428625 C17.0625,23.9695625 17.42325,23.6023125 17.875,23.573875 L17.875,17.0625 L24.375,17.0625 L24.375,23.573875 Z" id="path-1"></path>
    </defs>
    <g id="Symbols" stroke="none" stroke-width="1" fill="none" fill-rule="evenodd">
        <g id="_Settings/Elements/Icon/Category/Monument">
            <mask id="mask-2" fill="white">
                <use xlink:href="#path-1"></use>
            </mask>
            <use id="icon-art-monument" fill="#FFFFFF" fill-rule="nonzero" xlink:href="#path-1"></use>
        </g>
    </g>
</svg>