<?xml version="1.0" encoding="UTF-8"?>
<svg width="39px" height="39px" viewBox="0 0 39 39" version="1.1" xmlns="http://www.w3.org/2000/svg" xmlns:xlink="http://www.w3.org/1999/xlink">
    <!-- Generator: Sketch 46.2 (44496) - http://www.bohemiancoding.com/sketch -->
    <title>Shape</title>
    <desc>Created with Sketch.</desc>
    <defs>
        <linearGradient x1="0%" y1="0%" x2="80.3572888%" y2="128.055028%" id="linearGradient-1">
            <stop stop-color="#FAA627" offset="0%"></stop>
            <stop stop-color="#FAA627" offset="16.8816118%"></stop>
            <stop stop-color="#ED1846" offset="63.8081754%"></stop>
            <stop stop-color="#EE2E62" offset="100%"></stop>
        </linearGradient>
        <path d="M19.5,37 C29.1649831,37 37,29.1649831 37,19.5 C37,9.83501688 29.1649831,2 19.5,2 C9.83501688,2 2,9.83501688 2,19.5 C2,29.1649831 9.83501688,37 19.5,37 Z M19.5,39 C8.73044738,39 0,30.2695526 0,19.5 C0,8.73044738 8.73044738,0 19.5,0 C30.2695526,0 39,8.73044738 39,19.5 C39,30.2695526 30.2695526,39 19.5,39 Z M30.7517576,19.1369429 C30.9080842,19.2221991 31.0032708,19.3850479 30.9999141,19.5593919 C30.9982357,19.7346939 30.900172,19.8965848 30.7440851,19.9789671 L25.2285383,22.8836631 L25.9813994,25.4547584 C26.0312705,25.6243128 25.9830778,25.8060808 25.8574411,25.9306122 C25.7653715,26.0199396 25.6438108,26.0695127 25.5198524,26.0695127 C25.4738176,26.0695127 25.4258647,26.0630466 25.3779117,26.0484382 L22.8402423,25.2641295 L19.8482188,30.737526 C19.7645409,30.8919929 19.6036588,31 19.4281511,31 C19.426233,31 19.4252739,31 19.4243148,31 C19.247848,31 19.0867262,30.8869638 19.0042471,30.73106 L16.1232347,25.2686797 L13.6220095,26.0474802 C13.5750156,26.0611308 13.5270626,26.0675968 13.4791097,26.0675968 C13.3544321,26.0675968 13.2335907,26.0199396 13.1424801,25.9296543 C13.0158843,25.8063203 12.9688905,25.6233549 13.0187615,25.4526031 L13.7802542,22.8748022 L8.25703487,19.980883 C8.09974924,19.8994586 8.00096619,19.7375677 8.00000713,19.5603499 C7.99904807,19.3850479 8.09495394,19.2212411 8.25032146,19.1369429 L13.7313422,16.1568097 L12.9429959,13.6269055 C12.8902476,13.458309 12.9343643,13.2753436 13.059042,13.1488963 C13.1837196,13.022449 13.3659408,12.9745523 13.5366532,13.0253228 L16.1030944,13.7801749 L19.0054459,8.25672636 C19.0869659,8.09962516 19.2480878,8.00191587 19.4264727,8 C19.6163663,8.03544357 19.7657397,8.09483549 19.8494176,8.25002082 L22.8666164,13.7820908 L25.4656656,13.021491 C25.635419,12.9735943 25.8174004,13.0195752 25.9423178,13.1450646 C26.0657966,13.2715119 26.1111121,13.4535194 26.0581241,13.6240317 L25.2774503,16.1453145 L30.7517576,19.1369429 Z M19.5,16.3636364 C17.7706091,16.3636364 16.3636364,17.7706091 16.3636364,19.5 C16.3636364,21.2292341 17.7706091,22.6363636 19.5,22.6363636 C21.2293909,22.6363636 22.6363636,21.2292341 22.6363636,19.5 C22.6363636,17.7706091 21.2282932,16.3636364 19.5,16.3636364 Z" id="path-2"></path>
    </defs>
    <g id="Symbols" stroke="none" stroke-width="1" fill="none" fill-rule="evenodd">
        <g id="Menu/Slider/Settings/Explore-Tab" transform="translate(-20.000000, -23.000000)">
            <g id="Group-3" transform="translate(20.000000, 23.000000)">
                <mask id="mask-3" fill="white">
                    <use xlink:href="#path-2"></use>
                </mask>
                <use id="Shape" fill="url(#linearGradient-1)" fill-rule="nonzero" xlink:href="#path-2"></use>
            </g>
        </g>
    </g>
</svg>