<?xml version="1.0" encoding="UTF-8" standalone="no"?>
<svg width="25px" height="25px" viewBox="0 0 25 25" version="1.1" xmlns="http://www.w3.org/2000/svg" xmlns:xlink="http://www.w3.org/1999/xlink">
    <!-- Generator: Sketch 46.2 (44496) - http://www.bohemiancoding.com/sketch -->
    <title>my_location - material</title>
    <desc>Created with Sketch.</desc>
    <defs>
        <path d="M12.5,20.4248366 C13.9524401,20.4248366 15.2868494,20.0708096 16.503268,19.3627451 C17.701531,18.6546806 18.6546806,17.701531 19.3627451,16.503268 C20.0708096,15.2868494 20.4248366,13.9524401 20.4248366,12.5 C20.4248366,11.0475599 20.0708096,9.7131506 19.3627451,8.49673203 C18.6546806,7.29846895 17.701531,6.34531944 16.503268,5.6372549 C15.2868494,4.92919036 13.9524401,4.5751634 12.5,4.5751634 C11.0475599,4.5751634 9.7131506,4.92919036 8.49673203,5.6372549 C7.29846895,6.34531944 6.34531944,7.29846895 5.6372549,8.49673203 C4.92919036,9.7131506 4.5751634,11.0475599 4.5751634,12.5 C4.5751634,13.9524401 4.92919036,15.2868494 5.6372549,16.503268 C6.34531944,17.701531 7.29846895,18.6546806 8.49673203,19.3627451 C9.7131506,20.0708096 11.0475599,20.4248366 12.5,20.4248366 Z M22.6579521,11.3834423 L25,11.3834423 L25,13.6165577 L22.6579521,13.6165577 C22.4945526,15.1779308 21.9952838,16.6167327 21.1601307,17.9330065 C20.3249777,19.2492804 19.2492804,20.3249777 17.9330065,21.1601307 C16.6167327,21.9952838 15.1779308,22.4945526 13.6165577,22.6579521 L13.6165577,25 L11.3834423,25 L11.3834423,22.6579521 C9.82206917,22.4945526 8.3878061,21.9952838 7.08061002,21.1601307 C5.77341394,20.3249777 4.70225545,19.2492804 3.8671024,17.9330065 C3.03194935,16.6167327 2.52360294,15.1779308 2.34204793,13.6165577 L0,13.6165577 L0,11.3834423 L2.34204793,11.3834423 C2.52360294,9.82206917 3.03194935,8.38326729 3.8671024,7.06699346 C4.70225545,5.75071964 5.77341394,4.67502233 7.08061002,3.83986928 C8.3878061,3.00471623 9.82206917,2.50544744 11.3834423,2.34204793 L11.3834423,0 L13.6165577,0 L13.6165577,2.34204793 C15.1779308,2.50544744 16.6167327,3.00471623 17.9330065,3.83986928 C19.2492804,4.67502233 20.3249777,5.75071964 21.1601307,7.06699346 C21.9952838,8.38326729 22.4945526,9.82206917 22.6579521,11.3834423 Z M12.5,7.97930283 C13.3169975,7.97930283 14.0704395,8.18354916 14.7603486,8.59204793 C15.4502576,9.0005467 15.9994533,9.54974237 16.4079521,10.2396514 C16.8164508,10.9295605 17.0206972,11.6830025 17.0206972,12.5 C17.0206972,13.3169975 16.8164508,14.0704395 16.4079521,14.7603486 C15.9994533,15.4502576 15.4502576,15.9994533 14.7603486,16.4079521 C14.0704395,16.8164508 13.3169975,17.0206972 12.5,17.0206972 C11.6830025,17.0206972 10.9295605,16.8164508 10.2396514,16.4079521 C9.54974237,15.9994533 9.0005467,15.4502576 8.59204793,14.7603486 C8.18354916,14.0704395 7.97930283,13.3169975 7.97930283,12.5 C7.97930283,11.6830025 8.18354916,10.9295605 8.59204793,10.2396514 C9.0005467,9.54974237 9.54974237,9.0005467 10.2396514,8.59204793 C10.9295605,8.18354916 11.6830025,7.97930283 12.5,7.97930283 Z" id="path-1"></path>
    </defs>
    <g id="Symbols" stroke="none" stroke-width="1" fill="none" fill-rule="evenodd">
        <g id="_Settings/Elements/Icon/Map/Reset">
            <mask id="mask-2" fill="white">
                <use xlink:href="#path-1"></use>
            </mask>
            <use id="my_location---material" fill="#EE2E62" xlink:href="#path-1"></use>
        </g>
    </g>
</svg>