<?xml version="1.0" encoding="UTF-8"?>
<svg width="30px" height="30px" viewBox="0 0 30 30" version="1.1" xmlns="http://www.w3.org/2000/svg" xmlns:xlink="http://www.w3.org/1999/xlink">
    <!-- Generator: Sketch 46.2 (44496) - http://www.bohemiancoding.com/sketch -->
    <title>Oval 3</title>
    <desc>Created with Sketch.</desc>
    <defs></defs>
    <g id="Symbols" stroke="none" stroke-width="1" fill="none" fill-rule="evenodd">
        <g id="Menu/Slider/Main" transform="translate(-253.000000, -404.000000)" fill-rule="nonzero" fill="#8E8E93">
            <path d="M268,433 C275.731986,433 282,426.731986 282,419 C282,411.268014 275.731986,405 268,405 C260.268014,405 254,411.268014 254,419 C254,426.731986 260.268014,433 268,433 Z M268,434 C259.715729,434 253,427.284271 253,419 C253,410.715729 259.715729,404 268,404 C276.284271,404 283,410.715729 283,419 C283,427.284271 276.284271,434 268,434 Z M266.646177,415 L263,415 L263,423 L263.887556,423 L263.887556,419.041979 L266.550225,419.041979 L266.550225,418.202399 L263.887556,418.202399 L263.887556,415.83958 L266.646177,415.83958 L266.646177,415 Z M269.205397,415 L270.488756,415 C271.028486,415 271.832084,415.035982 272.431784,415.443778 C272.89955,415.755622 273.307346,416.367316 273.307346,417.218891 C273.307346,418.442279 272.503748,419.341829 271.292354,419.425787 L273.835082,423 L272.755622,423 L270.32084,419.497751 L270.092954,419.497751 L270.092954,423 L269.205397,423 L269.205397,415 Z M270.092954,415.83958 L270.092954,418.706147 L270.656672,418.706147 C271.76012,418.706147 272.41979,418.178411 272.41979,417.242879 C272.41979,416.7991 272.287856,416.355322 271.784108,416.067466 C271.424288,415.863568 271.016492,415.83958 270.632684,415.83958 L270.092954,415.83958 Z" id="Oval-3"></path>
        </g>
    </g>
</svg>