<?xml version="1.0" encoding="UTF-8"?>
<svg width="30px" height="30px" viewBox="0 0 30 30" version="1.1" xmlns="http://www.w3.org/2000/svg" xmlns:xlink="http://www.w3.org/1999/xlink">
    <!-- Generator: Sketch 46.2 (44496) - http://www.bohemiancoding.com/sketch -->
    <title>language-english</title>
    <desc>Created with Sketch.</desc>
    <defs></defs>
    <g id="Symbols" stroke="none" stroke-width="1" fill="none" fill-rule="evenodd">
        <path d="M15,29 C22.731986,29 29,22.731986 29,15 C29,7.268014 22.731986,1 15,1 C7.268014,1 1,7.268014 1,15 C1,22.731986 7.268014,29 15,29 Z M15,30 C6.715729,30 0,23.284271 0,15 C0,6.715729 6.715729,0 15,0 C23.284271,0 30,6.715729 30,15 C30,23.284271 23.284271,30 15,30 Z M12.152,11.336 L8,11.336 L8,19.34 L12.152,19.34 L12.152,18.5 L8.888,18.5 L8.888,15.392 L12.056,15.392 L12.056,14.552 L8.888,14.552 L8.888,12.176 L12.152,12.176 L12.152,11.336 Z M15.672,19.34 L15.672,13.16 L21.912,19.7 L21.912,11.336 L21.024,11.336 L21.024,17.54 L14.784,11 L14.784,19.34 L15.672,19.34 Z" id="language-english" fill="#8E8E93" fill-rule="nonzero"></path>
    </g>
</svg>