<?xml version="1.0" encoding="utf-8"?>
<!-- Generator: Adobe Illustrator 21.1.0, SVG Export Plug-In . SVG Version: 6.00 Build 0)  -->
<svg version="1.1" id="Layer_1" xmlns="http://www.w3.org/2000/svg" xmlns:xlink="http://www.w3.org/1999/xlink" x="0px" y="0px"
	 viewBox="0 0 25 25" style="enable-background:new 0 0 25 25;" xml:space="preserve">
<style type="text/css">
	.st0{fill:#FFFFFF;}
	.st1{fill:#8E8E93;}
</style>
<g>
	<path id="path-1" class="st0" d="M12.5,20.4c1.5,0,2.8-0.4,4-1.1c1.2-0.7,2.2-1.7,2.9-2.9c0.7-1.2,1.1-2.6,1.1-4s-0.4-2.8-1.1-4
		c-0.7-1.2-1.7-2.2-2.9-2.9c-1.2-0.7-2.6-1.1-4-1.1s-2.8,0.4-4,1.1C7.3,6.3,6.3,7.3,5.6,8.5c-0.7,1.2-1.1,2.6-1.1,4s0.4,2.8,1.1,4
		c0.7,1.2,1.7,2.2,2.9,2.9C9.7,20.1,11,20.4,12.5,20.4z M22.7,11.4H25v2.2h-2.3c-0.2,1.6-0.7,3-1.5,4.3c-0.8,1.3-1.9,2.4-3.2,3.2
		c-1.3,0.8-2.8,1.3-4.3,1.5V25h-2.2v-2.3c-1.6-0.2-3-0.7-4.3-1.5c-1.3-0.8-2.4-1.9-3.2-3.2c-0.8-1.3-1.3-2.8-1.5-4.3H0v-2.2h2.3
		c0.2-1.6,0.7-3,1.5-4.3s1.9-2.4,3.2-3.2s2.7-1.3,4.3-1.5V0h2.2v2.3c1.6,0.2,3,0.7,4.3,1.5c1.3,0.8,2.4,1.9,3.2,3.2
		C22,8.4,22.5,9.8,22.7,11.4z M12.5,8c0.8,0,1.6,0.2,2.3,0.6s1.2,1,1.6,1.6c0.4,0.7,0.6,1.4,0.6,2.3s-0.2,1.6-0.6,2.3
		c-0.4,0.7-1,1.2-1.6,1.6c-0.7,0.4-1.4,0.6-2.3,0.6s-1.6-0.2-2.3-0.6c-0.7-0.4-1.2-1-1.6-1.6S8,13.3,8,12.5s0.2-1.6,0.6-2.3
		s1-1.2,1.6-1.6S11.7,8,12.5,8z"/>
</g>
<title>icon-map-location</title>
<desc>Created with Sketch.</desc>
<g id="Symbols">
	<g id="_x5F_Settings_x2F_Elements_x2F_Icon_x2F_Map_x2F_Reset">
		<g id="icon-map-location">
			<path id="path-1_1_" class="st1" d="M12.5,20.4c1.5,0,2.8-0.4,4-1.1c1.2-0.7,2.2-1.7,2.9-2.9c0.7-1.2,1.1-2.6,1.1-4
				s-0.4-2.8-1.1-4c-0.7-1.2-1.7-2.2-2.9-2.9c-1.2-0.7-2.6-1.1-4-1.1s-2.8,0.4-4,1.1C7.3,6.3,6.3,7.3,5.6,8.5
				c-0.7,1.2-1.1,2.6-1.1,4s0.4,2.8,1.1,4c0.7,1.2,1.7,2.2,2.9,2.9C9.7,20.1,11,20.4,12.5,20.4z M22.7,11.4H25v2.2h-2.3
				c-0.2,1.6-0.7,3-1.5,4.3c-0.8,1.3-1.9,2.4-3.2,3.2c-1.3,0.8-2.8,1.3-4.3,1.5V25h-2.2v-2.3c-1.6-0.2-3-0.7-4.3-1.5
				c-1.3-0.8-2.4-1.9-3.2-3.2c-0.8-1.3-1.3-2.8-1.5-4.3H0v-2.2h2.3c0.2-1.6,0.7-3,1.5-4.3s1.9-2.4,3.2-3.2s2.7-1.3,4.3-1.5V0h2.2
				v2.3c1.6,0.2,3,0.7,4.3,1.5c1.3,0.8,2.4,1.9,3.2,3.2C22,8.4,22.5,9.8,22.7,11.4z M12.5,8c0.8,0,1.6,0.2,2.3,0.6s1.2,1,1.6,1.6
				c0.4,0.7,0.6,1.4,0.6,2.3s-0.2,1.6-0.6,2.3c-0.4,0.7-1,1.2-1.6,1.6c-0.7,0.4-1.4,0.6-2.3,0.6s-1.6-0.2-2.3-0.6
				c-0.7-0.4-1.2-1-1.6-1.6S8,13.3,8,12.5s0.2-1.6,0.6-2.3s1-1.2,1.6-1.6S11.7,8,12.5,8z"/>
		</g>
	</g>
</g>
</svg>
