<?xml version="1.0" encoding="UTF-8"?>
<svg width="30px" height="26px" viewBox="0 0 30 26" version="1.1" xmlns="http://www.w3.org/2000/svg" xmlns:xlink="http://www.w3.org/1999/xlink">
    <!-- Generator: Sketch 46.2 (44496) - http://www.bohemiancoding.com/sketch -->
    <title>directions_bike - material</title>
    <desc>Created with Sketch.</desc>
    <defs></defs>
    <g id="Symbols" stroke="none" stroke-width="1" fill="none" fill-rule="evenodd">
        <g id="Menu/Slider/Routes" transform="translate(-46.000000, -432.000000)" fill="#FFFFFF">
            <g id="Group-6" transform="translate(0.000000, 374.000000)">
                <g id="Group" transform="translate(31.000000, 41.000000)">
                    <path d="M38.73,40.76 C39.5100039,40.76 40.2399966,40.5650019 40.92,40.175 C41.6000034,39.784998 42.139998,39.2550034 42.54,38.585 C42.940002,37.9149966 43.14,37.1900039 43.14,36.41 C43.14,35.6299961 42.940002,34.9000034 42.54,34.22 C42.139998,33.5399966 41.6000034,33.000002 40.92,32.6 C40.2399966,32.199998 39.5100039,32 38.73,32 C37.9499961,32 37.2300033,32.199998 36.57,32.6 C35.9099967,33.000002 35.385002,33.5399966 34.995,34.22 C34.6049981,34.9000034 34.41,35.6299961 34.41,36.41 C34.41,37.1900039 34.6049981,37.9149966 34.995,38.585 C35.385002,39.2550034 35.9099967,39.784998 36.57,40.175 C37.2300033,40.5650019 37.9499961,40.76 38.73,40.76 Z M38.73,30.14 C39.8900058,30.14 40.9449952,30.4199972 41.895,30.98 C42.8450047,31.5400028 43.5999972,32.2949952 44.16,33.245 C44.7200028,34.1950047 45,35.2499942 45,36.41 C45,37.5700058 44.7200028,38.6199953 44.16,39.56 C43.5999972,40.5000047 42.8450047,41.2449972 41.895,41.795 C40.9449952,42.3450027 39.8900058,42.62 38.73,42.62 C37.5699942,42.62 36.5200047,42.3450027 35.58,41.795 C34.6399953,41.2449972 33.8950028,40.5000047 33.345,39.56 C32.7949973,38.6199953 32.52,37.5700058 32.52,36.41 C32.52,35.2499942 32.7949973,34.1950047 33.345,33.245 C33.8950028,32.2949952 34.6399953,31.5400028 35.58,30.98 C36.5200047,30.4199972 37.5699942,30.14 38.73,30.14 Z M28.47,28.25 L31.23,31.13 L31.23,38.87 L28.77,38.87 L28.77,32.66 L24.72,29.15 C24.2599977,28.8299984 24.03,28.2400043 24.03,27.38 C24.03,26.6799965 24.2599977,26.1000023 24.72,25.64 L28.23,22.1 C28.5500016,21.6399977 29.1399957,21.41 30,21.41 C30.3800019,21.41 30.7299984,21.4649994 31.05,21.575 C31.3700016,21.6850005 31.6799985,21.8599988 31.98,22.1 L34.41,24.5 C35.6300061,25.7600063 37.1099913,26.39 38.85,26.39 L38.85,28.91 C36.3899877,28.91 34.2800088,28.0300088 32.52,26.27 L31.53,25.28 L28.47,28.25 Z M21.27,40.76 C22.0500039,40.76 22.7749967,40.5650019 23.445,40.175 C24.1150034,39.784998 24.644998,39.2550034 25.035,38.585 C25.4250019,37.9149966 25.62,37.1900039 25.62,36.41 C25.62,35.6299961 25.4250019,34.9000034 25.035,34.22 C24.644998,33.5399966 24.1150034,33.000002 23.445,32.6 C22.7749967,32.199998 22.0500039,32 21.27,32 C20.4899961,32 19.7650033,32.199998 19.095,32.6 C18.4249966,33.000002 17.890002,33.5399966 17.49,34.22 C17.089998,34.9000034 16.89,35.6299961 16.89,36.41 C16.89,37.1900039 17.089998,37.9149966 17.49,38.585 C17.890002,39.2550034 18.4249966,39.784998 19.095,40.175 C19.7650033,40.5650019 20.4899961,40.76 21.27,40.76 Z M21.27,30.14 C22.4300058,30.14 23.4799953,30.4199972 24.42,30.98 C25.3600047,31.5400028 26.1049973,32.2949952 26.655,33.245 C27.2050027,34.1950047 27.48,35.2499942 27.48,36.41 C27.48,37.5700058 27.2050027,38.6199953 26.655,39.56 C26.1049973,40.5000047 25.3600047,41.2449972 24.42,41.795 C23.4799953,42.3450027 22.4300058,42.62 21.27,42.62 C20.1099942,42.62 19.0550048,42.3450027 18.105,41.795 C17.1549952,41.2449972 16.4000028,40.5000047 15.84,39.56 C15.2799972,38.6199953 15,37.5700058 15,36.41 C15,35.2499942 15.2799972,34.1950047 15.84,33.245 C16.4000028,32.2949952 17.1549952,31.5400028 18.105,30.98 C19.0550048,30.4199972 20.1099942,30.14 21.27,30.14 Z M34.41,21.98 C33.7299966,21.98 33.1400025,21.7400024 32.64,21.26 C32.1399975,20.7799976 31.89,20.2000034 31.89,19.52 C31.89,18.8399966 32.1399975,18.2500025 32.64,17.75 C33.1400025,17.2499975 33.7249967,17 34.395,17 C35.0650033,17 35.6449975,17.2549974 36.135,17.765 C36.6250024,18.2750026 36.87,18.8599967 36.87,19.52 C36.87,20.1800033 36.6250024,20.7549975 36.135,21.245 C35.6449975,21.7350024 35.0700033,21.98 34.41,21.98 Z" id="directions_bike---material"></path>
                </g>
            </g>
        </g>
    </g>
</svg>