<?xml version="1.0" encoding="UTF-8"?>
<svg width="18px" height="30px" viewBox="0 0 18 30" version="1.1" xmlns="http://www.w3.org/2000/svg" xmlns:xlink="http://www.w3.org/1999/xlink">
    <!-- Generator: Sketch 46.2 (44496) - http://www.bohemiancoding.com/sketch -->
    <title>Combined Shape</title>
    <desc>Created with Sketch.</desc>
    <defs></defs>
    <g id="Symbols" stroke="none" stroke-width="1" fill="none" fill-rule="evenodd">
        <g id="Menu/Slider/Routes" transform="translate(-257.000000, -430.000000)" fill="#FFFFFF">
            <g id="Group-6" transform="translate(0.000000, 374.000000)">
                <g id="Group-Copy-2" transform="translate(236.000000, 41.000000)">
                    <path d="M32.1830357,32.6116071 C31.8258911,32.7455364 31.5691972,32.8571424 31.4129464,32.9464286 C31.2566956,33.0357147 31.078126,33.2366056 30.8772321,33.5491071 C30.6763383,33.8616087 30.5758929,34.2633904 30.5758929,34.7544643 L30.5758929,41.0491071 C30.5758929,41.7633964 30.8437473,42.3214266 31.3794643,42.7232143 C31.6026797,42.9017866 31.9374978,43.0357138 32.3839286,43.125 C34.3928672,43.70536 35.5089275,44.1071417 35.7321429,44.3303571 C35.9107152,44.4196433 36,44.5758917 36,44.7991071 C35.3749969,44.9330364 33.2321612,45 29.5714286,45 L23.1428571,44.7991071 C23.1428571,44.5758917 23.232142,44.4196433 23.4107143,44.3303571 C23.6339297,44.1071417 24.74999,43.70536 26.7589286,43.125 C27.1160732,43.0357138 27.4285701,42.9017866 27.6964286,42.7232143 C28.1875025,42.3660696 28.4330357,41.8080395 28.4330357,41.0491071 L28.4330357,34.7544643 C28.4330357,34.2633904 28.3549115,33.8616087 28.1986607,33.5491071 C28.0424099,33.2366056 27.8750009,33.0357147 27.6964286,32.9464286 C27.5178563,32.8571424 27.272323,32.7455364 26.9598214,32.6116071 C26.0669598,32.2991056 25.4866085,32.0535723 25.21875,31.875 C24.4151746,31.3839261 23.700896,30.8035748 23.0758929,30.1339286 C21.6919574,28.5267777 21,26.5848328 21,24.3080357 C21,20.4687308 21.1785696,17.9241134 21.5357143,16.6741071 C21.8482158,15.5580301 22.5401732,15 23.6116071,15 L35.53125,15 C36.6026839,15 37.2946413,15.5580301 37.6071429,16.6741071 C37.9642875,17.9241134 38.1428571,20.491052 38.1428571,24.375 C38.1428571,26.607154 37.4508998,28.5267777 36.0669643,30.1339286 C35.4419612,30.8035748 34.7276826,31.3839261 33.9241071,31.875 C33.6562487,32.0535723 33.0758973,32.2991056 32.1830357,32.6116071 Z M29.5714286,30.9375 C31.3125087,30.9375 32.8080295,30.3125062 34.0580357,29.0625 L34.4598214,28.6607143 C35.4419692,27.5892804 35.9553569,26.138402 36,24.3080357 C36.0462992,22.7801611 36.020574,21.4023487 35.9228234,20.1745885 C35.8320661,19.0346637 35.6792204,18.0240892 35.4642857,17.1428571 L23.6116071,17.1428571 C23.4298579,18.0717976 23.2983514,19.0738101 23.2170871,20.1489015 C23.1187028,21.4504836 23.0939597,22.8591791 23.1428571,24.375 C23.1875002,26.1607232 23.7008879,27.5892804 24.6830357,28.6607143 C24.861608,28.9285728 25.0178565,29.1071424 25.1517857,29.1964286 C26.401792,30.3571487 27.8749915,30.9375 29.5714286,30.9375 Z" id="Combined-Shape"></path>
                </g>
            </g>
        </g>
    </g>
</svg>