<?xml version="1.0" encoding="UTF-8"?>
<svg width="19px" height="30px" viewBox="0 0 19 30" version="1.1" xmlns="http://www.w3.org/2000/svg" xmlns:xlink="http://www.w3.org/1999/xlink">
    <!-- Generator: Sketch 46.2 (44496) - http://www.bohemiancoding.com/sketch -->
    <title>directions_walk - material</title>
    <desc>Created with Sketch.</desc>
    <defs></defs>
    <g id="Symbols" stroke="none" stroke-width="1" fill="none" fill-rule="evenodd">
        <g id="Menu/Slider/Routes" transform="translate(-155.000000, -430.000000)" fill="#FFFFFF">
            <g id="Group-6" transform="translate(0.000000, 374.000000)">
                <g id="Group-Copy" transform="translate(134.000000, 41.000000)">
                    <path d="M23.8093645,26.3043478 L23.8093645,31.0200669 L21,31.0200669 L21,24.4983278 L28.2575251,21.4214047 C28.391305,21.4214047 28.5752497,21.3991084 28.8093645,21.3545151 C29.0434794,21.3099217 29.2274241,21.2876254 29.361204,21.2876254 C30.2976635,21.2876254 31.0780348,21.7447 31.7023411,22.6588629 L33.1404682,24.8662207 C33.7424779,25.8918669 34.5451455,26.7056826 35.548495,27.3076923 C36.6187344,27.9542953 37.8004395,28.277592 39.0936455,28.277592 L39.0936455,31.0200669 C37.5774729,31.0200669 36.1505084,30.7079184 34.812709,30.083612 C33.4972064,29.4593057 32.3823903,28.6120455 31.4682274,27.541806 L30.5986622,31.722408 L33.541806,34.5317726 L33.541806,45 L30.7324415,45 L30.7324415,36.638796 L27.8561873,33.8294314 L25.3143813,45 L22.3712375,45 L26.2842809,25.3344482 L23.8093645,26.3043478 Z M31.4682274,20.5518395 C30.7101411,20.5518395 30.0523997,20.2842836 29.4949833,19.7491639 C28.9375669,19.2140441 28.6588629,18.5674508 28.6588629,17.8093645 C28.6588629,17.0512783 28.9375669,16.3935368 29.4949833,15.8361204 C30.0523997,15.278704 30.7101411,15 31.4682274,15 C32.2263137,15 32.8840552,15.2842781 33.4414716,15.8528428 C33.998888,16.4214075 34.277592,17.0735749 34.277592,17.8093645 C34.277592,18.5451542 33.9933139,19.1861734 33.4247492,19.7324415 C32.8561844,20.2787095 32.2040171,20.5518395 31.4682274,20.5518395 Z" id="directions_walk---material"></path>
                </g>
            </g>
        </g>
    </g>
</svg>