<?xml version="1.0" encoding="UTF-8"?>
<svg width="27px" height="24px" viewBox="0 0 27 24" version="1.1" xmlns="http://www.w3.org/2000/svg" xmlns:xlink="http://www.w3.org/1999/xlink">
    <!-- Generator: Sketch 46.2 (44496) - http://www.bohemiancoding.com/sketch -->
    <title>directions_bike - material</title>
    <desc>Created with Sketch.</desc>
    <defs>
        <linearGradient x1="0%" y1="0%" x2="80.3572888%" y2="128.055028%" id="linearGradient-1">
            <stop stop-color="#FAA627" offset="0%"></stop>
            <stop stop-color="#FAA627" offset="16.8816118%"></stop>
            <stop stop-color="#ED1846" offset="63.8081754%"></stop>
            <stop stop-color="#EE2E62" offset="100%"></stop>
        </linearGradient>
        <path d="M21.357,23.384 C22.0590035,23.384 22.7159969,23.2085018 23.328,22.8575 C23.9400031,22.5064982 24.4259982,22.029503 24.786,21.4265 C25.1460018,20.823497 25.326,20.1710035 25.326,19.469 C25.326,18.7669965 25.1460018,18.1100031 24.786,17.498 C24.4259982,16.8859969 23.9400031,16.4000018 23.328,16.04 C22.7159969,15.6799982 22.0590035,15.5 21.357,15.5 C20.6549965,15.5 20.007003,15.6799982 19.413,16.04 C18.818997,16.4000018 18.3465018,16.8859969 17.9955,17.498 C17.6444982,18.1100031 17.469,18.7669965 17.469,19.469 C17.469,20.1710035 17.6444982,20.823497 17.9955,21.4265 C18.3465018,22.029503 18.818997,22.5064982 19.413,22.8575 C20.007003,23.2085018 20.6549965,23.384 21.357,23.384 Z M21.357,13.826 C22.4010052,13.826 23.3504957,14.0779975 24.2055,14.582 C25.0605043,15.0860025 25.7399975,15.7654957 26.244,16.6205 C26.7480025,17.4755043 27,18.4249948 27,19.469 C27,20.5130052 26.7480025,21.4579958 26.244,22.304 C25.7399975,23.1500042 25.0605043,23.8204975 24.2055,24.3155 C23.3504957,24.8105025 22.4010052,25.058 21.357,25.058 C20.3129948,25.058 19.3680042,24.8105025 18.522,24.3155 C17.6759958,23.8204975 17.0055025,23.1500042 16.5105,22.304 C16.0154975,21.4579958 15.768,20.5130052 15.768,19.469 C15.768,18.4249948 16.0154975,17.4755043 16.5105,16.6205 C17.0055025,15.7654957 17.6759958,15.0860025 18.522,14.582 C19.3680042,14.0779975 20.3129948,13.826 21.357,13.826 Z M12.123,12.125 L14.607,14.717 L14.607,21.683 L12.393,21.683 L12.393,16.094 L8.748,12.935 C8.33399793,12.6469986 8.127,12.1160039 8.127,11.342 C8.127,10.7119968 8.33399793,10.1900021 8.748,9.776 L11.907,6.59 C12.1950014,6.17599793 12.7259961,5.969 13.5,5.969 C13.8420017,5.969 14.1569986,6.0184995 14.445,6.1175 C14.7330014,6.21650049 15.0119987,6.37399892 15.282,6.59 L17.469,8.75 C18.5670055,9.88400567 19.8989922,10.451 21.465,10.451 L21.465,12.719 C19.2509889,12.719 17.3520079,11.9270079 15.768,10.343 L14.877,9.452 L12.123,12.125 Z M5.643,23.384 C6.34500351,23.384 6.99749699,23.2085018 7.6005,22.8575 C8.20350301,22.5064982 8.68049824,22.029503 9.0315,21.4265 C9.38250175,20.823497 9.558,20.1710035 9.558,19.469 C9.558,18.7669965 9.38250175,18.1100031 9.0315,17.498 C8.68049824,16.8859969 8.20350301,16.4000018 7.6005,16.04 C6.99749699,15.6799982 6.34500351,15.5 5.643,15.5 C4.94099649,15.5 4.28850301,15.6799982 3.6855,16.04 C3.08249698,16.4000018 2.6010018,16.8859969 2.241,17.498 C1.8809982,18.1100031 1.701,18.7669965 1.701,19.469 C1.701,20.1710035 1.8809982,20.823497 2.241,21.4265 C2.6010018,22.029503 3.08249698,22.5064982 3.6855,22.8575 C4.28850301,23.2085018 4.94099649,23.384 5.643,23.384 Z M5.643,13.826 C6.68700522,13.826 7.63199577,14.0779975 8.478,14.582 C9.32400423,15.0860025 9.99449752,15.7654957 10.4895,16.6205 C10.9845025,17.4755043 11.232,18.4249948 11.232,19.469 C11.232,20.5130052 10.9845025,21.4579958 10.4895,22.304 C9.99449752,23.1500042 9.32400423,23.8204975 8.478,24.3155 C7.63199577,24.8105025 6.68700522,25.058 5.643,25.058 C4.59899478,25.058 3.64950428,24.8105025 2.7945,24.3155 C1.93949572,23.8204975 1.26000252,23.1500042 0.756,22.304 C0.25199748,21.4579958 0,20.5130052 0,19.469 C0,18.4249948 0.25199748,17.4755043 0.756,16.6205 C1.26000252,15.7654957 1.93949572,15.0860025 2.7945,14.582 C3.64950428,14.0779975 4.59899478,13.826 5.643,13.826 Z M17.469,6.482 C16.8569969,6.482 16.3260022,6.26600216 15.876,5.834 C15.4259978,5.40199784 15.201,4.88000306 15.201,4.268 C15.201,3.65599694 15.4259978,3.12500225 15.876,2.675 C16.3260022,2.22499775 16.852497,2 17.4555,2 C18.058503,2 18.5804978,2.2294977 19.0215,2.6885 C19.4625022,3.1475023 19.683,3.67399703 19.683,4.268 C19.683,4.86200297 19.4625022,5.37949779 19.0215,5.8205 C18.5804978,6.2615022 18.063003,6.482 17.469,6.482 Z" id="path-2"></path>
    </defs>
    <g id="Symbols" stroke="none" stroke-width="1" fill="none" fill-rule="evenodd">
        <g id="_Settings/Elements/Icon/Filter/Routes" transform="translate(0.000000, -2.000000)">
            <mask id="mask-3" fill="white">
                <use xlink:href="#path-2"></use>
            </mask>
            <use id="directions_bike---material" fill="url(#linearGradient-1)" xlink:href="#path-2"></use>
        </g>
    </g>
</svg>