<?xml version="1.0" encoding="utf-8"?>
<!-- Generator: Adobe Illustrator 21.1.0, SVG Export Plug-In . SVG Version: 6.00 Build 0)  -->
<svg version="1.1" id="Layer_1" xmlns="http://www.w3.org/2000/svg" xmlns:xlink="http://www.w3.org/1999/xlink" x="0px" y="0px"
	 viewBox="0 0 30.8 26.8" style="enable-background:new 0 0 30.8 26.8;" xml:space="preserve">
<style type="text/css">
	.st0{fill:#8E8E93;}
</style>
<title>Group 2</title>
<desc>Created with Sketch.</desc>
<g id="Symbols">
	<g id="Menu_x2F_Slider_x2F_Settings_x2F_Map-View" transform="translate(-66.000000, -17.000000)">
		<g id="Group-2" transform="translate(66.000000, 17.000000)">
			<path class="st0" d="M17.2,19.8V2l6.2,2.7v11.4c0.3,0,0.6-0.1,0.9-0.1c0.2,0,0.4,0,0.6,0V4.3c0-0.2-0.1-0.4-0.2-0.6
				s-0.3-0.3-0.5-0.4L16.4,0L8.6,3.1L0.8,0H0.7H0.6C0.4,0,0.3,0.1,0.2,0.2S0,0.4,0,0.6v20.3c0,0.2,0.1,0.4,0.2,0.6s0.3,0.3,0.5,0.4
				L8.6,25l7.3-3C16.3,21.2,16.7,20.5,17.2,19.8z M7.8,23l-6.2-2.5V2.1l6.2,2.3V23z M9.4,23.1V4.4L15.6,2v18.6L9.4,23.1z"/>
			<path id="remove_red_eye---material" class="st0" d="M24.4,20.6c0.3,0,0.6,0.1,0.9,0.2c0.3,0.2,0.5,0.4,0.6,0.6
				c0.2,0.3,0.2,0.6,0.2,0.9s-0.1,0.6-0.2,0.9c-0.2,0.3-0.4,0.5-0.6,0.6C25,24,24.7,24,24.4,24s-0.6-0.1-0.9-0.2
				c-0.3-0.2-0.5-0.4-0.6-0.6c-0.2-0.3-0.2-0.6-0.2-0.9s0.1-0.6,0.2-0.9c0.2-0.3,0.4-0.5,0.6-0.6C23.8,20.7,24.1,20.6,24.4,20.6z
				 M24.4,25.3c0.5,0,1-0.1,1.5-0.4s0.8-0.6,1.1-1.1s0.4-0.9,0.4-1.5s-0.1-1-0.4-1.5s-0.6-0.8-1.1-1.1s-0.9-0.4-1.5-0.4
				s-1,0.1-1.5,0.4s-0.8,0.6-1.1,1.1s-0.4,0.9-0.4,1.5s0.1,1,0.4,1.5s0.6,0.8,1.1,1.1S23.9,25.3,24.4,25.3z M24.4,18
				c1,0,1.9,0.2,2.7,0.6c0.8,0.4,1.6,0.9,2.2,1.5c0.6,0.7,1.1,1.4,1.5,2.3c-0.3,0.9-0.8,1.6-1.5,2.3c-0.6,0.7-1.4,1.2-2.2,1.5
				c-0.9,0.4-1.8,0.6-2.7,0.6s-1.9-0.2-2.7-0.6c-0.8-0.4-1.6-0.9-2.2-1.5c-0.6-0.7-1.1-1.4-1.5-2.3c0.3-0.9,0.8-1.6,1.5-2.3
				c0.6-0.7,1.4-1.2,2.2-1.5C22.5,18.2,23.4,18,24.4,18z"/>
		</g>
	</g>
</g>
</svg>
