<?xml version="1.0" encoding="utf-8"?>
<!-- Generator: Adobe Illustrator 21.1.0, SVG Export Plug-In . SVG Version: 6.00 Build 0)  -->
<svg version="1.1" id="Layer_1" xmlns="http://www.w3.org/2000/svg" xmlns:xlink="http://www.w3.org/1999/xlink" x="0px" y="0px"
	 viewBox="0 0 1440 150" style="enable-background:new 0 0 1440 150;" xml:space="preserve">
<style type="text/css">
	.st0{fill:#FFFFFF;}
</style>
<title>Combined Shape</title>
<desc>Created with Sketch.</desc>
<path class="st0" d="M390.4,36.4c-2.9-0.3-4.1-0.6-2.6-0.7c1.8-0.1,3.5,0.1,5.3,0.5C394.5,36.6,393.2,36.7,390.4,36.4z M413.8,34.3
	c1.3-1-11.7-1.8-13.7-0.8c-1.3,0.6,0.5,0.9,5.5,1.1C408.3,34.9,411.1,34.8,413.8,34.3z M385.2,31.4c-2.3-0.4-4.7-0.6-7-0.6
	c-1.8,0.1-0.1,0.4,3.8,0.7S387.3,31.8,385.2,31.4z M478,19.4c-0.7-0.4-1.5-0.5-2.2-0.2c-0.4,0.4,0.2,0.7,1.5,0.7
	C478.7,20.1,479,19.8,478,19.4z M376.4,34.4c0,0.6,0.4,1.1,1.1,1.1c0.6,0.1,1.2-0.4,1.3-0.9s-0.4-1.1-1.1-1.1S376.5,33.8,376.4,34.4
	z M373.9,42.4c-0.3,0-0.5,0.6-0.6,1.5c-0.1,0.9,0.9,1.6,2.6,1.8c8.4,0.7,20.6-2,18.5-4.1c-3.4-0.3-6.9-0.3-10.3,0.2
	C378.7,42.1,374.2,42.4,373.9,42.4z M421.1,32c0.2-0.2,0.4-0.4,0.4-0.7c0.1-0.6-0.5-0.8-1.1-0.5c-0.7,0.3-1.2,0.7-1.3,1
	c0,0.2,0.5,0.5,1.1,0.5C420.5,32.3,420.8,32.2,421.1,32z M447.5,40.3c-1.1-0.4-2.3-0.5-3.5-0.3c-0.8,0.2,0.1,0.5,2,0.7
	C448,40.8,448.6,40.7,447.5,40.3z M454.9,40.2c2-0.2,3.5,0.1,3.5,0.6c-0.1,1,6.6,0.9,11.8-0.1c2.1-0.4,0.9-0.7-3.8-0.8
	c-2.5,0.1-4.9-0.2-7.2-1c-0.7-1.1-7.6-0.7-7.7,0.6C451.4,40.1,452.8,40.4,454.9,40.2z M431.1,45.9c-0.7-0.4-1.5-0.5-2.2-0.2
	c-0.4,0.4,0.2,0.8,1.5,0.7C431.7,46.6,432,46.3,431.1,45.9z M438.8,37.4c-0.7-0.4-1.5-0.5-2.2-0.2c-0.4,0.4,0.3,0.7,1.5,0.7
	C439.5,38.1,439.8,37.8,438.8,37.4z M418.8,35.2c0.1-0.5-0.4-1-1-1.1c-0.8,0-1.5,0.3-1.9,0.9c-0.5,0.5,0,1,1,1.1
	C417.9,36.1,418.7,35.8,418.8,35.2z M192.5,35.2c-1.2-0.1-2.3,0.1-2.3,0.6c0,0.5,0.7,1,1.6,1.1C194.4,37.1,195.1,35.6,192.5,35.2z
	 M228.1,33.7c-5.5,1.5-6.5,2.9-1.7,2.7c1.8-0.1,5.9,0,9.1,0.3s5.1,0.1,4.1-0.3c-1-0.4-1.9-1.1-2.5-1.9c-0.5-0.9-0.8-0.9-0.9-0.1
	s-1.1,0.9-2.4,0.5c-1.3-0.4-2-1.1-1.6-1.5C232.6,32.9,230.7,33.2,228.1,33.7z M249.2,37.4c-0.7-0.4-1.5-0.5-2.2-0.2
	c-0.5,0.4,0.2,0.7,1.5,0.7C249.9,38,250.2,37.8,249.2,37.4z M1388.5,105.3c9.1,2.4,19.3,4.8,22.7,5.4c4.2,0.7,17,3.5,28.7,6.3V0H0
	v3.8C1.8,4,3.5,4.3,5.3,4.5c17.4,2.6,18.5,2.6,23.1,1C34.1,3.6,41.5,4,54.6,7.1c4.3,1.1,8.7,1.8,13.1,2.1C72.7,9,82,11,81.8,12.3
	c-18.3-2.4-33.5-4-48.7-4.9c-4.1,0-7.5,0.5-7.5,1.1c7,0.7,43.2,5.5,65.2,9c3.5,0.6,13.7,2,22.7,3.2c16.2,2.1,20.1,1.8,9.3-0.8
	c6.5-0.2,13.9,1.5,21.1,3.9c4.7,1.4,9.6,2.5,14.4,3.3c4.3,0.7,8.6,1.6,12.9,2.7c5,1,10,1.8,15.1,2.3c12.7,1.7,14.5,1.7,16.9,0.2
	c2.4-1.5,4.8-1.5,15-0.8c0.6,0,1.2,0.1,1.8,0.1c0.1,0.2,0.9,0.7,1.7,1.1c1,0.4,1.7,0.3,1.8-0.2c0-0.2-0.1-0.5-0.4-0.7
	c13.7,0.7,21.8-0.1,19.9-2.1c-1.1-1.2-13.4-3.3-15.2-2.6c-2.6,1-38.2-1.4-43-2.8c-3.1-1-1.4-1,7.9-0.3c6.5,0.6,12.1,0.5,12.4,0
	c0.4-0.8,21.9,0.4,41.8,1.9c0,0.1,0,0.1,0,0.2c-0.2,1.2,0.9,1.6,5.1,1.9c2.6,0.2,5.3,0.1,7.9-0.3c1-0.3,0.9-0.5-0.3-0.7
	c11.6,1,20.4,1.9,20.4,2.4c4.7,0.3,36.6,2.8,48,4.5c1.3-1.2-0.4-2.2-0.6-3c-0.2-0.7,2.9-1.1,13.5-0.2l2.2,0.2
	c0.1,0.2,0.7,0.4,1.6,0.5c1,0.1,1.4,0,1.3-0.2l9,0.7l-9.3-2c-9.9-2.2-9.6-2.9,1.2-3c3.7,0,6.6-0.5,6.3-0.9c-0.3-0.5,1.3-0.9,3.6-0.9
	c4,1,5.5,1.2,7.3,1c9.3-0.2,18.6,0.1,27.9,0.8l31.7,1.7c3.9,0.2,17,1.2,29.2,2.2c24.3,2.1,28.9,1.5,7.4-0.8
	c-10.8-1.2-13.9-1.9-15.6-3.4c-1-1-2.4-1.7-3.9-2.1c-2.6-0.2-3.6-2.2-1.4-2.8c2.5-0.4,5-0.6,7.5-0.6c4.8-0.2,5.7-0.6,5.8-2.4
	c0-0.9,0.3-1.8,0.8-2.6c3.9-0.3,7.9-0.4,11.8-0.1c6.2,0.2,17.5,0.4,25.3,0.6s17.6,0.5,21.8,0.8s11.2,0.4,15.9,0.4
	c6.9-0.1,32.3,1,49.8,2.1c10.5,2.3,22.6,5.2,32.2,7.8c5.2,1.4,10.2,2.8,15,4c11.4,3,17.8,4.7,24,6.3c-8.2-0.4-13.5-0.4-14.7,0.1
	c-1.5,0.6,0.2,1.1,10.5,1.6c4.1,0.2,9.3,0.5,14,0.8c41.6,10.4,68.9,15.4,117.4,22.6c15.7,2.3,28.5,4.3,38.9,6.1
	c6.1,1.1,9.1,1.6,11.9,2.2c13.3,2.7,19.5,4.4,22.2,5.9c5.9,2.5,12.3,4,18.8,4.3c8.4,0.8,16.8,2.1,25.1,3.9
	c12.2,2.8,82.1,14.1,104.9,16.9c7,0.9,27.7,3.7,46.1,6.4c58.6,8.4,71.6,10,71.7,8.5c0.1-1.5-13.8-4.8-24.4-5.8
	c-2.7,0-5.4-0.9-7.5-2.4c-1.3-1.3-3-2-4.9-2.1c-2.5-0.2-3.5,0.4-2.7,1.7c1.6,2.6-25.6-1.2-29.1-4.1c-3.4-1.9-7.1-3.2-11-4
	c-7.8-1.8-8.5-1.8-6.4,0.9c2.1,2.6,0.9,2.7-11.8,1c-8.9-1.3-14.8-2.9-16.1-4.6c-3.1-4-10.4-5.6-12.6-2.7c-0.4,0.7-1.1,1.2-2,1.4
	c-4.5-1.6-6.7-2.5-9-2.9c-2.2-0.4-10.4-2.5-18.3-4.7c-5.3-1.8-10.9-2.8-16.6-3.1c4.2-4.4,14-4.4,37.1-1.1
	c72.5,10.2,107.8,14.6,120.8,14.8c13,0.2,15-0.5,19.9-4.5c3.1-3.4,8.2-5,13.2-4c4.8,0.5,9.5,1.9,13.8,4.1c5.1,2.9,10,3.5,32.8,4.5
	c14.7,0.6,31.2,0.8,36.7,0.4c9.2-0.3,18.5,0,27.7,0.8c4.3,0.4,8.3,0.6,12.5,0.8c3,2,8.5,4.1,16.1,6c6.4,1.7,18.7,3.4,18.8,2.6
	c1.7-0.7,3.5-1.1,5.4-1.2c6.8-0.7,14.9-2.8,17.2-4.5c0.9-0.7,2-1.1,3.2-1.2c1.1-0.1,2.2-0.5,3.1-1.1c1.6-1.2,2.4-1,12.5,2
	c16,4.8,14.9,4.4,12.5,5c4.8,0.5,8,1.1,11,2c5.7,1.7,15.3,4.3,16.1,4.4c0.2-1.6,0.9-1.9,2-1.6c1.1,0.2,5.2,0.9,9.4,1.4
	c23.6,3.2,30.5,4.6,37.8,7.8c5.5,2.1,11.3,3.2,17.3,3.3v-0.8c-0.3-0.1-0.6-0.2-1.1-0.4c0.4-0.1,0.3-0.2-0.2-0.4
	c-0.5-0.3-1.2-0.4-1.7-0.2c-0.2-0.1-0.3-0.1-0.5-0.2c-4-1.3-5.5-2-3.9-1.9c-5.6-1.5-9.3-2.5-12.6-4c-2.3-1.1-4.7-1.9-7.2-2.3
	c-1.2,0.5-13.4-3.5-14.4-4.7s-4.7-2.3-19.9-6.3c-4.8-1.3-7.9-2.8-7.1-3.5C1371.7,101.1,1379.4,102.9,1388.5,105.3z M30.6,17.2
	c-1.5-0.4-3.1-0.5-4.7-0.4c-1.2,0.2,0,0.5,2.6,0.7C31.1,17.7,32,17.6,30.6,17.2z M365.2,29.1c-1.8-0.8-3.2-0.9-4-0.4
	c-0.8,0.6,0,1.1,2.7,1.3C367.7,30.4,367.8,30.3,365.2,29.1z M298.6,44.5c1.5-0.5,3.2-0.5,4.7,0c4.4,1.1,33.6,4.9,33,4.3
	c-0.7-0.7-9-2.1-26.7-4.8c-3.9-0.4-7.8-1.2-11.6-2.4c0-0.4-1.8-0.6-4.1-0.6c-1.9,0.1-3.8-0.2-5.5-1.1c-2-0.8-4.1-1.1-6.3-0.9
	c-3.9,0.2-4.5,0.5-3.3,1.7c1.4,1,3,1.5,4.8,1.6l3.3,0.2l-6.9-2l3.5-0.3c3.3-0.3,5.7,1.2,4.4,2.8C287,43.9,297,45.4,298.6,44.5z
	 M372.4,30.2c-0.9-0.3-1.9-0.4-2.8-0.2c-0.9,0.2-0.3,0.5,1.3,0.6S373.2,30.6,372.4,30.2z M353.2,45.6c-0.1,0.5,0.4,1,1,1.1
	c0.8,0,1.5-0.3,1.9-0.9c0.4-0.5,0.1-1-1-1.1S353.2,45,353.2,45.6z M353.7,31.8l5.2,1.2c2.8,0.6,6.5,1.5,8.1,2.1
	c2.7,0.9,2.7,0.8-0.2-1.1c-2.4-1.3-5.2-2-8.1-2.1L353.7,31.8z M660.3,52.6c-3.1-0.5-6.2-0.8-9.4-0.8c-2.4-0.1-0.2,0.4,5,0.8
	C661.1,53.1,663.1,53.1,660.3,52.6z M1274.5,117.3c-2.6-1.8-5.8-2.8-9.1-2.9c-14.6,1.1-29.3,1.5-44.1,1.3c-3.8-0.2-7.5,0.5-10.9,1.9
	c-2.7,1.6-10.9,1.6-35.3-0.5c-17.4-1.4-32.4-2.4-33.2-2.5c-0.9,0.2-1.6,0.8-1.7,1.7c-0.3,2.9,4.8,5.9,16.4,8.8
	c11.7,2.9,17.5,2.8,104.6-3l19.5-1.3L1274.5,117.3z M1107.1,149.7c0.2-0.1,0.3-0.4,0.3-0.6c0-0.5-0.4-0.7-0.9-0.4
	c-0.6,0.2-1,0.6-1,0.8s0.4,0.4,0.9,0.4C1106.7,149.9,1107,149.9,1107.1,149.7z M708.4,55c-0.7-0.4-1.5-0.5-2.2-0.2
	c-0.3,0.4,0.3,0.7,1.5,0.7C709,55.7,709.3,55.4,708.4,55z M476.7,41.8c0.7,0.6,1.6,0.9,2.6,1c1.3,0.1,1.5-0.2,0.6-1.1
	c-0.6-0.7-1.6-1.1-2.6-1C476.5,40.9,476.2,41.4,476.7,41.8z M827.9,77.3c-0.7-0.4-1.5-0.5-2.2-0.2c-0.4,0.4,0.2,0.7,1.5,0.7
	C828.5,77.9,828.8,77.7,827.9,77.3z M1286.7,113.5c-3,0.2-5.1,1.2-4.6,2c1.7,2.9,12.7,4.9,25,4.6c6.8-0.2,10.4-0.7,8-1.3
	c-2.4-0.6-4.3-2.2-4.1-3.7C1311.2,112.5,1304.6,112,1286.7,113.5z M1336,117.2c1.8,1.7,2.5,0.6,2.7-2.7s-0.4-4.5-2.4-4
	c-0.8,0.1-1.5,0.2-2.3,0.3c-0.1-0.3-0.4-0.5-0.8-0.5c-0.5,0-1,0.3-1,0.7c0,0,0,0,0,0c-2.8,0.3-5.6,0.5-8.4,0.7l-9.7,0.6l9.7,1.4
	C1328.1,114.2,1332.2,115.3,1336,117.2z M462,19.6c1.4,0.1,1.7-0.1,0.8-0.5c-0.7-0.4-1.5-0.5-2.2-0.2
	C460.1,19.2,460.8,19.5,462,19.6z M1315.2,116.1c1.1,0.1,1.3-0.1,0.6-0.4c-0.5-0.3-1.2-0.4-1.8-0.2
	C1313.6,115.8,1314.2,116,1315.2,116.1z M1183.9,131.2c-0.9,0.7-0.8,1,0.4,1.5c2,0.9,3.2,0,1.8-1.3
	C1185.3,130.6,1184.8,130.6,1183.9,131.2z M701.6,63.2c2.6,0.2,2.8,0.1,0.9-1c-1.8-0.8-3.8-1.3-5.8-1.2c-3.6,0-3.7,0-0.9,1
	C697.7,62.6,699.6,63,701.6,63.2z M1277.2,149.1c0.9,0.8,1.3,0.7,1.9-0.3c0.8-1.4,0.2-2.8-1-2.9C1276.8,145.8,1276,148,1277.2,149.1
	z M514.3,39c-2.4-1-7.9,0.6-5.8,1.8c5.2,1,10.4,1.7,15.6,2.1c8,0.8,14.7,2,14.9,2.5c0.3,0.9,10.6,1.6,47.1,3.1
	c11.2,0.4,23.4,1.1,26.9,1.4c2.5,0.4,5,0.3,7.4-0.2c1.1-0.8-4.4-1.2-40.9-2.7c-18.5-0.5-37-2.4-55.3-5.6
	C520.9,40.8,517.6,40.1,514.3,39z M538.2,34.2c-1.7-0.4-3.5-0.5-5.3-0.5c-1.5,0.1-0.3,0.4,2.6,0.7C538.3,34.6,539.6,34.5,538.2,34.2
	z M566.6,36.6c0.6,0.1,4.4-0.2,8.3-0.4c5.1-0.2,3.4-0.4-6.4-0.9c-14.4-0.7-18.3-0.5-8.8,0.6C561.9,36.3,564.2,36.5,566.6,36.6z
	 M475.7,52c1.6,0.4,3.2,0.3,3.6-0.1s-0.9-1-2.9-1.1C472.1,50.4,471.8,51,475.7,52z M499.7,43c-0.7-0.4-1.5-0.5-2.2-0.2
	c-0.4,0.4,0.3,0.7,1.5,0.7C500.3,43.7,500.6,43.4,499.7,43z M461.7,17c-0.7-0.4-1.5-0.5-2.2-0.2c-0.4,0.3,0.3,0.6,1.5,0.7
	C462.4,17.7,462.7,17.4,461.7,17z M505.6,54.5c0,0.6,0.7,1.1,1.7,1.2c1,0.1,1.8-0.3,1.8-0.9c0-0.6-0.7-1.1-1.7-1.2
	C506.4,53.5,505.6,53.9,505.6,54.5z M585.3,39.3c-0.4-0.5-1.6-0.8-3-0.7c-3.3,0.5-3,1.1,0.5,1.4C584.5,40.2,585.7,39.9,585.3,39.3z
	 M631.4,36.3c-0.3-0.6-1.1-0.9-1.8-0.6c-1.7,0.7-1.4,1.4,0.6,1.5C631.2,37.3,631.7,36.9,631.4,36.3z M623.4,35.9
	c-2.1-0.4-4.3-0.6-6.4-0.6c-1.7,0.1-0.3,0.4,3.2,0.7C623.7,36.3,625.1,36.2,623.4,35.9z"/>
</svg>
