<?xml version="1.0" encoding="utf-8"?>
<!-- Generator: Adobe Illustrator 21.1.0, SVG Export Plug-In . SVG Version: 6.00 Build 0)  -->
<svg version="1.1" id="Layer_1" xmlns="http://www.w3.org/2000/svg" xmlns:xlink="http://www.w3.org/1999/xlink" x="0px" y="0px"
	 viewBox="0 0 1440 127" style="enable-background:new 0 0 1440 127;" xml:space="preserve">
<style type="text/css">
	.st0{fill:#FFFFFF;}
</style>
<title>Combined Shape</title>
<desc>Created with Sketch.</desc>
<path class="st0" d="M1062.3,93.5c-0.6-0.1-1.1-0.6-1.1-1.1s0.6-1,1.3-0.9c0.6,0.1,1.1,0.6,1.1,1.1S1062.9,93.6,1062.3,93.5z
	 M1021.2,91.8c-0.1,0.5,0.4,1,1,1.1c0.8,0,1.5-0.3,1.9-0.9c0.5-0.5,0-1-1-1.1C1022.1,90.9,1021.3,91.2,1021.2,91.8z M985.1,86.8
	c-2,0.2-3.5-0.1-3.5-0.6c0.1-1-6.6-0.9-11.8,0.1c-2.1,0.4-0.9,0.7,3.8,0.8c2.5-0.1,4.9,0.2,7.2,1c0.7,1.1,7.6,0.7,7.7-0.6
	C988.6,86.9,987.2,86.6,985.1,86.8z M1066.1,84.6c0.3,0,0.5-0.6,0.6-1.5c0.1-0.9-0.9-1.6-2.6-1.8c-8.4-0.7-20.6,2-18.5,4.1
	c3.4,0.3,6.9,0.3,10.3-0.2C1061.3,84.9,1065.8,84.6,1066.1,84.6z M1054.8,95.6c2.3,0.4,4.7,0.6,7,0.6c1.8-0.1,0.1-0.4-3.8-0.7
	S1052.7,95.2,1054.8,95.6z M1026.2,92.7c-1.3,1,11.7,1.8,13.7,0.8c1.3-0.6-0.5-0.9-5.5-1.1C1031.7,92.1,1028.9,92.2,1026.2,92.7z
	 M992.5,86.7c1.1,0.4,2.3,0.5,3.5,0.3c0.8-0.2-0.1-0.5-2-0.7C992,86.2,991.4,86.3,992.5,86.7z M1001.2,89.6c0.7,0.4,1.5,0.5,2.2,0.2
	c0.4-0.4-0.3-0.7-1.5-0.7C1000.5,88.9,1000.2,89.2,1001.2,89.6z M1018.9,95c-0.2,0.2-0.4,0.4-0.4,0.7c-0.1,0.6,0.5,0.8,1.1,0.5
	c0.7-0.3,1.2-0.7,1.3-1c0-0.2-0.5-0.5-1.1-0.5C1019.5,94.7,1019.2,94.8,1018.9,95z M1008.9,81.1c0.7,0.4,1.5,0.5,2.2,0.2
	c0.4-0.4-0.2-0.8-1.5-0.7C1008.3,80.4,1008,80.7,1008.9,81.1z M1046.9,90.8c1.7,0.4,3.5,0.5,5.3,0.5c1.5-0.1,0.3-0.4-2.6-0.7
	C1046.8,90.3,1045.5,90.4,1046.9,90.8z M1247.5,91.8c1.2,0.1,2.3-0.1,2.3-0.6c0-0.5-0.7-1-1.6-1.1
	C1245.6,89.9,1244.9,91.4,1247.5,91.8z M1211.9,93.3c5.5-1.5,6.5-2.9,1.7-2.7c-1.8,0.1-5.9,0-9.1-0.3s-5.1-0.1-4.1,0.3
	c1,0.4,1.9,1.1,2.5,1.9c0.5,0.9,0.8,0.9,0.9,0.1c0.1-0.8,1.1-0.9,2.4-0.5c1.3,0.4,2,1.1,1.6,1.5
	C1207.4,94.1,1209.3,93.8,1211.9,93.3z M1067.6,96.8c0.9,0.3,1.9,0.4,2.8,0.2c0.9-0.2,0.3-0.5-1.3-0.6
	C1067.5,96.2,1066.8,96.4,1067.6,96.8z M1409.4,109.8c1.5,0.4,3.1,0.5,4.7,0.4c1.2-0.2,0-0.5-2.6-0.7
	C1408.9,109.3,1408,109.4,1409.4,109.8z M1440,123.2c-1.8-0.2-3.5-0.5-5.3-0.7c-17.4-2.6-18.5-2.6-23.1-1
	c-5.8,1.9-13.1,1.5-26.2-1.6c-4.3-1.1-8.7-1.8-13.1-2.1c-5,0.2-14.3-1.8-14.2-3.2c18.3,2.4,33.5,4,48.7,4.9c4.1,0,7.5-0.5,7.5-1.1
	c-7-0.7-43.2-5.5-65.2-9c-3.5-0.6-13.7-2-22.7-3.2c-16.2-2.1-20.1-1.8-9.3,0.8c-6.5,0.2-13.9-1.5-21.1-3.9
	c-4.7-1.4-9.6-2.5-14.4-3.3c-4.3-0.7-8.6-1.6-12.9-2.7c-5-1-10-1.8-15.1-2.3c-12.7-1.7-14.5-1.7-16.9-0.2s-4.8,1.5-15,0.8
	c-0.6,0-1.2-0.1-1.8-0.1c-0.1-0.2-0.9-0.7-1.7-1.1c-1-0.4-1.7-0.3-1.8,0.2c0,0.2,0.1,0.5,0.4,0.7c-13.7-0.7-21.8,0.1-19.9,2.1
	c1.1,1.2,13.4,3.3,15.2,2.6c2.6-1,38.2,1.4,43,2.8c3.1,1,1.4,1-7.9,0.3c-6.5-0.6-12.1-0.5-12.4,0c-0.4,0.8-21.9-0.4-41.8-1.9
	c0-0.1,0-0.1,0-0.2c0.2-1.2-0.9-1.6-5.1-1.9c-2.6-0.2-5.3-0.1-7.9,0.3c-1,0.3-0.9,0.5,0.3,0.7c-11.6-1-20.4-1.9-20.4-2.4
	c-4.7-0.3-36.6-2.8-48-4.5c-1.3,1.2,0.4,2.2,0.6,3c0.2,0.7-2.9,1.1-13.5,0.2l-2.2-0.2c-0.1-0.2-0.7-0.4-1.6-0.5
	c-1-0.1-1.4,0-1.3,0.2l-9-0.7l9.3,2c9.9,2.2,9.6,2.9-1.2,3c-3.7,0-6.6,0.5-6.3,0.9s-1.3,0.9-3.6,0.9c-4-1-5.5-1.2-7.3-1
	c-9.3,0.2-18.6-0.1-27.9-0.8l-31.7-1.7c-3.9-0.2-17-1.2-29.2-2.2c-24.3-2.1-28.9-1.5-7.4,0.8c10.8,1.2,13.9,1.9,15.6,3.4
	c1,1,2.4,1.7,3.9,2.1c2.6,0.2,3.6,2.2,1.4,2.8c-2.5,0.4-5,0.6-7.5,0.6c-4.8,0.2-5.7,0.6-5.8,2.4c0,0.9-0.3,1.8-0.8,2.6
	c-3.9,0.3-7.9,0.4-11.8,0.1c-6.2-0.2-17.5-0.4-25.3-0.6s-17.6-0.5-21.8-0.8s-11.2-0.4-15.9-0.4c-6.9,0.1-32.3-1-49.8-2.1
	c-10.5-2.3-22.6-5.2-32.2-7.8c-5.2-1.4-10.2-2.8-15-4c-11.4-3-17.8-4.7-24-6.3c8.2,0.4,13.5,0.4,14.7-0.1c1.5-0.6-0.2-1.1-10.5-1.6
	c-4.1-0.2-9.3-0.5-14-0.8c-41.6-10.4-68.9-15.4-117.4-22.6c-15.7-2.3-28.5-4.3-38.9-6.1c-6.1-1.1-9.1-1.6-11.9-2.2
	c-13.3-2.7-19.5-4.4-22.2-5.9c-5.9-2.5-12.3-4-18.8-4.3c-8.4-0.8-16.8-2.1-25.1-3.9c-12.2-2.8-82.1-14.1-104.9-16.9
	c-7-0.9-27.7-3.7-46.1-6.4c-58.6-8.4-71.6-10-71.7-8.5c-0.1,1.5,13.8,4.8,24.4,5.8c2.7,0,5.4,0.9,7.5,2.4c1.3,1.3,3,2,4.9,2.1
	c2.5,0.2,3.5-0.4,2.7-1.7c-1.6-2.6,25.6,1.2,29.1,4.1c3.4,1.9,7.1,3.2,11,4c7.8,1.8,8.5,1.8,6.4-0.9c-2.1-2.6-0.9-2.7,11.8-1
	c8.9,1.3,14.8,2.9,16.1,4.6c3.1,4,10.4,5.6,12.6,2.7c0.4-0.7,1.1-1.2,2-1.4c4.5,1.6,6.7,2.5,9,2.9c2.2,0.4,10.4,2.5,18.3,4.7
	c5.3,1.8,10.9,2.8,16.6,3.1c-4.2,4.4-14,4.4-37.1,1.1C387.2,32.3,351.9,28,338.9,27.8c-13-0.2-15,0.5-19.9,4.5
	c-3.1,3.4-8.2,5-13.2,4c-4.8-0.5-9.5-1.9-13.8-4.1c-5.1-2.9-10-3.5-32.8-4.5c-14.7-0.6-31.2-0.8-36.7-0.4c-9.2,0.3-18.5,0-27.7-0.8
	c-4.3-0.4-8.3-0.6-12.5-0.8c-3-2-8.5-4.1-16.1-6c-6.4-1.7-18.7-3.4-18.8-2.6c-1.7,0.7-3.5,1.1-5.4,1.2c-6.8,0.7-14.9,2.8-17.2,4.5
	c-0.9,0.7-2,1.1-3.2,1.2c-1.1,0.1-2.2,0.5-3.1,1.1c-1.6,1.2-2.4,1-12.5-2c-16-4.8-14.9-4.4-12.5-5c-4.8-0.5-8-1.1-11-2
	c-5.7-1.7-15.3-4.3-16.1-4.4c-0.2,1.6-0.9,1.9-2,1.6c-1.1-0.2-5.2-0.9-9.4-1.4C31.4,8.8,24.5,7.4,17.3,4.2C11.8,2.1,5.9,1,0,0.9v0.8
	c0.3,0.1,0.6,0.2,1.1,0.4C0.7,2.1,0.7,2.3,1.2,2.5C1.8,2.8,2.4,2.9,3,2.7c0.2,0.1,0.3,0.1,0.5,0.2c4,1.3,5.5,2,3.9,1.9
	c5.6,1.5,9.3,2.5,12.6,4c2.3,1.1,4.7,1.9,7.2,2.3c1.2-0.5,13.4,3.5,14.4,4.7c1,1.2,4.7,2.3,19.9,6.3c4.8,1.3,7.9,2.8,7.1,3.5
	c-0.2,0.2-7.9-1.7-17-4c-9.1-2.4-19.3-4.8-22.7-5.4c-4.2-0.7-17-3.5-28.7-6.3v117h1440V123.2z M1190.8,89.6c0.7,0.4,1.5,0.5,2.2,0.2
	c0.5-0.4-0.2-0.7-1.5-0.7C1190.1,89,1189.8,89.2,1190.8,89.6z M1086.8,81.4c0.1-0.5-0.4-1-1-1.1c-0.8,0-1.5,0.3-1.9,0.9
	c-0.4,0.5-0.1,1,1,1.1S1086.8,82,1086.8,81.4z M1074.8,97.9c1.8,0.8,3.2,0.9,4,0.4c0.8-0.6,0-1.1-2.7-1.3
	C1072.3,96.6,1072.2,96.7,1074.8,97.9z M1141.4,82.5c-1.5,0.5-3.2,0.5-4.7,0c-4.4-1.1-33.6-4.9-33-4.3c0.7,0.7,9,2.1,26.7,4.8
	c3.9,0.4,7.8,1.2,11.6,2.4c0,0.4,1.8,0.6,4.1,0.6c1.9-0.1,3.8,0.2,5.5,1.1c2,0.8,4.1,1.1,6.3,0.9c3.9-0.2,4.5-0.5,3.3-1.7
	c-1.4-1-3-1.5-4.8-1.6l-3.3-0.2l6.9,2l-3.5,0.3c-3.3,0.3-5.7-1.2-4.4-2.8C1153,83.1,1143,81.6,1141.4,82.5z M1086.3,95.2l-5.2-1.2
	c-2.8-0.6-6.5-1.5-8.1-2.1c-2.7-0.9-2.7-0.8,0.2,1.1c2.4,1.3,5.2,2,8.1,2.1L1086.3,95.2z M940.3,84c0.7,0.4,1.5,0.5,2.2,0.2
	c0.4-0.4-0.3-0.7-1.5-0.7C939.7,83.3,939.4,83.6,940.3,84z M779.7,74.4c3.1,0.5,6.2,0.8,9.4,0.8c2.4,0.1,0.2-0.4-5-0.8
	C778.9,73.9,776.9,73.9,779.7,74.4z M612.1,49.7c0.7,0.4,1.5,0.5,2.2,0.2c0.4-0.4-0.2-0.7-1.5-0.7C611.5,49.1,611.2,49.3,612.1,49.7
	z M178.8,4.8l-19.5,1.3l6.2,3.6c2.6,1.8,5.8,2.8,9.1,2.9c14.6-1.1,29.3-1.5,44.1-1.3c3.8,0.2,7.5-0.5,10.9-1.9
	c2.7-1.6,10.9-1.6,35.3,0.5c17.4,1.4,32.4,2.4,33.2,2.5c0.9-0.2,1.6-0.8,1.7-1.7c0.3-2.9-4.8-5.9-16.4-8.8
	C271.7-1,265.9-0.9,178.8,4.8z M738.4,63.8c-2.6-0.2-2.8-0.1-0.9,1c1.8,0.8,3.8,1.3,5.8,1.2c3.6,0,3.7,0,0.9-1
	C742.3,64.4,740.4,64,738.4,63.8z M731.6,72c0.7,0.4,1.5,0.5,2.2,0.2c0.3-0.4-0.3-0.7-1.5-0.7C731,71.3,730.7,71.6,731.6,72z
	 M153.3,13.5c3-0.2,5.1-1.2,4.6-2c-1.7-2.9-12.7-4.9-25-4.6c-6.8,0.2-10.4,0.7-8,1.3c2.4,0.6,4.3,2.2,4.1,3.7
	C128.8,14.5,135.4,15,153.3,13.5z M978,107.4c-1.4-0.1-1.7,0.1-0.8,0.5c0.7,0.4,1.5,0.5,2.2,0.2C979.9,107.8,979.2,107.5,978,107.4z
	 M978.3,110c0.7,0.4,1.5,0.5,2.2,0.2c0.4-0.3-0.3-0.6-1.5-0.7C977.6,109.3,977.3,109.6,978.3,110z M124.8,10.9
	c-1.1-0.1-1.3,0.1-0.6,0.4c0.5,0.3,1.2,0.4,1.8,0.2C126.4,11.2,125.8,11,124.8,10.9z M962,107.6c0.7,0.4,1.5,0.5,2.2,0.2
	c0.4-0.4-0.2-0.7-1.5-0.7C961.3,106.9,961,107.2,962,107.6z M104,9.8c-1.8-1.7-2.5-0.6-2.7,2.7c-0.3,3.2,0.4,4.5,2.4,4
	c0.8-0.1,1.5-0.2,2.3-0.3c0.1,0.3,0.4,0.5,0.8,0.5c0.5,0,1-0.3,1-0.7c0,0,0,0,0,0c2.8-0.3,5.6-0.5,8.4-0.7l9.7-0.6l-9.7-1.4
	C111.9,12.8,107.8,11.7,104,9.8z M964.3,75c-1.6-0.4-3.2-0.3-3.6,0.1s0.9,1,2.9,1.1C967.9,76.6,968.2,76,964.3,75z M925.7,88
	c2.4,1,7.9-0.6,5.8-1.8c-5.2-1-10.4-1.7-15.6-2.1c-8-0.8-14.7-2-14.9-2.5c-0.3-0.9-10.6-1.6-47.1-3.1c-11.2-0.4-23.4-1.1-26.9-1.4
	c-2.5-0.4-5-0.3-7.4,0.2c-1.1,0.8,4.4,1.2,40.9,2.7c18.5,0.5,37,2.4,55.3,5.6C919.1,86.2,922.4,86.9,925.7,88z M901.8,92.8
	c1.7,0.4,3.5,0.5,5.3,0.5c1.5-0.1,0.3-0.4-2.6-0.7C901.7,92.4,900.4,92.5,901.8,92.8z M963.3,85.2c-0.7-0.6-1.6-0.9-2.6-1
	c-1.3-0.1-1.5,0.2-0.6,1.1c0.6,0.7,1.6,1.1,2.6,1C963.5,86.1,963.8,85.6,963.3,85.2z M934.4,72.5c0-0.6-0.7-1.1-1.7-1.2
	c-1-0.1-1.8,0.3-1.8,0.9c0,0.6,0.7,1.1,1.7,1.2C933.6,73.5,934.4,73.1,934.4,72.5z M816.6,91.1c2.1,0.4,4.3,0.6,6.4,0.6
	c1.7-0.1,0.3-0.4-3.2-0.7C816.3,90.7,814.9,90.8,816.6,91.1z M808.6,90.7c0.3,0.6,1.1,0.9,1.8,0.6c1.7-0.7,1.4-1.4-0.6-1.5
	C808.8,89.7,808.3,90.1,808.6,90.7z M873.4,90.4c-0.6-0.1-4.4,0.2-8.3,0.4c-5.1,0.2-3.4,0.4,6.4,0.9c14.4,0.7,18.3,0.5,8.8-0.6
	C878.1,90.7,875.8,90.5,873.4,90.4z M854.7,87.7c0.4,0.5,1.6,0.8,3,0.7c3.3-0.5,3-1.1-0.5-1.4C855.5,86.8,854.3,87.1,854.7,87.7z"/>
</svg>
