<?xml version="1.0" encoding="UTF-8"?>
<svg width="51px" height="51px" viewBox="0 0 51 51" version="1.1" xmlns="http://www.w3.org/2000/svg" xmlns:xlink="http://www.w3.org/1999/xlink">
    <!-- Generator: Sketch 46.2 (44496) - http://www.bohemiancoding.com/sketch -->
    <title>Oval 4</title>
    <desc>Created with Sketch.</desc>
    <defs></defs>
    <g id="Desktop" stroke="none" stroke-width="1" fill="none" fill-rule="evenodd">
        <g id="Desktop-(1440/1200)" transform="translate(-1322.000000, -67.000000)" fill-rule="nonzero" fill="#FFFFFF">
            <g id="Group-6" transform="translate(1322.000000, 67.000000)">
                <path d="M25.5,48 C37.9264069,48 48,37.9264069 48,25.5 C48,13.0735931 37.9264069,3 25.5,3 C13.0735931,3 3,13.0735931 3,25.5 C3,37.9264069 13.0735931,48 25.5,48 Z M25.5,51 C11.4167389,51 0,39.5832611 0,25.5 C0,11.4167389 11.4167389,0 25.5,0 C39.5832611,0 51,11.4167389 51,25.5 C51,39.5832611 39.5832611,51 25.5,51 Z M21.68,18.66 L14.28,18.66 L14.28,32 L21.68,32 L21.68,29.76 L16.88,29.76 L16.88,26.12 L21.48,26.12 L21.48,23.88 L16.88,23.88 L16.88,20.9 L21.68,20.9 L21.68,18.66 Z M26.8,32 L26.8,23.08 L34.92,32 L36.72,32 L36.72,18.66 L34.12,18.66 L34.12,27.56 L26,18.66 L24.2,18.66 L24.2,32 L26.8,32 Z" id="Oval-4"></path>
            </g>
        </g>
    </g>
</svg>