<?xml version="1.0" encoding="UTF-8" standalone="no"?>
<svg width="51px" height="51px" viewBox="0 0 51 51" version="1.1" xmlns="http://www.w3.org/2000/svg" xmlns:xlink="http://www.w3.org/1999/xlink">
    <!-- Generator: Sketch 46.2 (44496) - http://www.bohemiancoding.com/sketch -->
    <title>Oval 4</title>
    <desc>Created with Sketch.</desc>
    <defs></defs>
    <g id="Desktop" stroke="none" stroke-width="1" fill="none" fill-rule="evenodd">
        <g id="Desktop-(1440/1200)" transform="translate(-1322.000000, -67.000000)" fill-rule="nonzero" fill="#FFFFFF">
            <g id="Group-6" transform="translate(1322.000000, 67.000000)">
                <path d="M25.5,48 C37.9264069,48 48,37.9264069 48,25.5 C48,13.0735931 37.9264069,3 25.5,3 C13.0735931,3 3,13.0735931 3,25.5 C3,37.9264069 13.0735931,48 25.5,48 Z M25.5,51 C11.4167389,51 0,39.5832611 0,25.5 C0,11.4167389 11.4167389,0 25.5,0 C39.5832611,0 51,11.4167389 51,25.5 C51,39.5832611 39.5832611,51 25.5,51 Z M23.7,18.66 L16.62,18.66 L16.62,32 L19.22,32 L19.22,26.12 L23.42,26.12 L23.42,23.88 L19.22,23.88 L19.22,20.9 L23.7,20.9 L23.7,18.66 Z M25.94,18.66 L29.8,18.66 C31.64,18.66 32.58,19.14 33.2,19.66 C34.22,20.52 34.52,21.66 34.52,22.66 C34.52,23.96 34,25.1 32.96,25.8 C32.62,26.04 32.14,26.26 31.5,26.38 L35.66,32 L32.42,32 L28.86,26.64 L28.54,26.64 L28.54,32 L25.94,32 L25.94,18.66 Z M28.54,20.78 L28.54,24.8 L29.28,24.8 C29.78,24.8 31.84,24.74 31.84,22.78 C31.84,20.8 29.8,20.78 29.32,20.78 L28.54,20.78 Z" id="Oval-4"></path>
            </g>
        </g>
    </g>
</svg>